{
.appVersion = "3401";
.formatVersion = 3;
axes = (
{
name = Weight;
tag = wght;
}
);
classes = (
{
automatic = 1;
code = "A Aacute Abreve Abreveacute Abrevedotbelow Abrevegrave Abrevehookabove Abrevetilde Acircumflex Acircumflexacute Acircumflexdotbelow Acircumflexgrave Acircumflexhookabove Acircumflextilde Adieresis Adotbelow Agrave Ahookabove Amacron Aogonek Aring Atilde AE B C Cacute Ccaron Ccedilla Ccircumflex Cdotaccent D Dcaron Dcroat Dtail Eth E Eacute Ecaron Ecircumflex Ecircumflexacute Ecircumflexdotbelow Ecircumflexgrave Ecircumflexhookabove Ecircumflextilde Edieresis Edotaccent Edotbelow Egrave Ehookabove Emacron Eogonek Eopen Etilde Schwa F Fhook G Gbreve Gcircumflex Gcommaaccent Gdotaccent H Hbar Hcircumflex I IJ Iacute Icircumflex Idieresis Idotaccent Idotbelow Igrave Ihookabove Imacron Iogonek Itilde J Jacute Jcircumflex K Kcommaaccent L Lacute Lcaron Lcommaaccent Lslash M N Nacute Ncaron Ncommaaccent Ntilde Eng O Oacute Ocircumflex Ocircumflexacute Ocircumflexdotbelow Ocircumflexgrave Ocircumflexhookabove Ocircumflextilde Odieresis Odotbelow Ograve Ohookabove Ohorn Ohornacute Ohorndotbelow Ohorngrave Ohornhookabove Ohorntilde Ohungarumlaut Omacron Oopen Oslash Otilde OE P Thorn Q R Racute Rcaron Rcommaaccent S Sacute Scaron Scedilla Scircumflex Scommaaccent Germandbls T Tcaron Tcedilla Tcommaaccent U Uacute Ubreve Ucircumflex Udieresis Udotbelow Ugrave Uhookabove Uhorn Uhornacute Uhorndotbelow Uhorngrave Uhornhookabove Uhorntilde Uhungarumlaut Umacron Uogonek Uring Utilde V Vhook W Wacute Wcircumflex Wdieresis Wgrave X Y Yacute Ycircumflex Ydieresis Ydotbelow Ygrave Yhookabove Ytilde Z Zacute Zcaron Zdotaccent Alpha Beta Gamma Delta Epsilon Zeta Eta Theta Iota Kappa Lambda Mu Nu Xi Omicron Pi Rho Sigma Tau Upsilon Phi Chi Psi Omega Alphatonos Epsilontonos Etatonos Iotatonos Omicrontonos Upsilontonos Omegatonos Iotadieresis Upsilondieresis";
name = Uppercase;
},
{

glyphs = (
{
glyphname = A;
lastChange = "2025-03-07 18:49:08 +0000";
layers = (
{
anchors = (
{
name = bottom;
pos = (351,0);
},
{
name = ogonek;
pos = (632,10);
},
{
name = top;
pos = (360,616);
}
);
color = 4;
layerId = m005;
shapes = (
{
closed = 1;
nodes = (
(684,0,l),
(684,25,l),
(614,39,o),
(593,64,o),
(563,135,cs),
(495,306,o),
(428,477,o),
(360,648,c),
(320,576,l),
(313,550,l),
(470,139,ls),
(507,42,o),
(496,43,o),
(414,25,c),
(414,0,l)
);
},
{
closed = 1;
nodes = (
(270,0,l),
(270,25,l),
(195,31,o),
(167,57,o),
(194,130,cs),
(353,564,l),
(320,576,l),
(255,404,o),
(187,198,o),
(125,83,cs),
(106,49,o),
(62,25,o),
(18,25,c),
(18,0,l)
);
},
{
closed = 1;
nodes = (
(468,258,l),
(454,298,l),
(231,298,l),
(214,258,l)
);
}
);
width = 702;
},
{
anchors = (
{
name = bottom;
pos = (387,0);
},
{
name = ogonek;
pos = (697,10);
},
{
name = top;
pos = (387,634);
}
);
background = {
shapes = (
{
closed = 1;
nodes = (
(666,0,l),
(666,25,l),
(596,39,o),
(575,64,o),
(545,135,cs),
(477,306,o),
(410,477,o),
(342,648,c),
(302,576,l),
(295,550,l),
(452,139,ls),
(489,42,o),
(478,43,o),
(396,25,c),
(396,0,l)
);
},
{
closed = 1;
nodes = (
(252,0,l),
(252,25,l),
(177,31,o),
(149,57,o),
(176,130,cs),
(335,564,l),
(302,576,l),
(237,404,o),
(169,198,o),
(107,83,cs),
(88,49,o),
(44,25,o),
(0,25,c),
(0,0,l)
);
},
{
closed = 1;
nodes = (
(450,258,l),
(436,298,l),
(213,298,l),
(196,258,l)
);
},
{
closed = 1;
nodes = (
(738,18,l),
(738,43,l),
(668,57,o),
(647,82,o),
(617,153,cs),
(549,324,o),
(482,495,o),
(414,666,c),
(374,594,l),
(367,568,l),
(524,157,ls),
(561,60,o),
(550,61,o),
(468,43,c),
(468,18,l)
);
},
{
closed = 1;
nodes = (
(324,18,l),
(324,43,l),
(249,49,o),
(221,75,o),
(248,148,cs),
(407,582,l),
(374,594,l),
(309,422,o),
(241,216,o),
(179,101,cs),
(160,67,o),
(116,43,o),
(72,43,c),
(72,18,l)
);
},
{
closed = 1;
nodes = (
(522,276,l),
(508,316,l),
(285,316,l),
(268,276,l)
);
}
);
};
color = 4;
layerId = m002;
shapes = (
{
closed = 1;
nodes = (
(756,0,l),
(756,25,l),
(686,39,o),
(683,64,o),
(653,135,cs),
(585,306,o),
(536,495,o),
(468,666,c),
(310,633,l),
(339,607,l),
(496,139,ls),
(529,40,o),
(522,43,o),
(440,25,c),
(440,0,l)
);
},
{
closed = 1;
nodes = (
(288,0,l),
(288,25,l),
(213,31,o),
(188,58,o),
(212,130,cs),
(379,621,l),
(310,633,l),
(245,461,o),
(169,198,o),
(107,83,cs),
(88,49,o),
(44,25,o),
(0,25,c),
(0,0,l)
);
},
{
closed = 1;
nodes = (
(486,240,l),
(472,298,l),
(213,298,l),
(196,240,l)
);
}
);
width = 774;
}
);
unicode = 65;
},
{
glyphname = AE;
lastChange = "2025-03-07 13:07:43 +0000";
layers = (
{
anchors = (
{
name = bottom;
pos = (450,0);
},
{
name = top;
pos = (450,616);
}
);
color = 10;
layerId = m005;
shapes = (
{
closed = 1;
nodes = (
(270,0,l),
(270,23,l),
(193,23,o),
(156,60,o),
(195,130,cs),
(457,596,l),
(406,617,l),
(325,451,o),
(185,198,o),
(123,83,cs),
(104,49,o),
(60,25,o),
(18,25,c),
(18,0,l)
);
},
{
closed = 1;
nodes = (
(528,274,l),
(514,314,l),
(253,314,l),
(236,274,l)
);
},
{
closed = 1;
nodes = (
(401,-1,o),
(449,0,o),
(494,0,c),
(639,0,o),
(765,-1,o),
(842,-3,c),
(856,44,o),
(866,110,o),
(866,157,c),
(837,157,l),
(825,90,o),
(786,45,o),
(743,42,cs),
(711,40,o),
(679,39,o),
(624,39,cs),
(586,39,o),
(554,51,o),
(546,68,cs),
(543,74,o),
(541,90,o),
(541,107,cs),
(539,309,ls),
(539,328,o),
(541,407,o),
(541,509,c),
(541,577,l),
(619,577,o),
(623,579,o),
(692,575,cs),
(717,573,o),
(740,544,o),
(748,499,c),
(782,499,l),
(783,536,o),
(788,586,o),
(795,619,c),
(730,617,o),
(627,616,o),
(504,616,c),
(455,616,o),
(358,617,o),
(333,619,c),
(330,598,l),
(372,586,o),
(380,574,o),
(393,567,c),
(464,567,l),
(465,312,l),
(463,91,ls),
(463,64,o),
(451,40,o),
(435,32,cs),
(433,31,o),
(413,25,o),
(378,21,c),
(378,-3,l)
);
},
{
closed = 1;
nodes = (
(729,184,l),
(723,250,o),
(723,342,o),
(729,408,c),
(701,408,l),
(700,402,o),
(697,388,o),
(692,374,c),
(678,338,o),
(684,314,o),
(626,314,cs),
(486,314,l),
(486,274,l),
(626,274,ls),
(691,274,o),
(683,253,o),
(693,220,cs),
(697,208,o),
(700,196,o),
(703,184,c)
);
}
);
width = 900;
},
{
anchors = (
{
name = bottom;
pos = (504,0);
},
{
name = top;
pos = (504,634);
}
);
background = {
shapes = (
{
closed = 1;
nodes = (
(988,44,o),
(998,110,o),
(1000,157,c),
(953,157,l),
(941,90,o),
(902,43,o),
(859,40,cs),
(827,38,o),
(781,37,o),
(724,37,cs),
(690,37,o),
(674,42,o),
(663,52,cs),
(653,62,o),
(650,76,o),
(650,96,cs),
(650,265,o),
(649,416,o),
(651,594,c),
(688,596,o),
(717,596,o),
(739,596,cs),
(767,596,o),
(802,596,o),
(834,594,cs),
(859,592,o),
(882,562,o),
(890,481,c),
(942,481,l),
(943,554,o),
(948,604,o),
(955,637,c),
(890,635,o),
(729,634,o),
(536,634,cs),
(487,634,o),
(435,635,o),
(406,636,c),
(406,607,l),
(441,602,o),
(465,599,o),
(480,585,cs),
(489,576,o),
(495,562,o),
(495,539,cs),
(497,376,o),
(497,236,o),
(495,91,cs),
(495,67,o),
(490,52,o),
(480,42,cs),
(466,29,o),
(443,26,o),
(406,23,c),
(406,-2,l),
(526,0,ls),
(741,4,o),
(899,-1,o),
(976,-3,c)
);
},
{
closed = 1;
nodes = (
(845,206,l),
(839,272,o),
(839,364,o),
(845,430,c),
(792,430,l),
(791,424,o),
(786,410,o),
(781,396,c),
(764,360,o),
(705,336,o),
(663,336,cs),
(529,336,l),
(529,296,l),
(663,296,ls),
(748,296,o),
(770,274,o),
(782,242,cs),
(793,206,l)
);
}
);
};
color = 10;
layerId = m002;
shapes = (
{
closed = 1;
nodes = (
(288,0,l),
(288,23,l),
(211,23,o),
(175,60,o),
(213,130,cs),
(475,614,l),
(402,635,l),
(321,469,o),
(167,198,o),
(105,83,cs),
(86,49,o),
(42,25,o),
(0,25,c),
(0,0,l)
);
},
{
closed = 1;
nodes = (
(582,274,l),
(586,332,l),
(271,332,l),
(272,274,l)
);
},
{
closed = 1;
nodes = (
(419,-1,o),
(503,0,o),
(548,0,c),
(729,0,o),
(861,-2,o),
(956,-4,c),
(970,43,o),
(980,109,o),
(980,156,c),
(935,157,l),
(923,90,o),
(884,43,o),
(841,40,cs),
(809,38,o),
(761,37,o),
(706,37,cs),
(668,37,o),
(644,51,o),
(636,68,cs),
(633,74,o),
(631,90,o),
(631,107,cs),
(629,309,ls),
(629,328,o),
(631,425,o),
(631,527,c),
(631,595,l),
(709,595,o),
(747,598,o),
(816,594,cs),
(839,592,o),
(863,562,o),
(873,481,c),
(924,481,l),
(925,518,o),
(930,604,o),
(937,637,c),
(872,635,o),
(717,634,o),
(558,634,c),
(509,634,o),
(354,635,o),
(329,637,c),
(326,616,l),
(368,604,o),
(376,592,o),
(389,585,c),
(482,585,l),
(483,312,l),
(481,91,ls),
(481,64,o),
(469,40,o),
(453,32,cs),
(451,31,o),
(431,25,o),
(360,21,c),
(360,-3,l)
);
},
{
closed = 1;
nodes = (
(828,184,l),
(822,250,o),
(822,360,o),
(828,426,c),
(774,426,l),
(773,420,o),
(770,406,o),
(765,392,c),
(751,356,o),
(739,332,o),
(681,332,cs),
(523,332,l),
(523,274,l),
(681,274,ls),
(746,274,o),
(756,253,o),
(766,220,cs),
(770,208,o),
(773,196,o),
(776,184,c)
);
}
);
width = 1008;
}
);
unicode = 198;
},
{
glyphname = B;
lastChange = "2025-03-07 13:07:43 +0000";
layers = (
{
anchors = (
{
name = bottom;
pos = (288,0);
},
{
name = center;
pos = (144,154);
},
{
name = top;
pos = (288,616);
}
);
color = 2;
guides = (
{
angle = 270;
pos = (18,13);
}
);
layerId = m005;
shapes = (
{
closed = 1;
nodes = (
(18,0,l),
(309,0,l),
(309,40,l),
(264,40,o),
(223,34,o),
(204,50,cs),
(195,58,o),
(185,73,o),
(185,91,cs),
(185,307,o),
(185,377,o),
(185,574,c),
(202,576,o),
(266,576,o),
(289,576,c),
(289,616,l),
(18,616,l),
(18,591,l),
(54,586,o),
(78,582,o),
(92,572,cs),
(102,565,o),
(107,552,o),
(107,525,cs),
(108,341,o),
(109,253,o),
(109,312,cs),
(109,373,o),
(108,282,o),
(107,91,cs),
(107,65,o),
(101,51,o),
(92,43,cs),
(76,29,o),
(50,31,o),
(18,25,c)
);
},
{
closed = 1;
nodes = (
(177,318,o),
(189,318,o),
(217,318,cs),
(379,318,o),
(482,378,o),
(482,481,cs),
(482,560,o),
(402,616,o),
(289,616,c),
(289,576,l),
(350,576,o),
(393,529,o),
(393,462,cs),
(393,387,o),
(324,348,o),
(210,348,cs),
(150,348,l),
(151,318,l)
);
},
{
closed = 1;
nodes = (
(434,0,o),
(522,79,o),
(522,191,cs),
(522,280,o),
(437,333,o),
(316,338,cs),
(132,346,l),
(132,314,l),
(154,314,o),
(166,314,o),
(203,314,cs),
(338,314,o),
(431,263,o),
(431,171,cs),
(431,94,o),
(379,40,o),
(309,40,c),
(309,0,l)
);
}
);
width = 576;
},
{
anchors = (
{
name = bottom;
pos = (342,0);
},
{
name = center;
pos = (171,159);
},
{
name = top;
pos = (342,634);
}
);
background = {
shapes = (
{
closed = 1;
nodes = (
(18,0,l),
(345,0,l),
(345,40,l),
(300,40,o),
(223,34,o),
(204,50,cs),
(195,58,o),
(185,73,o),
(185,91,cs),
(185,307,o),
(185,377,o),
(185,574,c),
(202,576,o),
(266,576,o),
(289,576,c),
(289,616,l),
(18,616,l),
(18,591,l),
(54,586,o),
(78,582,o),
(92,572,cs),
(102,565,o),
(107,552,o),
(107,525,cs),
(108,341,o),
(109,253,o),
(109,312,cs),
(109,373,o),
(108,282,o),
(107,91,cs),
(107,65,o),
(101,51,o),
(92,43,cs),
(76,29,o),
(50,31,o),
(18,25,c)
);
},
{
closed = 1;
nodes = (
(177,318,o),
(189,318,o),
(217,318,cs),
(415,318,o),
(518,378,o),
(518,481,cs),
(518,560,o),
(438,616,o),
(289,616,c),
(289,576,l),
(386,576,o),
(429,529,o),
(429,462,cs),
(429,387,o),
(360,348,o),
(210,348,cs),
(150,348,l),
(151,318,l)
);
},
{
closed = 1;
nodes = (
(470,0,o),
(558,79,o),
(558,191,cs),
(558,280,o),
(473,334,o),
(352,338,cs),
(132,346,l),
(132,314,l),
(154,314,o),
(166,314,o),
(203,314,cs),
(374,314,o),
(467,263,o),
(467,171,cs),
(467,94,o),
(415,40,o),
(345,40,c),
(345,0,l)
);
},
{
closed = 1;
nodes = (
(90,18,l),
(417,18,l),
(417,58,l),
(372,58,o),
(331,52,o),
(276,68,cs),
(264,71,o),
(257,91,o),
(257,109,cs),
(257,325,o),
(257,395,o),
(257,592,c),
(274,594,o),
(374,594,o),
(397,594,c),
(397,634,l),
(90,634,l),
(90,609,l),
(126,604,o),
(150,600,o),
(164,590,cs),
(174,583,o),
(179,570,o),
(179,543,cs),
(180,359,o),
(181,271,o),
(181,330,cs),
(181,391,o),
(180,300,o),
(179,109,cs),
(179,83,o),
(173,69,o),
(164,61,cs),
(148,47,o),
(122,49,o),
(90,43,c)
);
},
{
closed = 1;
nodes = (
(249,336,o),
(261,336,o),
(289,336,cs),
(487,336,o),
(590,396,o),
(590,499,cs),
(590,578,o),
(510,634,o),
(397,634,c),
(397,594,l),
(458,594,o),
(501,547,o),
(501,480,cs),
(501,405,o),
(432,366,o),
(282,366,cs),
(222,366,l),
(223,336,l)
);
},
{
closed = 1;
nodes = (
(542,18,o),
(630,97,o),
(630,209,cs),
(630,298,o),
(545,352,o),
(424,356,cs),
(204,364,l),
(204,332,l),
(226,332,o),
(238,332,o),
(275,332,cs),
(446,332,o),
(539,281,o),
(539,189,cs),
(539,112,o),
(487,58,o),
(417,58,c),
(417,18,l)
);
}
);
};
color = 2;
guides = (
{
angle = 270;
pos = (18,13);
}
);
layerId = m002;
shapes = (
{
closed = 1;
nodes = (
(18,0,l),
(381,0,l),
(345,40,l),
(311,40,o),
(283,44,o),
(276,50,cs),
(265,60,o),
(257,77,o),
(257,91,cs),
(257,325,o),
(257,395,o),
(257,592,c),
(273,593,o),
(302,594,o),
(325,594,c),
(379,634,l),
(18,634,l),
(18,609,l),
(54,604,o),
(78,600,o),
(92,590,cs),
(102,583,o),
(107,570,o),
(107,543,cs),
(108,359,o),
(109,253,o),
(109,330,cs),
(109,391,o),
(108,282,o),
(107,91,cs),
(107,65,o),
(101,51,o),
(92,43,cs),
(76,29,o),
(50,31,o),
(18,25,c)
);
},
{
closed = 1;
nodes = (
(249,336,o),
(297,336,o),
(325,336,cs),
(480,336,o),
(590,404,o),
(590,499,cs),
(590,578,o),
(513,634,o),
(379,634,c),
(325,594,l),
(386,594,o),
(429,547,o),
(429,480,cs),
(429,413,o),
(368,366,o),
(282,366,cs),
(222,366,l),
(223,336,l)
);
},
{
closed = 1;
nodes = (
(527,0,o),
(630,79,o),
(630,191,cs),
(630,284,o),
(545,353,o),
(424,356,cs),
(132,364,l),
(132,332,l),
(226,332,o),
(238,332,o),
(275,332,cs),
(387,332,o),
(467,265,o),
(467,171,cs),
(467,94,o),
(416,40,o),
(345,40,c),
(381,0,l)
);
}
);
width = 684;
}
);
unicode = 66;
},
{
glyphname = C;
lastChange = "2025-03-07 18:51:21 +0000";
layers = (
{
anchors = (
{
name = bottom;
pos = (404,0);
},
{
name = top;
pos = (404,616);
}
);
background = {
shapes = (
{
closed = 1;
nodes = (
(418,588,l),
(514,588,o),
(584,528,o),
(589,444,c),
(620,444,l),
(622,495,o),
(629,558,o),
(636,595,c),
(586,614,o),
(492,627,o),
(410,627,c)
);
}
);
};
backgroundImage = {
imagePath = "../../Desktop/Bildschirmfoto 2024-12-24 um 08.52.09.png";
pos = (714,-952);
scale = (-1.4,1.4);
};
color = 4;
layerId = m005;
shapes = (
{
closed = 1;
nodes = (
(479,-11,o),
(572,9,o),
(628,38,c),
(646,106,o),
(662,174,o),
(666,201,c),
(630,200,l),
(606,102,o),
(520,33,o),
(422,33,cs),
(268,33,o),
(149,158,o),
(149,335,cs),
(149,482,o),
(267,588,o),
(416,588,cs),
(514,588,o),
(585,528,o),
(589,444,c),
(620,444,l),
(622,489,o),
(629,551,o),
(636,595,c),
(586,614,o),
(490,627,o),
(404,627,cs),
(197,627,o),
(54,496,o),
(54,312,cs),
(54,123,o),
(197,-11,o),
(404,-11,cs)
);
}
);
width = 720;
},
{
anchors = (
{
name = bottom;
pos = (408,0);
},
{
name = top;
pos = (407,616);
}
);
associatedMasterId = m005;
background = {
shapes = (
{
closed = 1;
nodes = (
(418,588,l),
(514,588,o),
(584,528,o),
(589,444,c),
(620,444,l),
(622,495,o),
(629,558,o),
(636,595,c),
(586,614,o),
(492,627,o),
(410,627,c)
);
}
);
};
backgroundImage = {
imagePath = "../../Desktop/Bildschirmfoto 2024-12-24 um 08.52.09.png";
pos = (714,-952);
scale = (-1.4,1.4);
};
color = 4;
layerId = "A8205263-60D0-4B63-B521-8F6B441CF343";
name = "11. Jan. 25, 13:19";
shapes = (
{
closed = 1;
nodes = (
(479,-11,o),
(572,9,o),
(628,38,c),
(646,106,o),
(662,174,o),
(666,201,c),
(630,200,l),
(606,102,o),
(520,33,o),
(422,33,cs),
(268,33,o),
(156,158,o),
(156,335,cs),
(156,482,o),
(265,586,o),
(414,586,cs),
(506,586,o),
(582,522,o),
(597,432,c),
(637,432,l),
(634,599,l),
(584,573,l),
(551,605,o),
(477,627,o),
(404,627,cs),
(197,627,o),
(54,496,o),
(54,312,cs),
(54,123,o),
(197,-11,o),
(404,-11,cs)
);
}
);
width = 720;
},
{
anchors = (
{
name = bottom;
pos = (396,0);
},
{
name = top;
pos = (396,634);
}
);
background = {
shapes = (
{
closed = 1;
nodes = (
(418,588,l),
(514,588,o),
(584,528,o),
(589,444,c),
(620,444,l),
(622,495,o),
(629,558,o),
(636,595,c),
(586,614,o),
(492,627,o),
(410,627,c)
);
},
{
closed = 1;
nodes = (
(479,-11,o),
(572,9,o),
(628,38,c),
(646,106,o),
(662,174,o),
(666,201,c),
(630,200,l),
(606,102,o),
(520,33,o),
(422,33,cs),
(268,33,o),
(149,158,o),
(149,335,cs),
(149,482,o),
(267,588,o),
(416,588,cs),
(514,588,o),
(585,528,o),
(589,444,c),
(620,444,l),
(622,489,o),
(629,551,o),
(636,595,c),
(586,614,o),
(490,627,o),
(404,627,cs),
(197,627,o),
(54,496,o),
(54,312,cs),
(54,123,o),
(197,-11,o),
(404,-11,cs)
);
},
{
closed = 1;
nodes = (
(551,7,o),
(644,27,o),
(700,56,c),
(718,124,o),
(734,192,o),
(738,219,c),
(702,218,l),
(678,120,o),
(592,51,o),
(494,51,cs),
(340,51,o),
(221,176,o),
(221,353,cs),
(221,500,o),
(339,606,o),
(488,606,cs),
(586,606,o),
(657,546,o),
(661,462,c),
(692,462,l),
(694,507,o),
(701,569,o),
(708,613,c),
(658,632,o),
(562,645,o),
(476,645,cs),
(269,645,o),
(126,514,o),
(126,330,cs),
(126,141,o),
(269,7,o),
(476,7,cs)
);
}
);
};
backgroundImage = {
imagePath = "../../Desktop/Bildschirmfoto 2024-12-24 um 08.52.09.png";
pos = (714,-952);
scale = (-1.4,1.4);
};
color = 4;
layerId = m002;
shapes = (
{
closed = 1;
nodes = (
(537,-11,o),
(645,9,o),
(700,38,c),
(718,108,o),
(734,175,o),
(738,201,c),
(684,200,l),
(660,102,o),
(566,33,o),
(458,33,cs),
(319,33,o),
(221,158,o),
(221,335,cs),
(221,483,o),
(317,588,o),
(452,588,cs),
(559,588,o),
(638,528,o),
(642,408,c),
(692,408,l),
(695,502,o),
(709,564,o),
(726,595,c),
(659,614,o),
(540,627,o),
(440,627,cs),
(214,627,o),
(54,496,o),
(54,312,cs),
(54,123,o),
(214,-11,o),
(440,-11,cs)
);
}
);
width = 792;
},
{
anchors = (
{
name = bottom;
pos = (408,0);
},
{
name = top;
pos = (407,616);
}
);
associatedMasterId = m002;
background = {
shapes = (
{
closed = 1;
nodes = (
(418,588,l),
(514,588,o),
(584,528,o),
(589,444,c),
(620,444,l),
(622,495,o),
(629,558,o),
(636,595,c),
(586,614,o),
(492,627,o),
(410,627,c)
);
}
);
};
backgroundImage = {
imagePath = "../../Desktop/Bildschirmfoto 2024-12-24 um 08.52.09.png";
pos = (714,-952);
scale = (-1.4,1.4);
};
color = 4;
layerId = "9A3E0757-E8A1-446F-9B4D-CF8B795C0B9C";
name = "11. Jan. 25, 13:19";
shapes = (
{
closed = 1;
nodes = (
(479,-11,o),
(572,9,o),
(628,38,c),
(646,106,o),
(662,174,o),
(666,201,c),
(630,200,l),
(606,102,o),
(520,33,o),
(422,33,cs),
(268,33,o),
(156,158,o),
(156,335,cs),
(156,482,o),
(265,586,o),
(414,586,cs),
(506,586,o),
(582,522,o),
(597,432,c),
(637,432,l),
(634,599,l),
(584,573,l),
(551,605,o),
(477,627,o),
(404,627,cs),
(197,627,o),
(54,496,o),
(54,312,cs),
(54,123,o),
(197,-11,o),
(404,-11,cs)
);
}
);
width = 720;
}
);
unicode = 67;
},
{
glyphname = D;
lastChange = "2025-03-07 18:51:45 +0000";
layers = (
{
anchors = (
{
name = bottom;
pos = (284,0);
},
{
name = center;
pos = (176,308);
},
{
name = top;
pos = (283,616);
}
);
background = {
shapes = (
{
closed = 1;
nodes = (
(20,0,l),
(303,0,l),
(303,40,l),
(258,40,o),
(223,38,o),
(204,54,cs),
(195,62,o),
(190,73,o),
(190,91,cs),
(188,307,o),
(187,377,o),
(191,574,c),
(208,576,o),
(260,576,o),
(283,576,c),
(283,616,l),
(20,616,l),
(20,591,l),
(54,581,o),
(78,582,o),
(92,572,cs),
(102,565,o),
(107,552,o),
(107,525,cs),
(108,341,o),
(109,253,o),
(109,312,cs),
(109,373,o),
(108,282,o),
(107,91,cs),
(107,65,o),
(101,51,o),
(92,43,cs),
(76,29,o),
(50,31,o),
(20,25,c)
);
}
);
};
backgroundImage = {
imagePath = "../../Desktop/Bildschirmfoto 2024-12-24 um 13.06.05.png";
pos = (759,-1011);
scale = (-1.4,1.4);
};
color = 2;
layerId = m005;
shapes = (
{
closed = 1;
nodes = (
(18,0,l),
(41,0,o),
(103,0,o),
(145,0,cs),
(145,0,o),
(186,1,o),
(304,-3,c),
(318,38,l),
(266,38,o),
(227,33,o),
(204,55,cs),
(195,63,o),
(190,74,o),
(190,91,cs),
(190,189,o),
(190,476,o),
(191,574,c),
(237,577,o),
(269,578,o),
(315,578,c),
(331,619,l),
(250,618,o),
(188,616,o),
(148,616,c),
(102,616,o),
(49,616,o),
(18,616,c),
(18,590,l),
(56,583,o),
(79,582,o),
(92,572,cs),
(103,565,o),
(107,552,o),
(107,525,cs),
(108,411,o),
(109,323,o),
(109,312,cs),
(109,302,o),
(108,210,o),
(107,91,cs),
(107,66,o),
(102,52,o),
(92,43,cs),
(78,31,o),
(53,30,o),
(18,25,c)
);
},
{
closed = 1;
nodes = (
(304,-3,l),
(505,-2,o),
(648,135,o),
(648,327,cs),
(648,498,o),
(517,619,o),
(331,619,c),
(315,578,l),
(456,578,o),
(555,462,o),
(555,298,cs),
(555,146,o),
(457,38,o),
(318,38,c)
);
}
);
width = 702;
},
{
anchors = (
{
name = bottom;
pos = (387,0);
},
{
name = center;
pos = (194,317);
},
{
name = top;
pos = (387,634);
}
);
background = {
shapes = (
{
closed = 1;
nodes = (
(20,0,l),
(303,0,l),
(303,40,l),
(258,40,o),
(223,38,o),
(204,54,cs),
(195,62,o),
(190,73,o),
(190,91,cs),
(188,307,o),
(187,377,o),
(191,574,c),
(208,576,o),
(260,576,o),
(283,576,c),
(283,616,l),
(20,616,l),
(20,591,l),
(54,581,o),
(78,582,o),
(92,572,cs),
(102,565,o),
(107,552,o),
(107,525,cs),
(108,341,o),
(109,253,o),
(109,312,cs),
(109,373,o),
(108,282,o),
(107,91,cs),
(107,65,o),
(101,51,o),
(92,43,cs),
(76,29,o),
(50,31,o),
(20,25,c)
);
},
{
closed = 1;
nodes = (
(18,0,l),
(41,0,o),
(103,0,o),
(145,0,cs),
(145,0,o),
(186,1,o),
(304,-3,c),
(318,38,l),
(266,38,o),
(227,33,o),
(204,55,cs),
(195,63,o),
(190,74,o),
(190,91,cs),
(190,189,o),
(190,476,o),
(191,574,c),
(237,577,o),
(269,578,o),
(315,578,c),
(331,619,l),
(250,618,o),
(188,616,o),
(148,616,c),
(102,616,o),
(49,616,o),
(18,616,c),
(18,590,l),
(56,583,o),
(79,582,o),
(92,572,cs),
(103,565,o),
(107,552,o),
(107,525,cs),
(108,411,o),
(109,323,o),
(109,312,cs),
(109,302,o),
(108,210,o),
(107,91,cs),
(107,66,o),
(102,52,o),
(92,43,cs),
(78,31,o),
(53,30,o),
(18,25,c)
);
},
{
closed = 1;
nodes = (
(304,-3,l),
(505,-2,o),
(648,135,o),
(648,327,cs),
(648,498,o),
(517,619,o),
(331,619,c),
(315,578,l),
(456,578,o),
(555,462,o),
(555,298,cs),
(555,146,o),
(457,38,o),
(318,38,c)
);
},
{
closed = 1;
nodes = (
(90,18,l),
(113,18,o),
(175,18,o),
(217,18,cs),
(217,18,o),
(258,19,o),
(376,15,c),
(390,56,l),
(338,56,o),
(299,51,o),
(276,73,cs),
(267,81,o),
(262,92,o),
(262,109,cs),
(262,207,o),
(262,494,o),
(263,592,c),
(309,595,o),
(341,596,o),
(387,596,c),
(403,637,l),
(322,636,o),
(260,634,o),
(220,634,c),
(174,634,o),
(121,634,o),
(90,634,c),
(90,608,l),
(128,601,o),
(151,600,o),
(164,590,cs),
(175,583,o),
(179,570,o),
(179,543,cs),
(180,429,o),
(181,341,o),
(181,330,cs),
(181,320,o),
(180,228,o),
(179,109,cs),
(179,84,o),
(174,70,o),
(164,61,cs),
(150,49,o),
(125,48,o),
(90,43,c)
);
},
{
closed = 1;
nodes = (
(376,15,l),
(577,16,o),
(720,153,o),
(720,345,cs),
(720,516,o),
(589,637,o),
(403,637,c),
(387,596,l),
(528,596,o),
(627,480,o),
(627,316,cs),
(627,164,o),
(529,56,o),
(390,56,c)
);
}
);
};
backgroundImage = {
imagePath = "../../Desktop/Bildschirmfoto 2024-12-24 um 13.06.05.png";
pos = (759,-1011);
scale = (-1.4,1.4);
};
color = 2;
layerId = m002;
shapes = (
{
closed = 1;
nodes = (
(18,0,l),
(41,0,o),
(139,0,o),
(181,0,cs),
(181,0,o),
(258,1,o),
(376,-3,c),
(390,38,l),
(338,38,o),
(299,33,o),
(276,55,cs),
(267,63,o),
(262,74,o),
(262,91,cs),
(262,189,o),
(262,494,o),
(263,592,c),
(309,595,o),
(341,596,o),
(387,596,c),
(403,637,l),
(322,636,o),
(296,634,o),
(184,634,c),
(138,634,o),
(49,634,o),
(18,634,c),
(18,608,l),
(56,601,o),
(79,600,o),
(92,591,cs),
(103,583,o),
(107,570,o),
(107,543,cs),
(108,429,o),
(109,341,o),
(109,330,cs),
(109,320,o),
(108,210,o),
(107,91,cs),
(107,66,o),
(102,52,o),
(92,43,cs),
(78,31,o),
(53,30,o),
(18,25,c)
);
},
{
closed = 1;
nodes = (
(376,-3,l),
(577,-2,o),
(720,142,o),
(720,345,cs),
(720,516,o),
(589,637,o),
(403,637,c),
(387,596,l),
(485,596,o),
(555,480,o),
(555,317,cs),
(555,154,o),
(487,38,o),
(390,38,c)
);
}
);
width = 774;
}
);
unicode = 68;
},
{
glyphname = Dcroat;
lastChange = "2025-03-07 18:52:12 +0000";
layers = (
{
layerId = m005;
shapes = (
{
closed = 1;
nodes = (
(43,260,l),
(270,343,l),
(255,388,l),
(27,305,l)
);
},
{
ref = D;
}
);
width = 702;
},
{
layerId = m002;
shapes = (
{
closed = 1;
nodes = (
(43,268,l),
(270,351,l),
(258,388,l),
(30,305,l)
);
},
{
ref = D;
}
);
width = 702;
}
);
unicode = 272;
},
{
glyphname = Dtail;
lastChange = "2025-03-07 18:52:21 +0000";
layers = (
{
layerId = m005;
shapes = (
{
ref = D;
},
{
closed = 1;
nodes = (
(36,298,l),
(261,299,l),
(261,344,l),
(36,344,l)
);
}
);
width = 702;
},
{
layerId = m002;
shapes = (
{
ref = D;
},
{
closed = 1;
nodes = (
(36,298,l),
(261,299,l),
(261,339,l),
(36,339,l)
);
}
);
width = 702;
}
);
unicode = 393;
},
{
glyphname = E;
lastChange = "2025-03-07 18:52:57 +0000";
layers = (
{
anchors = (
{
name = bottom;
pos = (270,2);
},
{
name = ogonek;
pos = (518,10);
},
{
name = top;
pos = (276,616);
},
{
name = topleft;
pos = (20,616);
}
);
background = {
shapes = (
{
closed = 1;
nodes = (
(20,0,l),
(303,0,l),
(303,40,l),
(258,40,o),
(223,38,o),
(204,54,cs),
(195,62,o),
(190,73,o),
(190,91,cs),
(188,307,o),
(187,377,o),
(191,574,c),
(208,576,o),
(260,576,o),
(283,576,c),
(283,616,l),
(20,616,l),
(20,591,l),
(54,581,o),
(78,582,o),
(92,572,cs),
(102,565,o),
(107,552,o),
(107,525,cs),
(108,341,o),
(109,253,o),
(109,312,cs),
(109,373,o),
(108,282,o),
(107,91,cs),
(107,65,o),
(101,51,o),
(92,43,cs),
(76,29,o),
(50,31,o),
(20,25,c)
);
}
);
};
color = 2;
layerId = m005;
shapes = (
{
closed = 1;
nodes = (
(528,44,o),
(538,110,o),
(540,157,c),
(511,157,l),
(499,90,o),
(460,43,o),
(417,40,cs),
(385,38,o),
(321,37,o),
(264,37,cs),
(230,37,o),
(214,42,o),
(203,52,cs),
(193,62,o),
(190,76,o),
(190,96,cs),
(190,265,o),
(189,416,o),
(191,576,c),
(228,578,o),
(257,578,o),
(279,578,cs),
(307,578,o),
(342,578,o),
(374,576,cs),
(399,574,o),
(422,544,o),
(430,499,c),
(464,499,l),
(465,536,o),
(470,586,o),
(477,619,c),
(412,617,o),
(269,616,o),
(148,616,cs),
(99,616,o),
(47,617,o),
(18,618,c),
(18,589,l),
(53,584,o),
(77,581,o),
(92,567,cs),
(101,558,o),
(107,544,o),
(107,521,cs),
(109,376,o),
(109,236,o),
(107,91,cs),
(107,67,o),
(102,52,o),
(92,42,cs),
(78,29,o),
(55,26,o),
(18,23,c),
(18,-2,l),
(138,0,ls),
(281,2,o),
(439,-1,o),
(516,-3,c)
);
},
{
closed = 1;
nodes = (
(398,206,l),
(393,272,o),
(393,364,o),
(398,430,c),
(372,430,l),
(371,424,o),
(366,410,o),
(361,396,c),
(344,360,o),
(321,336,o),
(261,336,cs),
(131,336,l),
(131,296,l),
(261,296,ls),
(328,296,o),
(350,274,o),
(362,242,cs),
(373,206,l)
);
}
);
width = 576;
},
{
anchors = (
{
name = bottom;
pos = (324,0);
},
{
name = ogonek;
pos = (583,10);
},
{
name = top;
pos = (324,634);
},
{
name = topleft;
pos = (20,634);
}
);
background = {
shapes = (
{
closed = 1;
nodes = (
(528,44,o),
(538,110,o),
(540,157,c),
(511,157,l),
(499,90,o),
(460,43,o),
(417,40,cs),
(385,38,o),
(321,37,o),
(264,37,cs),
(230,37,o),
(214,42,o),
(203,52,cs),
(193,62,o),
(190,76,o),
(190,96,cs),
(190,265,o),
(189,416,o),
(191,576,c),
(228,578,o),
(257,578,o),
(279,578,cs),
(307,578,o),
(342,578,o),
(374,576,cs),
(399,574,o),
(422,544,o),
(430,499,c),
(464,499,l),
(465,536,o),
(470,586,o),
(477,619,c),
(412,617,o),
(269,616,o),
(148,616,cs),
(99,616,o),
(47,617,o),
(18,618,c),
(18,589,l),
(53,584,o),
(77,581,o),
(92,567,cs),
(101,558,o),
(107,544,o),
(107,521,cs),
(109,376,o),
(109,236,o),
(107,91,cs),
(107,67,o),
(102,52,o),
(92,42,cs),
(78,29,o),
(55,26,o),
(18,23,c),
(18,-2,l),
(138,0,ls),
(281,2,o),
(439,-1,o),
(516,-3,c)
);
},
{
closed = 1;
nodes = (
(398,206,l),
(393,272,o),
(393,364,o),
(398,430,c),
(372,430,l),
(371,424,o),
(366,410,o),
(361,396,c),
(344,360,o),
(321,336,o),
(261,336,cs),
(131,336,l),
(131,296,l),
(261,296,ls),
(328,296,o),
(350,274,o),
(362,242,cs),
(373,206,l)
);
},
{
closed = 1;
nodes = (
(600,62,o),
(610,128,o),
(612,175,c),
(583,175,l),
(571,108,o),
(532,61,o),
(489,58,cs),
(457,56,o),
(393,55,o),
(336,55,cs),
(302,55,o),
(286,60,o),
(275,70,cs),
(265,80,o),
(262,94,o),
(262,114,cs),
(262,283,o),
(261,434,o),
(263,594,c),
(300,596,o),
(329,596,o),
(351,596,cs),
(379,596,o),
(414,596,o),
(446,594,cs),
(471,592,o),
(494,562,o),
(502,517,c),
(536,517,l),
(537,554,o),
(542,604,o),
(549,637,c),
(484,635,o),
(341,634,o),
(220,634,cs),
(171,634,o),
(119,635,o),
(90,636,c),
(90,607,l),
(125,602,o),
(149,599,o),
(164,585,cs),
(173,576,o),
(179,562,o),
(179,539,cs),
(181,394,o),
(181,254,o),
(179,109,cs),
(179,85,o),
(174,70,o),
(164,60,cs),
(150,47,o),
(127,44,o),
(90,41,c),
(90,16,l),
(210,18,ls),
(353,20,o),
(511,17,o),
(588,15,c)
);
},
{
closed = 1;
nodes = (
(470,224,l),
(465,290,o),
(465,382,o),
(470,448,c),
(444,448,l),
(443,442,o),
(438,428,o),
(433,414,c),
(416,378,o),
(393,354,o),
(333,354,cs),
(203,354,l),
(203,314,l),
(333,314,ls),
(400,314,o),
(422,292,o),
(434,260,cs),
(445,224,l)
);
}
);
};
color = 2;
layerId = m002;
shapes = (
{
closed = 1;
nodes = (
(600,44,o),
(610,110,o),
(612,157,c),
(565,157,l),
(553,90,o),
(514,43,o),
(471,40,cs),
(439,38,o),
(393,37,o),
(336,37,cs),
(302,37,o),
(286,42,o),
(275,52,cs),
(265,62,o),
(262,76,o),
(262,96,cs),
(262,265,o),
(261,416,o),
(263,594,c),
(300,596,o),
(329,596,o),
(351,596,cs),
(379,596,o),
(414,596,o),
(446,594,cs),
(471,592,o),
(494,562,o),
(502,481,c),
(554,481,l),
(555,554,o),
(560,604,o),
(567,637,c),
(502,635,o),
(341,634,o),
(148,634,cs),
(99,634,o),
(47,635,o),
(18,636,c),
(18,607,l),
(53,602,o),
(77,599,o),
(92,585,cs),
(101,576,o),
(107,562,o),
(107,539,cs),
(109,376,o),
(109,236,o),
(107,91,cs),
(107,67,o),
(102,52,o),
(92,42,cs),
(78,29,o),
(55,26,o),
(18,23,c),
(18,-2,l),
(138,0,ls),
(353,4,o),
(511,-1,o),
(588,-3,c)
);
},
{
closed = 1;
nodes = (
(457,206,l),
(451,272,o),
(451,364,o),
(457,430,c),
(404,430,l),
(403,424,o),
(398,410,o),
(393,396,c),
(376,360,o),
(317,336,o),
(275,336,cs),
(141,336,l),
(141,296,l),
(275,296,ls),
(360,296,o),
(382,274,o),
(394,242,cs),
(405,206,l)
);
}
);
width = 648;
}
);
unicode = 69;
},
{
glyphname = Eopen;
lastChange = "2025-03-07 18:53:27 +0000";
layers = (
{
anchors = (
{
name = bottom;
pos = (270,0);
},
{
name = top;
pos = (305,616);
}
);
layerId = m005;
shapes = (
{
closed = 1;
nodes = (
(347,-11,o),
(445,37,o),
(498,104,c),
(476,126,l),
(438,83,o),
(374,53,o),
(321,53,cs),
(215,53,o),
(140,110,o),
(140,191,cs),
(140,224,o),
(178,264,o),
(231,287,c),
(235,286,l),
(240,290,l),
(266,301,o),
(307,312,o),
(339,317,c),
(329,351,l),
(220,370,o),
(143,434,o),
(143,505,cs),
(143,554,o),
(206,589,o),
(294,589,cs),
(359,589,o),
(407,529,o),
(409,444,c),
(440,444,l),
(443,494,o),
(449,557,o),
(456,595,c),
(420,614,o),
(363,627,o),
(318,627,cs),
(173,627,o),
(70,554,o),
(70,451,cs),
(70,398,o),
(120,340,o),
(191,310,c),
(111,272,o),
(54,198,o),
(54,131,cs),
(54,48,o),
(141,-11,o),
(263,-11,cs)
);
}
);
width = 540;
},
{
anchors = (
{
name = bottom;
pos = (270,0);
},
{
name = top;
pos = (270,634);
}
);
layerId = m002;
shapes = (
{
closed = 1;
nodes = (
(347,-11,o),
(445,37,o),
(498,104,c),
(476,126,l),
(438,83,o),
(374,53,o),
(321,53,cs),
(215,53,o),
(140,110,o),
(140,191,cs),
(140,224,o),
(178,264,o),
(231,287,c),
(235,286,l),
(240,290,l),
(266,301,o),
(307,312,o),
(339,317,c),
(329,351,l),
(220,370,o),
(143,434,o),
(143,505,cs),
(143,554,o),
(206,589,o),
(294,589,cs),
(359,589,o),
(407,529,o),
(409,444,c),
(440,444,l),
(443,494,o),
(449,557,o),
(456,595,c),
(420,614,o),
(363,627,o),
(318,627,cs),
(173,627,o),
(70,554,o),
(70,451,cs),
(70,398,o),
(120,340,o),
(191,310,c),
(111,272,o),
(54,198,o),
(54,131,cs),
(54,48,o),
(141,-11,o),
(263,-11,cs)
);
}
);
width = 540;
}
);
unicode = 400;
},
{
glyphname = Schwa;
lastChange = "2025-03-07 18:53:42 +0000";
layers = (
{
anchors = (
{
name = bottom;
pos = (250,0);
},
{
name = top;
pos = (255,616);
}
);
layerId = m005;
shapes = (
{
closed = 1;
nodes = (
(77,529,l),
(113,551,o),
(176,566,o),
(229,566,cs),
(332,566,o),
(405,442,o),
(405,279,cs),
(405,133,o),
(357,30,o),
(267,30,cs),
(197,30,o),
(129,104,o),
(125,209,c),
(417,214,l),
(423,246,l),
(36,251,l),
(36,234,l),
(36,91,o),
(133,-11,o),
(248,-11,cs),
(397,-11,o),
(486,124,o),
(486,314,cs),
(486,497,o),
(391,626,o),
(256,626,cs),
(188,626,o),
(108,597,o),
(61,557,c)
);
}
);
width = 522;
},
{
anchors = (
{
name = bottom;
pos = (261,0);
},
{
name = top;
pos = (261,634);
}
);
layerId = m002;
shapes = (
{
closed = 1;
nodes = (
(77,529,l),
(113,551,o),
(176,566,o),
(229,566,cs),
(332,566,o),
(405,442,o),
(405,279,cs),
(405,133,o),
(357,30,o),
(267,30,cs),
(197,30,o),
(129,104,o),
(125,209,c),
(417,214,l),
(423,246,l),
(36,251,l),
(36,234,l),
(36,91,o),
(133,-11,o),
(248,-11,cs),
(397,-11,o),
(486,124,o),
(486,314,cs),
(486,497,o),
(391,626,o),
(256,626,cs),
(188,626,o),
(108,597,o),
(61,557,c)
);
}
);
width = 522;
}
);
unicode = 399;
},
{
glyphname = F;
lastChange = "2025-03-07 18:53:50 +0000";
layers = (
{
anchors = (
{
name = bottom;
pos = (243,0);
},
{
name = top;
pos = (283,616);
}
);
background = {
shapes = (
{
closed = 1;
nodes = (
(20,0,l),
(303,0,l),
(303,40,l),
(258,40,o),
(223,38,o),
(204,54,cs),
(195,62,o),
(190,73,o),
(190,91,cs),
(188,307,o),
(187,377,o),
(191,574,c),
(208,576,o),
(260,576,o),
(283,576,c),
(283,616,l),
(20,616,l),
(20,591,l),
(54,581,o),
(78,582,o),
(92,572,cs),
(102,565,o),
(107,552,o),
(107,525,cs),
(108,341,o),
(109,253,o),
(109,312,cs),
(109,373,o),
(108,282,o),
(107,91,cs),
(107,65,o),
(101,51,o),
(92,43,cs),
(76,29,o),
(50,31,o),
(20,25,c)
);
}
);
};
color = 2;
layerId = m005;
shapes = (
{
closed = 1;
nodes = (
(45,0,o),
(251,0,o),
(306,0,c),
(306,29,l),
(254,35,o),
(221,35,o),
(203,54,cs),
(194,64,o),
(189,79,o),
(189,103,cs),
(187,260,o),
(188,421,o),
(191,578,c),
(212,579,o),
(261,580,o),
(283,580,cs),
(311,580,o),
(333,580,o),
(365,578,cs),
(390,576,o),
(412,544,o),
(420,499,c),
(452,499,l),
(454,536,o),
(461,586,o),
(468,619,c),
(403,617,o),
(268,616,o),
(148,616,c),
(99,616,o),
(48,617,o),
(19,618,c),
(19,592,l),
(54,586,o),
(77,584,o),
(92,572,cs),
(101,563,o),
(107,550,o),
(107,525,cs),
(109,380,o),
(109,236,o),
(107,91,cs),
(107,67,o),
(103,53,o),
(94,44,cs),
(81,30,o),
(58,27,o),
(18,23,c),
(18,-1,l)
);
},
{
closed = 1;
nodes = (
(393,206,l),
(387,272,o),
(387,364,o),
(393,430,c),
(368,430,l),
(367,424,o),
(362,410,o),
(357,396,c),
(340,360,o),
(317,336,o),
(275,336,cs),
(141,336,l),
(141,296,l),
(275,296,ls),
(324,296,o),
(346,274,o),
(358,242,cs),
(369,206,l)
);
}
);
width = 486;
},
{
anchors = (
{
name = bottom;
pos = (279,0);
},
{
name = top;
pos = (279,634);
}
);
background = {
shapes = (
{
closed = 1;
nodes = (
(45,0,o),
(251,0,o),
(306,0,c),
(306,29,l),
(254,35,o),
(221,35,o),
(203,54,cs),
(194,64,o),
(189,79,o),
(189,103,cs),
(187,260,o),
(188,421,o),
(191,578,c),
(212,579,o),
(261,580,o),
(283,580,cs),
(311,580,o),
(333,580,o),
(365,578,cs),
(390,576,o),
(412,544,o),
(420,499,c),
(452,499,l),
(454,536,o),
(461,586,o),
(468,619,c),
(403,617,o),
(268,616,o),
(148,616,c),
(99,616,o),
(48,617,o),
(19,618,c),
(19,592,l),
(54,586,o),
(77,584,o),
(92,572,cs),
(101,563,o),
(107,550,o),
(107,525,cs),
(109,380,o),
(109,236,o),
(107,91,cs),
(107,67,o),
(103,53,o),
(94,44,cs),
(81,30,o),
(58,27,o),
(18,23,c),
(18,-1,l)
);
},
{
closed = 1;
nodes = (
(393,206,l),
(387,272,o),
(387,364,o),
(393,430,c),
(368,430,l),
(367,424,o),
(362,410,o),
(357,396,c),
(340,360,o),
(317,336,o),
(275,336,cs),
(141,336,l),
(141,296,l),
(275,296,ls),
(324,296,o),
(346,274,o),
(358,242,cs),
(369,206,l)
);
},
{
closed = 1;
nodes = (
(117,18,o),
(323,18,o),
(378,18,c),
(378,47,l),
(326,53,o),
(293,53,o),
(275,72,cs),
(266,82,o),
(261,97,o),
(261,121,cs),
(259,278,o),
(260,439,o),
(263,596,c),
(284,597,o),
(333,598,o),
(355,598,cs),
(383,598,o),
(405,598,o),
(437,596,cs),
(462,594,o),
(484,562,o),
(492,517,c),
(524,517,l),
(526,554,o),
(533,604,o),
(540,637,c),
(475,635,o),
(340,634,o),
(220,634,c),
(171,634,o),
(120,635,o),
(91,636,c),
(91,610,l),
(126,604,o),
(149,602,o),
(164,590,cs),
(173,581,o),
(179,568,o),
(179,543,cs),
(181,398,o),
(181,254,o),
(179,109,cs),
(179,85,o),
(175,71,o),
(166,62,cs),
(153,48,o),
(130,45,o),
(90,41,c),
(90,17,l)
);
},
{
closed = 1;
nodes = (
(465,224,l),
(459,290,o),
(459,382,o),
(465,448,c),
(440,448,l),
(439,442,o),
(434,428,o),
(429,414,c),
(412,378,o),
(389,354,o),
(347,354,cs),
(213,354,l),
(213,314,l),
(347,314,ls),
(396,314,o),
(418,292,o),
(430,260,cs),
(441,224,l)
);
}
);
};
color = 2;
layerId = m002;
shapes = (
{
closed = 1;
nodes = (
(45,0,o),
(323,0,o),
(378,0,c),
(378,29,l),
(326,35,o),
(293,35,o),
(275,54,cs),
(266,64,o),
(261,79,o),
(261,103,cs),
(259,260,o),
(260,421,o),
(263,596,c),
(284,597,o),
(333,598,o),
(355,598,cs),
(383,598,o),
(387,598,o),
(419,596,cs),
(444,594,o),
(466,562,o),
(474,481,c),
(524,481,l),
(526,554,o),
(533,604,o),
(540,637,c),
(475,635,o),
(340,634,o),
(148,634,c),
(99,634,o),
(48,635,o),
(19,636,c),
(19,610,l),
(54,604,o),
(77,602,o),
(91,589,cs),
(101,581,o),
(107,568,o),
(107,543,cs),
(109,380,o),
(109,236,o),
(107,91,cs),
(107,67,o),
(103,53,o),
(94,44,cs),
(81,30,o),
(58,27,o),
(18,23,c),
(18,-1,l)
);
},
{
closed = 1;
nodes = (
(457,206,l),
(451,272,o),
(451,364,o),
(457,430,c),
(404,430,l),
(403,424,o),
(398,410,o),
(393,396,c),
(376,360,o),
(317,336,o),
(275,336,cs),
(141,336,l),
(141,296,l),
(275,296,ls),
(360,296,o),
(382,274,o),
(394,242,cs),
(405,206,l)
);
}
);
width = 558;
}
);
unicode = 70;
},
{
glyphname = Fhook;
lastChange = "2025-03-01 19:58:53 +0000";
layers = (
{
layerId = m005;
shapes = (
{
closed = 1;
nodes = (
(189,148,l),
(187,305,o),
(188,421,o),
(191,578,c),
(212,579,o),
(261,580,o),
(283,580,cs),
(311,580,o),
(333,580,o),
(365,578,cs),
(390,576,o),
(412,544,o),
(420,499,c),
(452,499,l),
(454,536,o),
(461,586,o),
(468,619,c),
(403,617,o),
(268,616,o),
(148,616,c),
(99,616,o),
(48,617,o),
(19,618,c),
(19,592,l),
(54,586,o),
(77,584,o),
(92,572,cs),
(101,563,o),
(107,550,o),
(107,525,cs),
(109,380,o),
(110,226,o),
(108,81,c)
);
},
{
closed = 1;
nodes = (
(393,206,l),
(387,272,o),
(387,364,o),
(393,430,c),
(368,430,l),
(367,424,o),
(362,410,o),
(357,396,c),
(340,360,o),
(317,336,o),
(275,336,cs),
(141,336,l),
(141,296,l),
(275,296,ls),
(324,296,o),
(346,274,o),
(358,242,cs),
(369,206,l)
);
},
{
closed = 1;
nodes = (
(108,81,l),
(108,33,o),
(108,-90,o),
(77,-138,cs),
(70,-150,o),
(60,-157,o),
(48,-157,cs),
(29,-158,o),
(27,-135,o),
(8,-134,cs),
(-25,-134,o),
(-48,-163,o),
(-48,-205,cs),
(-48,-220,o),
(-30,-232,o),
(-4,-232,cs),
(30,-232,o),
(85,-190,o),
(103,-164,cs),
(150,-96,o),
(191,29,o),
(189,148,c)
);
}
);
width = 486;
},
{
layerId = m002;
shapes = (
{
closed = 1;
nodes = (
(189,148,l),
(187,305,o),
(188,421,o),
(191,578,c),
(212,579,o),
(261,580,o),
(283,580,cs),
(311,580,o),
(333,580,o),
(365,578,cs),
(390,576,o),
(412,544,o),
(420,499,c),
(452,499,l),
(454,536,o),
(461,586,o),
(468,619,c),
(403,617,o),
(268,616,o),
(148,616,c),
(99,616,o),
(48,617,o),
(19,618,c),
(19,592,l),
(54,586,o),
(77,584,o),
(92,572,cs),
(101,563,o),
(107,550,o),
(107,525,cs),
(109,380,o),
(110,226,o),
(108,81,c)
);
},
{
closed = 1;
nodes = (
(393,206,l),
(387,272,o),
(387,364,o),
(393,430,c),
(368,430,l),
(367,424,o),
(362,410,o),
(357,396,c),
(340,360,o),
(317,336,o),
(275,336,cs),
(141,336,l),
(141,296,l),
(275,296,ls),
(324,296,o),
(346,274,o),
(358,242,cs),
(369,206,l)
);
},
{
closed = 1;
nodes = (
(108,81,l),
(108,33,o),
(108,-90,o),
(77,-138,cs),
(70,-150,o),
(60,-157,o),
(48,-157,cs),
(29,-158,o),
(27,-135,o),
(8,-134,cs),
(-25,-134,o),
(-48,-163,o),
(-48,-205,cs),
(-48,-220,o),
(-30,-232,o),
(-4,-232,cs),
(30,-232,o),
(85,-190,o),
(103,-164,cs),
(150,-96,o),
(191,29,o),
(189,148,c)
);
}
);
width = 486;
}
);
unicode = 401;
},
{
glyphname = G;
lastChange = "2025-03-07 18:54:03 +0000";
layers = (
{
anchors = (
{
name = bottom;
pos = (404,0);
},
{
name = top;
pos = (410,616);
}
);
backgroundImage = {
imagePath = "../../Desktop/Bildschirmfoto 2024-12-23 um 19.38.00.png";
pos = (715,-876);
scale = (-1.37,1.3692);
};
color = 3;
layerId = m005;
shapes = (
{
closed = 1;
nodes = (
(488,-11,o),
(589,11,o),
(644,43,c),
(640,56,l),
(622,57,o),
(612,67,o),
(612,79,c),
(612,200,l),
(612,225,o),
(625,247,o),
(648,252,c),
(684,258,l),
(684,287,l),
(432,287,l),
(432,253,l),
(485,244,o),
(529,225,o),
(529,188,c),
(529,76,l),
(529,55,o),
(494,33,o),
(449,33,cs),
(267,33,o),
(149,141,o),
(149,333,cs),
(149,482,o),
(263,588,o),
(418,588,cs),
(514,588,o),
(584,528,o),
(589,444,c),
(620,444,l),
(622,495,o),
(629,558,o),
(636,595,c),
(586,614,o),
(492,627,o),
(410,627,cs),
(205,627,o),
(54,495,o),
(54,308,cs),
(54,121,o),
(203,-11,o),
(404,-11,cs)
);
}
);
width = 720;
},
{
anchors = (
{
name = bottom;
pos = (387,0);
},
{
name = top;
pos = (387,634);
}
);
background = {
shapes = (
{
closed = 1;
nodes = (
(488,-11,o),
(589,11,o),
(644,43,c),
(640,56,l),
(622,57,o),
(612,67,o),
(612,79,c),
(612,200,l),
(612,225,o),
(625,247,o),
(648,252,c),
(684,258,l),
(684,287,l),
(432,287,l),
(432,253,l),
(485,244,o),
(529,225,o),
(529,188,c),
(529,76,l),
(529,55,o),
(494,33,o),
(449,33,cs),
(267,33,o),
(149,141,o),
(149,333,cs),
(149,482,o),
(263,588,o),
(418,588,cs),
(514,588,o),
(584,528,o),
(589,444,c),
(620,444,l),
(622,495,o),
(629,558,o),
(636,595,c),
(586,614,o),
(492,627,o),
(410,627,cs),
(205,627,o),
(54,495,o),
(54,308,cs),
(54,121,o),
(203,-11,o),
(404,-11,cs)
);
},
{
closed = 1;
nodes = (
(560,7,o),
(661,29,o),
(716,61,c),
(712,74,l),
(694,75,o),
(684,85,o),
(684,97,c),
(684,218,l),
(684,243,o),
(697,265,o),
(720,270,c),
(756,276,l),
(756,305,l),
(504,305,l),
(504,271,l),
(557,262,o),
(601,243,o),
(601,206,c),
(601,94,l),
(601,73,o),
(566,51,o),
(521,51,cs),
(339,51,o),
(221,159,o),
(221,351,cs),
(221,500,o),
(335,606,o),
(490,606,cs),
(586,606,o),
(656,546,o),
(661,462,c),
(692,462,l),
(694,513,o),
(701,576,o),
(708,613,c),
(658,632,o),
(564,645,o),
(482,645,cs),
(277,645,o),
(126,513,o),
(126,326,cs),
(126,139,o),
(275,7,o),
(476,7,cs)
);
}
);
};
backgroundImage = {
imagePath = "../../Desktop/Bildschirmfoto 2024-12-23 um 19.38.00.png";
pos = (715,-876);
scale = (-1.37,1.3692);
};
color = 3;
layerId = m002;
shapes = (
{
closed = 1;
nodes = (
(547,-11,o),
(662,11,o),
(716,43,c),
(712,56,l),
(696,57,o),
(684,66,o),
(684,79,c),
(684,200,l),
(684,225,o),
(697,247,o),
(720,252,c),
(756,258,l),
(756,287,l),
(432,287,l),
(432,253,l),
(521,244,o),
(529,225,o),
(529,188,c),
(529,76,l),
(529,51,o),
(496,33,o),
(449,33,cs),
(315,33,o),
(221,165,o),
(221,351,cs),
(221,500,o),
(318,606,o),
(454,606,cs),
(560,606,o),
(638,546,o),
(643,426,c),
(692,426,l),
(694,525,o),
(709,587,o),
(726,613,c),
(659,632,o),
(543,645,o),
(446,645,cs),
(216,645,o),
(54,513,o),
(54,326,cs),
(54,129,o),
(214,-11,o),
(440,-11,cs)
);
}
);
width = 774;
}
);
unicode = 71;
},
{
glyphname = H;
lastChange = "2025-03-07 13:07:43 +0000";
layers = (
{
anchors = (
{
name = bottom;
pos = (378,0);
},
{
name = center;
pos = (378,462);
},
{
name = top;
pos = (378,616);
},
{
name = topleft;
pos = (20,616);
}
);
background = {
shapes = (
{
closed = 1;
nodes = (
(180,609,l,{
"Letterink-NibData" = {
AngleInDegrees = "0";
};
}),
(176,616,l,{
"Letterink-NibData" = {
AngleInDegrees = "360";
};
}),
(107,576,l),
(107,7,l,{
"Letterink-NibData" = {
AngleInDegrees = "360";
};
}),
(111,0,l,{
"Letterink-NibData" = {
AngleInDegrees = "360";
};
}),
(180,40,l),
(180,304,l),
(594,304,l),
(594,7,l,{
"Letterink-NibData" = {
AngleInDegrees = "360";
};
}),
(598,0,l,{
"Letterink-NibData" = {
AngleInDegrees = "360";
};
}),
(668,40,l),
(668,609,l,{
"Letterink-NibData" = {
AngleInDegrees = "0";
};
}),
(664,616,l,{
"Letterink-NibData" = {
AngleInDegrees = "359.99999";
};
}),
(594,576,l),
(594,351,l),
(180,351,l)
);
},
{
closed = 0;
nodes = (
(252,616,l),
(252,591,l),
(224,583,o),
(206,576,o),
(195,564,cs),
(186,553,o),
(182,538,o),
(182,512,cs)
);
}
);
};
color = 1;
layerId = m005;
shapes = (
{
closed = 1;
nodes = (
(288,0,l),
(288,25,l),
(257,33,o),
(214,39,o),
(203,51,cs),
(193,61,o),
(188,77,o),
(188,104,cs),
(187,178,o),
(187,252,o),
(186,326,cs),
(185,388,o),
(187,450,o),
(188,512,cs),
(188,539,o),
(194,556,o),
(203,565,cs),
(214,577,o),
(257,583,o),
(288,591,c),
(288,616,l),
(18,616,l),
(18,591,l),
(40,583,o),
(83,576,o),
(94,564,cs),
(103,553,o),
(107,538,o),
(107,512,cs),
(108,450,o),
(109,389,o),
(109,327,cs),
(109,253,o),
(108,178,o),
(107,104,cs),
(107,78,o),
(103,63,o),
(94,52,cs),
(83,40,o),
(40,33,o),
(18,25,c),
(18,0,l)
);
},
{
closed = 1;
nodes = (
(738,0,l),
(738,25,l),
(717,33,o),
(675,39,o),
(664,51,cs),
(654,61,o),
(649,77,o),
(649,104,cs),
(648,179,o),
(648,255,o),
(647,330,cs),
(646,391,o),
(648,451,o),
(649,512,cs),
(649,539,o),
(653,554,o),
(664,565,cs),
(675,577,o),
(717,583,o),
(738,591,c),
(738,616,l),
(468,616,l),
(468,591,l),
(500,583,o),
(544,576,o),
(555,564,cs),
(564,553,o),
(568,538,o),
(568,512,cs),
(569,451,o),
(570,390,o),
(570,329,cs),
(570,254,o),
(569,179,o),
(568,104,cs),
(568,78,o),
(564,63,o),
(555,52,cs),
(544,40,o),
(500,33,o),
(468,25,c),
(468,0,l)
);
},
{
closed = 1;
nodes = (
(601,304,l),
(601,349,l),
(154,349,l),
(154,304,l)
);
}
);
width = 756;
},
{
anchors = (
{
name = bottom;
pos = (414,0);
},
{
name = center;
pos = (414,476);
},
{
name = top;
pos = (414,634);
},
{
name = topleft;
pos = (20,634);
}
);
background = {
shapes = (
{
closed = 1;
nodes = (
(288,0,l),
(288,25,l),
(257,33,o),
(214,39,o),
(203,51,cs),
(193,61,o),
(188,77,o),
(188,104,cs),
(187,178,o),
(187,252,o),
(186,326,cs),
(185,388,o),
(187,450,o),
(188,512,cs),
(188,539,o),
(194,556,o),
(203,565,cs),
(214,577,o),
(257,583,o),
(288,591,c),
(288,616,l),
(18,616,l),
(18,591,l),
(40,583,o),
(83,576,o),
(94,564,cs),
(103,553,o),
(107,538,o),
(107,512,cs),
(108,450,o),
(109,389,o),
(109,327,cs),
(109,253,o),
(108,178,o),
(107,104,cs),
(107,78,o),
(103,63,o),
(94,52,cs),
(83,40,o),
(40,33,o),
(18,25,c),
(18,0,l)
);
},
{
closed = 1;
nodes = (
(738,0,l),
(738,25,l),
(717,33,o),
(675,39,o),
(664,51,cs),
(654,61,o),
(649,77,o),
(649,104,cs),
(648,179,o),
(648,255,o),
(647,330,cs),
(646,391,o),
(648,451,o),
(649,512,cs),
(649,539,o),
(653,554,o),
(664,565,cs),
(675,577,o),
(717,583,o),
(738,591,c),
(738,616,l),
(468,616,l),
(468,591,l),
(500,583,o),
(544,576,o),
(555,564,cs),
(564,553,o),
(568,538,o),
(568,512,cs),
(569,451,o),
(570,390,o),
(570,329,cs),
(570,254,o),
(569,179,o),
(568,104,cs),
(568,78,o),
(564,63,o),
(555,52,cs),
(544,40,o),
(500,33,o),
(468,25,c),
(468,0,l)
);
},
{
closed = 1;
nodes = (
(601,304,l),
(601,349,l),
(154,349,l),
(154,304,l)
);
},
{
closed = 1;
nodes = (
(360,18,l),
(360,43,l),
(329,51,o),
(286,57,o),
(275,69,cs),
(265,79,o),
(260,95,o),
(260,122,cs),
(259,196,o),
(259,270,o),
(258,344,cs),
(257,406,o),
(259,468,o),
(260,530,cs),
(260,557,o),
(266,574,o),
(275,583,cs),
(286,595,o),
(329,601,o),
(360,609,c),
(360,634,l),
(90,634,l),
(90,609,l),
(112,601,o),
(155,594,o),
(166,582,cs),
(175,571,o),
(179,556,o),
(179,530,cs),
(180,468,o),
(181,407,o),
(181,345,cs),
(181,271,o),
(180,196,o),
(179,122,cs),
(179,96,o),
(175,81,o),
(166,70,cs),
(155,58,o),
(112,51,o),
(90,43,c),
(90,18,l)
);
},
{
closed = 1;
nodes = (
(810,18,l),
(810,43,l),
(789,51,o),
(747,57,o),
(736,69,cs),
(726,79,o),
(721,95,o),
(721,122,cs),
(720,197,o),
(720,273,o),
(719,348,cs),
(718,409,o),
(720,469,o),
(721,530,cs),
(721,557,o),
(725,572,o),
(736,583,cs),
(747,595,o),
(789,601,o),
(810,609,c),
(810,634,l),
(540,634,l),
(540,609,l),
(572,601,o),
(616,594,o),
(627,582,cs),
(636,571,o),
(640,556,o),
(640,530,cs),
(641,469,o),
(642,408,o),
(642,347,cs),
(642,272,o),
(641,197,o),
(640,122,cs),
(640,96,o),
(636,81,o),
(627,70,cs),
(616,58,o),
(572,51,o),
(540,43,c),
(540,18,l)
);
},
{
closed = 1;
nodes = (
(673,322,l),
(673,367,l),
(226,367,l),
(226,322,l)
);
}
);
};
color = 1;
layerId = m002;
shapes = (
{
closed = 1;
nodes = (
(360,0,l),
(360,25,l),
(329,33,o),
(286,39,o),
(275,51,cs),
(265,61,o),
(260,77,o),
(260,104,cs),
(259,178,o),
(259,270,o),
(258,344,cs),
(257,406,o),
(259,468,o),
(260,530,cs),
(260,557,o),
(266,574,o),
(275,583,cs),
(286,595,o),
(329,601,o),
(360,609,c),
(360,634,l),
(18,634,l),
(18,609,l),
(40,601,o),
(83,594,o),
(94,582,cs),
(103,571,o),
(107,556,o),
(107,530,cs),
(108,468,o),
(109,407,o),
(109,345,cs),
(109,271,o),
(108,178,o),
(107,104,cs),
(107,78,o),
(103,63,o),
(94,52,cs),
(83,40,o),
(40,33,o),
(18,25,c),
(18,0,l)
);
},
{
closed = 1;
nodes = (
(810,0,l),
(810,25,l),
(789,33,o),
(747,39,o),
(736,51,cs),
(726,61,o),
(721,77,o),
(721,104,cs),
(720,179,o),
(720,273,o),
(719,348,cs),
(718,409,o),
(720,469,o),
(721,530,cs),
(721,557,o),
(725,572,o),
(736,583,cs),
(747,595,o),
(789,601,o),
(810,609,c),
(810,634,l),
(468,634,l),
(468,609,l),
(500,601,o),
(544,594,o),
(555,582,cs),
(564,571,o),
(568,556,o),
(568,530,cs),
(569,469,o),
(570,408,o),
(570,347,cs),
(570,272,o),
(569,179,o),
(568,104,cs),
(568,78,o),
(564,63,o),
(555,52,cs),
(544,40,o),
(500,33,o),
(468,25,c),
(468,0,l)
);
},
{
closed = 1;
nodes = (
(637,304,l),
(637,349,l),
(190,349,l),
(190,304,l)
);
}
);
width = 828;
}
);
note = H;
unicode = 72;
},
{
glyphname = Hbar;
lastChange = "2025-03-07 18:54:17 +0000";
layers = (
{
layerId = m005;
shapes = (
{
ref = H;
},
{
closed = 1;
nodes = (
(55,464,l),
(703,464,l),
(703,509,l),
(55,509,l)
);
}
);
width = 756;
},
{
layerId = m002;
shapes = (
{
ref = H;
},
{
closed = 1;
nodes = (
(55,469,l),
(703,469,l),
(703,509,l),
(55,509,l)
);
}
);
width = 756;
}
);
unicode = 294;
},
{
glyphname = I;
lastChange = "2025-03-07 18:54:32 +0000";
layers = (
{
anchors = (
{
name = bottom;
pos = (148,0);
},
{
name = ogonek;
pos = (259,10);
},
{
name = top;
pos = (145,616);
},
{
name = topleft;
pos = (20,616);
}
);
background = {
shapes = (
{
closed = 1;
nodes = (
(182,40,l),
(182,609,l,{
"Letterink-NibData" = {
AngleInDegrees = "0";
};
}),
(178,616,l,{
"Letterink-NibData" = {
AngleInDegrees = "360";
};
}),
(109,576,l),
(109,7,l,{
"Letterink-NibData" = {
AngleInDegrees = "360";
};
}),
(113,0,l,{
"Letterink-NibData" = {
AngleInDegrees = "360";
};
})
);
}
);
};
color = 1;
layerId = m005;
shapes = (
{
closed = 1;
nodes = (
(18,0,l),
(270,0,l),
(270,25,l),
(231,31,o),
(208,32,o),
(196,41,cs),
(185,49,o),
(181,63,o),
(181,91,cs),
(179,217,o),
(181,327,o),
(181,525,cs),
(181,555,o),
(190,570,o),
(205,577,cs),
(222,586,o),
(246,586,o),
(270,591,c),
(270,616,l),
(18,616,l),
(18,593,l),
(55,587,o),
(79,586,o),
(92,575,cs),
(102,566,o),
(107,552,o),
(107,525,cs),
(109,382,o),
(109,234,o),
(107,91,cs),
(107,62,o),
(103,47,o),
(93,39,cs),
(78,27,o),
(53,30,o),
(18,25,c)
);
}
);
width = 288;
},
{
anchors = (
{
name = bottom;
pos = (180,0);
},
{
name = ogonek;
pos = (324,10);
},
{
name = top;
pos = (180,634);
},
{
name = topleft;
pos = (20,634);
}
);
background = {
shapes = (
{
closed = 1;
nodes = (
(182,40,l),
(182,609,l,{
"Letterink-NibData" = {
AngleInDegrees = "0";
};
}),
(178,616,l,{
"Letterink-NibData" = {
AngleInDegrees = "360";
};
}),
(109,576,l),
(109,7,l,{
"Letterink-NibData" = {
AngleInDegrees = "360";
};
}),
(113,0,l,{
"Letterink-NibData" = {
AngleInDegrees = "360";
};
})
);
},
{
closed = 1;
nodes = (
(18,0,l),
(270,0,l),
(270,25,l),
(231,31,o),
(208,32,o),
(196,41,cs),
(185,49,o),
(181,63,o),
(181,91,cs),
(179,217,o),
(181,327,o),
(181,525,cs),
(181,555,o),
(190,570,o),
(205,577,cs),
(222,586,o),
(246,586,o),
(270,591,c),
(270,616,l),
(18,616,l),
(18,593,l),
(55,587,o),
(79,586,o),
(92,575,cs),
(102,566,o),
(107,552,o),
(107,525,cs),
(109,382,o),
(109,234,o),
(107,91,cs),
(107,62,o),
(103,47,o),
(93,39,cs),
(78,27,o),
(53,30,o),
(18,25,c)
);
},
{
closed = 1;
nodes = (
(90,18,l),
(342,18,l),
(342,43,l),
(303,49,o),
(280,50,o),
(268,59,cs),
(257,67,o),
(253,81,o),
(253,109,cs),
(251,235,o),
(253,345,o),
(253,543,cs),
(253,573,o),
(262,588,o),
(277,595,cs),
(294,604,o),
(318,604,o),
(342,609,c),
(342,634,l),
(90,634,l),
(90,611,l),
(127,605,o),
(151,604,o),
(164,593,cs),
(174,584,o),
(179,570,o),
(179,543,cs),
(181,400,o),
(181,252,o),
(179,109,cs),
(179,80,o),
(175,65,o),
(165,57,cs),
(150,45,o),
(125,48,o),
(90,43,c)
);
}
);
};
color = 1;
layerId = m002;
shapes = (
{
closed = 1;
nodes = (
(18,0,l),
(342,0,l),
(342,25,l),
(303,31,o),
(280,32,o),
(268,41,cs),
(257,49,o),
(253,63,o),
(253,91,cs),
(251,217,o),
(253,345,o),
(253,543,cs),
(253,573,o),
(262,588,o),
(277,595,cs),
(294,604,o),
(318,604,o),
(342,609,c),
(342,634,l),
(18,634,l),
(18,611,l),
(55,605,o),
(79,604,o),
(92,593,cs),
(102,584,o),
(107,570,o),
(107,543,cs),
(109,400,o),
(109,234,o),
(107,91,cs),
(107,62,o),
(103,47,o),
(93,39,cs),
(78,27,o),
(53,30,o),
(18,25,c)
);
}
);
width = 360;
}
);
note = I;
unicode = 73;
},
{
glyphname = J;
lastChange = "2025-03-07 18:54:54 +0000";
layers = (
{
anchors = (
{
name = bottom;
pos = (135,0);
},
{
name = top;
pos = (142,616);
}
);
color = 1;
layerId = m005;
shapes = (
{
closed = 1;
nodes = (
(30,-232,o),
(85,-190,o),
(103,-164,cs),
(150,-96,o),
(183,29,o),
(181,148,cs),
(179,341,o),
(179,332,o),
(181,525,cs),
(181,555,o),
(186,569,o),
(199,577,cs),
(213,584,o),
(236,585,o),
(270,591,c),
(270,616,l),
(18,616,l),
(18,591,l),
(53,587,o),
(77,586,o),
(92,574,cs),
(103,565,o),
(108,551,o),
(108,525,cs),
(108,81,ls),
(108,33,o),
(108,-90,o),
(77,-138,cs),
(70,-150,o),
(60,-157,o),
(48,-157,cs),
(29,-158,o),
(27,-135,o),
(8,-134,cs),
(-25,-134,o),
(-48,-163,o),
(-48,-205,cs),
(-48,-220,o),
(-30,-232,o),
(-4,-232,cs)
);
}
);
width = 270;
},
{
anchors = (
{
name = bottom;
pos = (171,0);
},
{
name = top;
pos = (171,634);
}
);
background = {
shapes = (
{
closed = 1;
nodes = (
(30,-232,o),
(85,-190,o),
(103,-164,cs),
(150,-96,o),
(183,29,o),
(181,148,cs),
(179,341,o),
(179,332,o),
(181,525,cs),
(181,555,o),
(186,569,o),
(199,577,cs),
(213,584,o),
(236,585,o),
(270,591,c),
(270,616,l),
(18,616,l),
(18,591,l),
(53,587,o),
(77,586,o),
(92,574,cs),
(103,565,o),
(108,551,o),
(108,525,cs),
(108,81,ls),
(108,33,o),
(108,-90,o),
(77,-138,cs),
(70,-150,o),
(60,-157,o),
(48,-157,cs),
(29,-158,o),
(27,-135,o),
(8,-134,cs),
(-25,-134,o),
(-48,-163,o),
(-48,-205,cs),
(-48,-220,o),
(-30,-232,o),
(-4,-232,cs)
);
},
{
closed = 1;
nodes = (
(102,-214,o),
(157,-172,o),
(175,-146,cs),
(222,-78,o),
(255,47,o),
(253,166,cs),
(251,359,o),
(251,350,o),
(253,543,cs),
(253,573,o),
(258,587,o),
(271,595,cs),
(285,602,o),
(308,603,o),
(342,609,c),
(342,634,l),
(90,634,l),
(90,609,l),
(125,605,o),
(149,604,o),
(164,592,cs),
(175,583,o),
(180,569,o),
(180,543,cs),
(180,99,ls),
(180,51,o),
(180,-72,o),
(149,-120,cs),
(142,-132,o),
(132,-139,o),
(120,-139,cs),
(101,-140,o),
(99,-117,o),
(80,-116,cs),
(47,-116,o),
(24,-145,o),
(24,-187,cs),
(24,-202,o),
(42,-214,o),
(68,-214,cs)
);
}
);
};
color = 1;
layerId = m002;
shapes = (
{
closed = 1;
nodes = (
(67,-232,o),
(111,-204,o),
(139,-164,cs),
(207,-66,o),
(254,79,o),
(253,184,cs),
(252,274,o),
(252,415,o),
(253,543,cs),
(253,567,o),
(260,589,o),
(271,595,cs),
(274,596,o),
(303,602,o),
(342,609,c),
(342,634,l),
(18,634,l),
(18,609,l),
(54,605,o),
(85,598,o),
(92,592,cs),
(101,584,o),
(108,564,o),
(108,543,cs),
(108,117,ls),
(108,-4,o),
(95,-110,o),
(77,-138,cs),
(71,-149,o),
(59,-157,o),
(48,-157,cs),
(29,-158,o),
(27,-135,o),
(8,-134,cs),
(-25,-134,o),
(-48,-163,o),
(-48,-205,cs),
(-48,-221,o),
(-15,-232,o),
(32,-232,cs)
);
}
);
width = 342;
}
);
unicode = 74;
},
{
glyphname = K;
lastChange = "2025-03-07 18:55:06 +0000";
layers = (
{
anchors = (
{
name = bottom;
pos = (333,0);
},
{
name = top;
pos = (311,616);
}
);
background = {
shapes = (
{
closed = 0;
nodes = (
(471,91,l),
(471,55,o),
(465,41,o),
(444,31,cs),
(433,26,o),
(415,25,o),
(388,18,c),
(388,0,l),
(633,0,l),
(633,18,l),
(587,31,o),
(564,33,o),
(555,51,cs),
(551,60,o),
(549,73,o),
(549,91,c)
);
},
{
closed = 0;
nodes = (
(493,525,l),
(493,561,o),
(499,575,o),
(520,585,cs),
(531,590,o),
(549,591,o),
(576,598,c),
(576,616,l),
(331,616,l),
(331,598,l),
(377,585,o),
(400,583,o),
(409,565,cs),
(413,556,o),
(415,543,o),
(415,525,cs)
);
}
);
};
color = 2;
layerId = m005;
shapes = (
{
closed = 1;
nodes = (
(18,0,l),
(270,0,l),
(270,18,l),
(235,27,o),
(215,29,o),
(204,36,cs),
(192,44,o),
(184,58,o),
(184,91,cs),
(183,156,o),
(184,424,o),
(185,525,cs),
(185,556,o),
(191,572,o),
(204,581,cs),
(217,590,o),
(238,594,o),
(270,598,c),
(270,616,l),
(18,616,l),
(18,592,l),
(69,585,o),
(92,583,o),
(101,565,cs),
(105,556,o),
(107,543,o),
(107,525,cs),
(109,382,o),
(109,234,o),
(107,91,cs),
(107,66,o),
(102,52,o),
(92,44,cs),
(78,33,o),
(54,33,o),
(18,25,c)
);
},
{
closed = 1;
nodes = (
(417,503,l),
(453,540,o),
(498,574,o),
(526,586,cs),
(540,592,o),
(570,597,o),
(576,598,c),
(576,616,l),
(342,616,l),
(342,598,l),
(366,593,o),
(390,580,o),
(390,557,cs),
(390,543,o),
(381,526,o),
(363,505,c),
(138,267,l),
(161,240,l)
);
},
{
closed = 1;
nodes = (
(630,18,l),
(567,34,o),
(535,48,o),
(485,99,c),
(250,362,l),
(193,301,l),
(265,217,o),
(393,72,o),
(422,40,cs),
(451,8,o),
(477,-4,o),
(520,-3,cs),
(630,0,l)
);
}
);
width = 630;
},
{
anchors = (
{
name = bottom;
pos = (360,0);
},
{
name = top;
pos = (360,634);
}
);
background = {
shapes = (
{
closed = 1;
nodes = (
(18,0,l),
(270,0,l),
(270,18,l),
(235,27,o),
(215,29,o),
(204,36,cs),
(192,44,o),
(184,58,o),
(184,91,cs),
(183,156,o),
(184,424,o),
(185,525,cs),
(185,556,o),
(191,572,o),
(204,581,cs),
(217,590,o),
(238,594,o),
(270,598,c),
(270,616,l),
(18,616,l),
(18,592,l),
(69,585,o),
(92,583,o),
(101,565,cs),
(105,556,o),
(107,543,o),
(107,525,cs),
(109,382,o),
(109,234,o),
(107,91,cs),
(107,66,o),
(102,52,o),
(92,44,cs),
(78,33,o),
(54,33,o),
(18,25,c)
);
},
{
closed = 1;
nodes = (
(453,503,l),
(489,540,o),
(534,574,o),
(562,586,cs),
(576,592,o),
(606,597,o),
(612,598,c),
(612,616,l),
(378,616,l),
(378,598,l),
(402,593,o),
(426,580,o),
(426,557,cs),
(426,543,o),
(417,526,o),
(399,505,c),
(174,267,l),
(197,240,l)
);
},
{
closed = 1;
nodes = (
(666,18,l),
(603,34,o),
(571,48,o),
(521,99,c),
(286,362,l),
(229,301,l),
(301,217,o),
(429,72,o),
(458,40,cs),
(487,8,o),
(513,-4,o),
(556,-3,cs),
(666,0,l)
);
},
{
closed = 1;
nodes = (
(90,18,l),
(342,18,l),
(342,36,l),
(307,45,o),
(287,47,o),
(276,54,cs),
(264,62,o),
(256,76,o),
(256,109,cs),
(255,174,o),
(256,442,o),
(257,543,cs),
(257,574,o),
(263,590,o),
(276,599,cs),
(289,608,o),
(310,612,o),
(342,616,c),
(342,634,l),
(90,634,l),
(90,610,l),
(141,603,o),
(164,601,o),
(173,583,cs),
(177,574,o),
(179,561,o),
(179,543,cs),
(181,400,o),
(181,252,o),
(179,109,cs),
(179,84,o),
(174,70,o),
(164,62,cs),
(150,51,o),
(126,51,o),
(90,43,c)
);
},
{
closed = 1;
nodes = (
(525,521,l),
(561,558,o),
(606,592,o),
(634,604,cs),
(648,610,o),
(678,615,o),
(684,616,c),
(684,634,l),
(450,634,l),
(450,616,l),
(474,611,o),
(498,598,o),
(498,575,cs),
(498,561,o),
(489,544,o),
(471,523,c),
(246,285,l),
(269,258,l)
);
},
{
closed = 1;
nodes = (
(738,36,l),
(675,52,o),
(643,66,o),
(593,117,c),
(358,380,l),
(301,319,l),
(373,235,o),
(501,90,o),
(530,58,cs),
(559,26,o),
(585,14,o),
(628,15,cs),
(738,18,l)
);
}
);
};
color = 2;
layerId = m002;
shapes = (
{
closed = 1;
nodes = (
(18,0,l),
(342,0,l),
(342,18,l),
(307,27,o),
(287,29,o),
(276,36,cs),
(264,44,o),
(256,58,o),
(256,91,cs),
(255,156,o),
(256,424,o),
(257,543,cs),
(257,574,o),
(263,590,o),
(276,599,cs),
(289,608,o),
(310,612,o),
(342,616,c),
(342,634,l),
(18,634,l),
(18,610,l),
(69,603,o),
(92,601,o),
(101,583,cs),
(105,574,o),
(107,561,o),
(107,543,cs),
(109,382,o),
(109,234,o),
(107,91,cs),
(107,66,o),
(102,52,o),
(92,44,cs),
(78,33,o),
(54,33,o),
(18,25,c)
);
},
{
closed = 1;
nodes = (
(525,521,l),
(561,558,o),
(602,592,o),
(630,604,cs),
(644,610,o),
(674,615,o),
(680,616,c),
(680,634,l),
(402,634,l),
(402,616,l),
(426,611,o),
(450,598,o),
(450,575,cs),
(450,561,o),
(441,544,o),
(423,523,c),
(202,267,l),
(240,217,l)
);
},
{
closed = 1;
nodes = (
(730,18,l),
(667,34,o),
(654,48,o),
(604,99,c),
(369,362,l),
(235,301,l),
(307,217,o),
(435,72,o),
(464,40,cs),
(493,8,o),
(541,-4,o),
(584,-3,cs),
(730,0,l)
);
}
);
width = 720;
}
);
unicode = 75;
},
{
glyphname = L;
lastChange = "2025-03-07 18:55:41 +0000";
layers = (
{
anchors = (
{
name = bottom;
pos = (301,0);
},
{
name = center;
pos = (306,308);
},
{
name = top;
pos = (152,616);
},
{
name = topright;
pos = (269,616);
}
);
color = 2;
layerId = m005;
shapes = (
{
closed = 1;
nodes = (
(18,-3,l),
(108,-1,o),
(188,0,o),
(268,0,c),
(268,41,l),
(206,43,o),
(189,43,o),
(189,105,cs),
(187,234,o),
(186,318,o),
(189,517,cs),
(189,553,o),
(191,567,o),
(212,577,cs),
(223,582,o),
(241,585,o),
(270,588,c),
(270,616,l),
(20,616,l),
(20,592,l),
(55,587,o),
(78,585,o),
(91,576,cs),
(102,568,o),
(106,554,o),
(107,525,cs),
(110,382,o),
(109,234,o),
(106,91,cs),
(105,63,o),
(102,49,o),
(92,40,cs),
(79,30,o),
(57,29,o),
(18,23,c)
);
},
{
closed = 1;
nodes = (
(330,2,o),
(441,1,o),
(510,-3,c),
(546,102,o),
(576,177,o),
(576,177,c),
(549,189,l),
(508,98,o),
(428,47,o),
(356,45,c),
(312,44,o),
(289,41,o),
(268,41,c),
(268,0,l)
);
}
);
width = 612;
},
{
anchors = (
{
name = bottom;
pos = (315,0);
},
{
name = center;
pos = (315,317);
},
{
name = top;
pos = (315,634);
},
{
name = topright;
pos = (610,634);
}
);
background = {
shapes = (
{
closed = 1;
nodes = (
(18,-3,l),
(108,-1,o),
(188,0,o),
(268,0,c),
(268,41,l),
(206,43,o),
(189,43,o),
(189,105,cs),
(187,234,o),
(186,318,o),
(189,517,cs),
(189,553,o),
(191,567,o),
(212,577,cs),
(223,582,o),
(241,585,o),
(270,588,c),
(270,616,l),
(20,616,l),
(20,592,l),
(55,587,o),
(78,585,o),
(91,576,cs),
(102,568,o),
(106,554,o),
(107,525,cs),
(110,382,o),
(109,234,o),
(106,91,cs),
(105,63,o),
(102,49,o),
(92,40,cs),
(79,30,o),
(57,29,o),
(18,23,c)
);
},
{
closed = 1;
nodes = (
(330,2,o),
(441,1,o),
(510,-3,c),
(546,102,o),
(576,177,o),
(576,177,c),
(549,189,l),
(508,98,o),
(428,47,o),
(356,45,c),
(312,44,o),
(289,41,o),
(268,41,c),
(268,0,l)
);
},
{
closed = 1;
nodes = (
(18,-3,l),
(108,-1,o),
(188,0,o),
(268,0,c),
(268,41,l),
(206,43,o),
(189,43,o),
(189,105,cs),
(187,234,o),
(186,318,o),
(189,517,cs),
(189,553,o),
(191,567,o),
(212,577,cs),
(223,582,o),
(241,585,o),
(270,588,c),
(270,616,l),
(20,616,l),
(20,592,l),
(55,587,o),
(78,585,o),
(91,576,cs),
(102,568,o),
(106,554,o),
(107,525,cs),
(110,382,o),
(109,234,o),
(106,91,cs),
(105,63,o),
(102,49,o),
(92,40,cs),
(79,30,o),
(57,29,o),
(18,23,c)
);
},
{
closed = 1;
nodes = (
(330,2,o),
(441,1,o),
(510,-3,c),
(546,102,o),
(576,177,o),
(576,177,c),
(549,189,l),
(508,98,o),
(428,47,o),
(356,45,c),
(312,44,o),
(289,41,o),
(268,41,c),
(268,0,l)
);
},
{
closed = 1;
nodes = (
(90,15,l),
(180,17,o),
(260,18,o),
(340,18,c),
(340,59,l),
(278,61,o),
(261,61,o),
(261,123,cs),
(259,252,o),
(258,336,o),
(261,535,cs),
(261,571,o),
(263,585,o),
(284,595,cs),
(295,600,o),
(313,603,o),
(342,606,c),
(342,634,l),
(92,634,l),
(92,610,l),
(127,605,o),
(150,603,o),
(163,594,cs),
(174,586,o),
(178,572,o),
(179,543,cs),
(182,400,o),
(181,252,o),
(178,109,cs),
(177,81,o),
(174,67,o),
(164,58,cs),
(151,48,o),
(129,47,o),
(90,41,c)
);
},
{
closed = 1;
nodes = (
(402,20,o),
(513,19,o),
(582,15,c),
(618,120,o),
(648,195,o),
(648,195,c),
(621,207,l),
(580,116,o),
(500,65,o),
(428,63,c),
(384,62,o),
(361,59,o),
(340,59,c),
(340,18,l)
);
}
);
};
color = 2;
layerId = m002;
shapes = (
{
closed = 1;
nodes = (
(18,-3,l),
(108,-1,o),
(260,0,o),
(340,0,c),
(340,41,l),
(278,43,o),
(261,43,o),
(261,105,cs),
(259,234,o),
(258,319,o),
(261,536,cs),
(261,572,o),
(263,586,o),
(284,596,cs),
(295,601,o),
(313,604,o),
(342,607,c),
(342,635,l),
(20,635,l),
(20,611,l),
(55,606,o),
(78,604,o),
(91,595,cs),
(102,587,o),
(106,573,o),
(107,544,cs),
(110,401,o),
(109,234,o),
(106,91,cs),
(105,63,o),
(102,49,o),
(92,40,cs),
(79,30,o),
(57,29,o),
(18,23,c)
);
},
{
closed = 1;
nodes = (
(402,2,o),
(477,1,o),
(564,-3,c),
(582,120,o),
(612,195,o),
(612,195,c),
(549,207,l),
(526,116,o),
(464,47,o),
(428,45,c),
(384,44,o),
(361,41,o),
(340,41,c),
(340,0,l)
);
}
);
width = 630;
}
);
unicode = 76;
},
{
glyphname = Lslash;
lastChange = "2025-03-07 18:56:02 +0000";
layers = (
{
layerId = m005;
shapes = (
{
ref = L;
},
{
closed = 1;
nodes = (
(43,268,l),
(270,351,l),
(255,397,l),
(27,314,l)
);
}
);
width = 612;
},
{
layerId = m002;
shapes = (
{
ref = L;
},
{
closed = 1;
nodes = (
(43,268,l),
(270,351,l),
(258,388,l),
(30,305,l)
);
}
);
width = 612;
}
);
unicode = 321;
},
{
glyphname = M;
lastChange = "2025-03-07 18:56:27 +0000";
layers = (
{
anchors = (
{
name = bottom;
pos = (413,46);
},
{
name = top;
pos = (426,616);
}
);
backgroundImage = {
angle = -0.3;
imagePath = "../../Desktop/Bildschirmfoto 2024-12-24 um 15.40.08.png";
pos = (847,-1015);
scale = (-1.4,1.4);
};
color = 1;
layerId = m005;
shapes = (
{
closed = 1;
nodes = (
(702,586,l),
(672,616,l),
(419,107,l),
(437,117,l),
(213,616,l),
(36,616,l),
(36,591,l),
(84,587,ls),
(113,584,o),
(143,565,o),
(154,540,cs),
(405,-16,l)
);
},
{
closed = 1;
nodes = (
(252,0,l),
(252,25,l),
(216,33,o),
(168,40,o),
(157,52,cs),
(148,63,o),
(143,79,o),
(144,105,cs),
(164,561,l),
(124,591,l),
(104,105,ls),
(103,78,o),
(98,60,o),
(89,51,cs),
(78,39,o),
(41,33,o),
(18,25,c),
(18,0,l)
);
},
{
closed = 1;
nodes = (
(846,0,l),
(846,25,l),
(806,33,o),
(782,41,o),
(772,51,cs),
(758,65,o),
(759,82,o),
(759,104,cs),
(757,216,o),
(755,401,o),
(755,529,cs),
(755,544,o),
(759,556,o),
(768,566,cs),
(780,578,o),
(798,586,o),
(828,591,c),
(828,616,l),
(672,616,l),
(679,104,ls),
(679,80,o),
(679,63,o),
(666,50,cs),
(650,34,o),
(613,27,o),
(594,25,c),
(594,0,l)
);
}
);
width = 864;
},
{
anchors = (
{
name = bottom;
pos = (504,0);
},
{
name = top;
pos = (504,634);
}
);
background = {
shapes = (
{
closed = 1;
nodes = (
(774,586,l),
(744,616,l),
(455,107,l),
(473,117,l),
(213,616,l),
(36,616,l),
(36,591,l),
(84,587,ls),
(113,584,o),
(141,565,o),
(154,540,cs),
(441,-16,l)
);
},
{
closed = 1;
nodes = (
(252,0,l),
(252,25,l),
(216,33,o),
(168,40,o),
(157,52,cs),
(148,63,o),
(143,79,o),
(144,105,cs),
(164,561,l),
(124,591,l),
(104,105,ls),
(103,78,o),
(98,60,o),
(89,51,cs),
(78,39,o),
(41,33,o),
(18,25,c),
(18,0,l)
);
},
{
closed = 1;
nodes = (
(918,0,l),
(918,25,l),
(878,33,o),
(854,41,o),
(844,51,cs),
(830,65,o),
(831,82,o),
(831,104,cs),
(829,216,o),
(827,401,o),
(827,529,cs),
(827,544,o),
(831,556,o),
(840,566,cs),
(852,578,o),
(870,586,o),
(900,591,c),
(900,616,l),
(744,616,l),
(751,104,ls),
(751,80,o),
(751,63,o),
(738,50,cs),
(722,34,o),
(685,27,o),
(666,25,c),
(666,0,l)
);
},
{
closed = 1;
nodes = (
(846,604,l),
(816,634,l),
(527,125,l),
(545,135,l),
(285,634,l),
(108,634,l),
(108,609,l),
(156,605,ls),
(185,602,o),
(213,583,o),
(226,558,cs),
(513,2,l)
);
},
{
closed = 1;
nodes = (
(324,18,l),
(324,43,l),
(288,51,o),
(240,58,o),
(229,70,cs),
(220,81,o),
(215,97,o),
(216,123,cs),
(236,579,l),
(196,609,l),
(176,123,ls),
(175,96,o),
(170,78,o),
(161,69,cs),
(150,57,o),
(113,51,o),
(90,43,c),
(90,18,l)
);
},
{
closed = 1;
nodes = (
(990,18,l),
(990,43,l),
(950,51,o),
(926,59,o),
(916,69,cs),
(902,83,o),
(903,100,o),
(903,122,cs),
(901,234,o),
(899,419,o),
(899,547,cs),
(899,562,o),
(903,574,o),
(912,584,cs),
(924,596,o),
(942,604,o),
(972,609,c),
(972,634,l),
(816,634,l),
(823,122,ls),
(823,98,o),
(823,81,o),
(810,68,cs),
(794,52,o),
(757,45,o),
(738,43,c),
(738,18,l)
);
}
);
};
backgroundImage = {
angle = -0.3;
imagePath = "../../Desktop/Bildschirmfoto 2024-12-24 um 15.40.08.png";
pos = (847,-1015);
scale = (-1.4,1.4);
};
color = 1;
layerId = m002;
shapes = (
{
closed = 1;
nodes = (
(810,604,l),
(754,634,l),
(456,108,l),
(530,164,l),
(285,634,l),
(36,634,l),
(36,609,l),
(84,605,ls),
(113,602,o),
(140,583,o),
(154,558,cs),
(477,-16,l)
);
},
{
closed = 1;
nodes = (
(324,0,l),
(324,25,l),
(288,33,o),
(240,40,o),
(229,52,cs),
(220,63,o),
(192,79,o),
(193,105,cs),
(213,579,l),
(147,609,l),
(127,105,ls),
(126,78,o),
(98,60,o),
(89,51,cs),
(78,39,o),
(41,33,o),
(18,25,c),
(18,0,l)
);
},
{
closed = 1;
nodes = (
(990,0,l),
(990,25,l),
(950,33,o),
(926,41,o),
(916,51,cs),
(902,65,o),
(903,82,o),
(903,104,cs),
(901,216,o),
(899,419,o),
(899,547,cs),
(899,562,o),
(903,574,o),
(912,584,cs),
(924,596,o),
(942,604,o),
(972,609,c),
(972,634,l),
(754,634,l),
(751,104,ls),
(751,80,o),
(751,63,o),
(738,50,cs),
(722,34,o),
(685,27,o),
(666,25,c),
(666,0,l)
);
}
);
width = 1008;
}
);
unicode = 77;
},
{
glyphname = N;
lastChange = "2025-03-07 18:56:40 +0000";
layers = (
{
anchors = (
{
name = bottom;
pos = (369,0);
},
{
name = top;
pos = (357,616);
}
);
color = 1;
layerId = m005;
shapes = (
{
closed = 1;
nodes = (
(648,-11,l),
(648,157,o),
(648,443,o),
(648,512,c),
(608,512,l),
(608,97,l),
(629,106,l),
(150,616,l),
(18,616,l),
(18,591,l),
(41,587,o),
(62,579,o),
(76,566,cs),
(95,548,o),
(129,514,o),
(129,514,c),
(622,-11,l)
);
},
{
closed = 1;
nodes = (
(252,0,l),
(252,25,l),
(216,28,o),
(175,35,o),
(161,52,cs),
(148,68,o),
(148,78,o),
(148,104,c),
(108,104,l),
(108,77,o),
(107,65,o),
(93,51,cs),
(76,34,o),
(39,33,o),
(18,25,c),
(18,0,l)
);
},
{
closed = 1;
nodes = (
(148,104,l),
(148,561,l),
(108,591,l),
(108,104,l)
);
},
{
closed = 1;
nodes = (
(648,512,l),
(648,542,o),
(653,558,o),
(665,567,cs),
(677,577,o),
(697,581,o),
(720,588,c),
(720,616,l),
(504,616,l),
(504,591,l),
(550,584,o),
(577,582,o),
(592,568,cs),
(603,557,o),
(608,541,o),
(608,512,c)
);
}
);
width = 738;
},
{
anchors = (
{
name = bottom;
pos = (387,0);
},
{
name = top;
pos = (387,634);
}
);
background = {
shapes = (
{
closed = 1;
nodes = (
(648,-11,l),
(648,157,o),
(648,443,o),
(648,512,c),
(608,512,l),
(608,97,l),
(629,106,l),
(150,616,l),
(18,616,l),
(18,591,l),
(41,587,o),
(62,579,o),
(76,566,cs),
(95,548,o),
(129,514,o),
(129,514,c),
(622,-11,l)
);
},
{
closed = 1;
nodes = (
(252,0,l),
(252,25,l),
(216,28,o),
(175,35,o),
(161,52,cs),
(148,68,o),
(148,78,o),
(148,104,c),
(108,104,l),
(108,77,o),
(107,65,o),
(93,51,cs),
(76,34,o),
(39,33,o),
(18,25,c),
(18,0,l)
);
},
{
closed = 1;
nodes = (
(148,104,l),
(148,561,l),
(108,591,l),
(108,104,l)
);
},
{
closed = 1;
nodes = (
(648,512,l),
(648,542,o),
(653,558,o),
(665,567,cs),
(677,577,o),
(697,581,o),
(720,588,c),
(720,616,l),
(504,616,l),
(504,591,l),
(550,584,o),
(577,582,o),
(592,568,cs),
(603,557,o),
(608,541,o),
(608,512,c)
);
},
{
closed = 1;
nodes = (
(720,7,l),
(720,175,o),
(720,461,o),
(720,530,c),
(680,530,l),
(680,115,l),
(701,124,l),
(222,634,l),
(90,634,l),
(90,609,l),
(113,605,o),
(134,597,o),
(148,584,cs),
(167,566,o),
(201,532,o),
(201,532,c),
(694,7,l)
);
},
{
closed = 1;
nodes = (
(324,18,l),
(324,43,l),
(288,46,o),
(247,53,o),
(233,70,cs),
(220,86,o),
(220,96,o),
(220,122,c),
(180,122,l),
(180,95,o),
(179,83,o),
(165,69,cs),
(148,52,o),
(111,51,o),
(90,43,c),
(90,18,l)
);
},
{
closed = 1;
nodes = (
(220,122,l),
(220,579,l),
(180,609,l),
(180,122,l)
);
},
{
closed = 1;
nodes = (
(720,530,l),
(720,560,o),
(725,576,o),
(737,585,cs),
(749,595,o),
(769,599,o),
(792,606,c),
(792,634,l),
(576,634,l),
(576,609,l),
(622,602,o),
(649,600,o),
(664,586,cs),
(675,575,o),
(680,559,o),
(680,530,c)
);
}
);
};
color = 1;
layerId = m002;
shapes = (
{
closed = 1;
nodes = (
(692,-11,l),
(692,157,o),
(692,461,o),
(692,530,c),
(626,530,l),
(626,97,l),
(673,142,l),
(222,634,l),
(18,634,l),
(18,609,l),
(41,605,o),
(62,597,o),
(76,584,cs),
(95,566,o),
(165,496,o),
(165,496,c),
(622,-11,l)
);
},
{
closed = 1;
nodes = (
(278,0,l),
(278,25,l),
(242,28,o),
(201,35,o),
(187,52,cs),
(174,68,o),
(174,78,o),
(174,104,c),
(108,104,l),
(108,77,o),
(107,65,o),
(93,51,cs),
(76,34,o),
(39,33,o),
(18,25,c),
(18,0,l)
);
},
{
closed = 1;
nodes = (
(174,104,l),
(174,579,l),
(108,609,l),
(108,104,l)
);
},
{
closed = 1;
nodes = (
(692,530,l),
(692,560,o),
(697,576,o),
(709,585,cs),
(721,595,o),
(741,599,o),
(764,606,c),
(764,634,l),
(522,634,l),
(522,609,l),
(568,602,o),
(595,600,o),
(610,586,cs),
(621,575,o),
(626,559,o),
(626,530,c)
);
}
);
width = 774;
}
);
unicode = 78;
},
{
glyphname = Eng;
lastChange = "2025-03-07 13:07:43 +0000";
layers = (
{
anchors = (
{
name = bottom;
pos = (369,-232);
},
{
name = top;
pos = (369,616);
}
);
layerId = m005;
shapes = (
{
closed = 1;
nodes = (
(628,96,l),
(149,616,l),
(18,616,l),
(18,591,l),
(41,587,o),
(62,579,o),
(76,566,cs),
(129,514,l),
(622,-11,l)
);
},
{
closed = 1;
nodes = (
(252,0,l),
(252,25,l),
(216,28,o),
(175,35,o),
(161,52,cs),
(148,68,o),
(148,78,o),
(148,104,c),
(108,104,l),
(108,77,o),
(107,65,o),
(93,51,cs),
(76,34,o),
(39,33,o),
(18,25,c),
(18,0,l)
);
},
{
closed = 1;
nodes = (
(148,104,l),
(148,561,l),
(108,591,l),
(108,104,l)
);
},
{
closed = 1;
nodes = (
(498,-232,o),
(553,-190,o),
(571,-164,cs),
(618,-96,o),
(651,29,o),
(650,130,cs),
(647,341,o),
(647,332,o),
(649,525,cs),
(649,555,o),
(654,569,o),
(667,577,cs),
(681,584,o),
(704,585,o),
(738,591,c),
(738,616,l),
(486,616,l),
(486,591,l),
(521,587,o),
(545,586,o),
(560,574,cs),
(571,565,o),
(576,551,o),
(576,525,cs),
(576,65,l),
(574,110,l),
(574,4,ls),
(574,-48,o),
(565,-107,o),
(545,-138,cs),
(538,-150,o),
(528,-157,o),
(516,-157,cs),
(497,-158,o),
(495,-135,o),
(476,-134,cs),
(443,-134,o),
(420,-163,o),
(420,-205,cs),
(420,-220,o),
(438,-232,o),
(464,-232,cs)
);
}
);
width = 738;
},
{
anchors = (
{
name = bottom;
pos = (369,-232);
},
{
name = top;
pos = (369,634);
}
);
layerId = m002;
shapes = (
{
closed = 1;
nodes = (
(628,96,l),
(149,616,l),
(18,616,l),
(18,591,l),
(41,587,o),
(62,579,o),
(76,566,cs),
(129,514,l),
(622,-11,l)
);
},
{
closed = 1;
nodes = (
(252,0,l),
(252,25,l),
(216,28,o),
(175,35,o),
(161,52,cs),
(148,68,o),
(148,78,o),
(148,104,c),
(108,104,l),
(108,77,o),
(107,65,o),
(93,51,cs),
(76,34,o),
(39,33,o),
(18,25,c),
(18,0,l)
);
},
{
closed = 1;
nodes = (
(148,104,l),
(148,561,l),
(108,591,l),
(108,104,l)
);
},
{
closed = 1;
nodes = (
(498,-232,o),
(553,-190,o),
(571,-164,cs),
(618,-96,o),
(651,29,o),
(650,130,cs),
(647,341,o),
(647,332,o),
(649,525,cs),
(649,555,o),
(654,569,o),
(667,577,cs),
(681,584,o),
(704,585,o),
(738,591,c),
(738,616,l),
(486,616,l),
(486,591,l),
(521,587,o),
(545,586,o),
(560,574,cs),
(571,565,o),
(576,551,o),
(576,525,cs),
(576,65,l),
(574,110,l),
(574,4,ls),
(574,-48,o),
(565,-107,o),
(545,-138,cs),
(538,-150,o),
(528,-157,o),
(516,-157,cs),
(497,-158,o),
(495,-135,o),
(476,-134,cs),
(443,-134,o),
(420,-163,o),
(420,-205,cs),
(420,-220,o),
(438,-232,o),
(464,-232,cs)
);
}
);
width = 738;
}
);
unicode = 330;
},
{
glyphname = O;
lastChange = "2025-03-07 18:57:36 +0000";
layers = (
{
anchors = (
{
name = bottom;
pos = (378,0);
},
{
name = center;
pos = (378,308);
},
{
name = ogonek;
pos = (528,10);
},
{
name = top;
pos = (369,616);
},
{
name = topleft;
pos = (20,616);
},
{
name = topright;
pos = (574,485);
}
);
background = {
shapes = (
{
closed = 1;
nodes = (
(646,111,o),
(701,209,o),
(704,323,c,{
"Letterink-NibData" = {
AngleInDegrees = "359.99999";
};
}),
(701,395,o),
(690,434,o),
(660,483,cs,{
"Letterink-NibData" = {
AngleInDegrees = "0";
};
}),
(599,582,o),
(513,633,o),
(409,633,cs),
(360,633,o),
(312,621,o),
(271,597,cs,{
"Letterink-NibData" = {
AngleInDegrees = "359.99999";
};
}),
(201,557,ls,{
"Letterink-NibData" = {
AngleInDegrees = "359.99999";
};
}),
(175,542,o),
(123,495,o),
(106,471,cs,{
"Letterink-NibData" = {
AngleInDegrees = "360";
};
}),
(66,415,o),
(48,359,o),
(48,290,cs),
(48,121,o),
(183,-21,o),
(343,-21,cs),
(392,-21,o),
(444,-7,o),
(488,19,cs,{
"Letterink-NibData" = {
AngleInDegrees = "360";
};
}),
(557,59,ls,{
"Letterink-NibData" = {
AngleInDegrees = "0";
};
})
);
},
{
closed = 1;
nodes = (
(482,32,o),
(450,26,o),
(409,26,cs),
(335,26,o),
(252,61,o),
(207,111,cs,{
"Letterink-NibData" = {
AngleInDegrees = "360";
};
}),
(195,123,o),
(182,141,o),
(162,168,c,{
"Letterink-NibData" = {
AngleInDegrees = "359.99999";
};
}),
(131,236,o),
(121,271,o),
(121,323,cs),
(121,425,o),
(159,501,o),
(243,566,c,{
"Letterink-NibData" = {
AngleInDegrees = "0";
};
}),
(285,583,o),
(301,586,o),
(343,586,cs),
(448,586,o),
(529,538,o),
(593,438,c,{
"Letterink-NibData" = {
AngleInDegrees = "359.99999";
};
}),
(620,389,o),
(631,347,o),
(631,289,cs,{
"Letterink-NibData" = {
AngleInDegrees = "359.99999";
};
}),
(629,192,o),
(586,102,o),
(515,47,c,{
"Letterink-NibData" = {
AngleInDegrees = "0";
};
})
);
}
);
};
color = 4;
layerId = m005;
shapes = (
{
closed = 1;
nodes = (
(570,-11,o),
(702,121,o),
(702,308,cs),
(702,494,o),
(570,626,o),
(375,626,cs),
(192,626,o),
(54,494,o),
(54,308,cs),
(54,121,o),
(192,-11,o),
(375,-11,cs)
);
},
{
closed = 1;
nodes = (
(150,474,o),
(241,585,o),
(358,585,cs),
(507,585,o),
(606,466,o),
(606,298,cs),
(606,141,o),
(521,30,o),
(392,30,cs),
(256,30,o),
(150,149,o),
(150,318,cs)
);
}
);
width = 756;
},
{
anchors = (
{
name = bottom;
pos = (396,0);
},
{
name = center;
pos = (396,317);
},
{
name = ogonek;
pos = (713,10);
},
{
name = top;
pos = (396,634);
},
{
name = topleft;
pos = (20,634);
},
{
name = topright;
pos = (772,634);
}
);
background = {
shapes = (
{
closed = 1;
nodes = (
(552,-11,o),
(684,121,o),
(684,308,cs),
(684,494,o),
(552,626,o),
(357,626,cs),
(174,626,o),
(36,494,o),
(36,308,cs),
(36,121,o),
(174,-11,o),
(357,-11,cs)
);
},
{
closed = 1;
nodes = (
(132,474,o),
(223,585,o),
(340,585,cs),
(489,585,o),
(588,466,o),
(588,298,cs),
(588,141,o),
(503,30,o),
(374,30,cs),
(238,30,o),
(132,149,o),
(132,318,cs)
);
},
{
closed = 1;
nodes = (
(624,7,o),
(756,139,o),
(756,326,cs),
(756,512,o),
(624,644,o),
(429,644,cs),
(246,644,o),
(108,512,o),
(108,326,cs),
(108,139,o),
(246,7,o),
(429,7,cs)
);
},
{
closed = 1;
nodes = (
(204,492,o),
(295,603,o),
(412,603,cs),
(561,603,o),
(660,484,o),
(660,316,cs),
(660,159,o),
(575,48,o),
(446,48,cs),
(310,48,o),
(204,167,o),
(204,336,cs)
);
}
);
};
color = 4;
layerId = m002;
shapes = (
{
closed = 1;
nodes = (
(606,-11,o),
(756,129,o),
(756,326,cs),
(756,512,o),
(606,644,o),
(393,644,cs),
(184,644,o),
(36,505,o),
(36,308,cs),
(36,121,o),
(184,-11,o),
(393,-11,cs)
);
},
{
closed = 1;
nodes = (
(204,492,o),
(275,603,o),
(376,603,cs),
(500,603,o),
(588,477,o),
(588,298,cs),
(588,141,o),
(514,30,o),
(410,30,cs),
(289,30,o),
(204,157,o),
(204,336,cs)
);
}
);
width = 792;
}
);
note = O;
unicode = 79;
},
{
glyphname = Oopen;
lastChange = "2025-03-07 18:58:08 +0000";
layers = (
{
anchors = (
{
name = bottom;
pos = (316,0);
},
{
name = top;
pos = (316,616);
}
);
layerId = m005;
shapes = (
{
closed = 1;
nodes = (
(241,627,o),
(148,607,o),
(92,578,c),
(74,510,o),
(58,442,o),
(54,415,c),
(90,416,l),
(114,514,o),
(200,583,o),
(298,583,cs),
(452,583,o),
(571,458,o),
(571,281,cs),
(571,134,o),
(453,28,o),
(304,28,cs),
(206,28,o),
(135,88,o),
(131,172,c),
(100,172,l),
(98,127,o),
(91,65,o),
(84,21,c),
(134,2,o),
(230,-11,o),
(316,-11,cs),
(523,-11,o),
(666,120,o),
(666,304,cs),
(666,493,o),
(523,627,o),
(316,627,cs)
);
}
);
width = 720;
},
{
anchors = (
{
name = bottom;
pos = (360,0);
},
{
name = top;
pos = (360,634);
}
);
layerId = m002;
shapes = (
{
closed = 1;
nodes = (
(241,627,o),
(148,607,o),
(92,578,c),
(74,510,o),
(58,442,o),
(54,415,c),
(90,416,l),
(114,514,o),
(200,583,o),
(298,583,cs),
(452,583,o),
(571,458,o),
(571,281,cs),
(571,134,o),
(453,28,o),
(304,28,cs),
(206,28,o),
(135,88,o),
(131,172,c),
(100,172,l),
(98,127,o),
(91,65,o),
(84,21,c),
(134,2,o),
(230,-11,o),
(316,-11,cs),
(523,-11,o),
(666,120,o),
(666,304,cs),
(666,493,o),
(523,627,o),
(316,627,cs)
);
}
);
width = 720;
}
);
unicode = 390;
},
{
glyphname = Oslash;
lastChange = "2025-03-07 13:07:43 +0000";
layers = (
{
anchors = (
{
name = bottom;
pos = (378,0);
},
{
name = top;
pos = (378,616);
}
);
layerId = m005;
shapes = (
{
ref = O;
},
{
closed = 1;
nodes = (
(79,38,l),
(107,10,l),
(675,578,l),
(647,606,l)
);
}
);
width = 756;
},
{
anchors = (
{
name = bottom;
pos = (378,0);
},
{
name = top;
pos = (378,634);
}
);
layerId = m002;
shapes = (
{
ref = O;
},
{
closed = 1;
nodes = (
(79,38,l),
(107,10,l),
(675,578,l),
(647,606,l)
);
}
);
width = 756;
}
);
unicode = 216;
},
{
glyphname = OE;
lastChange = "2025-03-07 13:07:43 +0000";
layers = (
{
anchors = (
{
name = bottom;
pos = (540,0);
},
{
name = top;
pos = (540,616);
}
);
color = 10;
layerId = m005;
shapes = (
{
closed = 1;
nodes = (
(569,-11,o),
(656,121,o),
(656,308,cs),
(656,494,o),
(569,626,o),
(378,626,cs),
(189,626,o),
(56,494,o),
(56,308,cs),
(56,121,o),
(189,-11,o),
(378,-11,cs)
);
},
{
closed = 1;
nodes = (
(152,471,o),
(239,585,o),
(361,585,cs),
(506,585,o),
(584,463,o),
(584,298,cs),
(584,144,o),
(520,30,o),
(395,30,cs),
(253,30,o),
(152,152,o),
(152,318,cs)
);
},
{
closed = 1;
nodes = (
(590,-1,o),
(601,0,o),
(614,0,c),
(761,0,o),
(919,-1,o),
(996,-3,c),
(1010,44,o),
(1020,110,o),
(1020,157,c),
(991,157,l),
(979,90,o),
(940,45,o),
(897,42,cs),
(865,40,o),
(801,39,o),
(744,39,cs),
(706,39,o),
(674,51,o),
(666,68,cs),
(663,74,o),
(661,90,o),
(661,107,cs),
(659,309,ls),
(659,402,o),
(660,443,o),
(661,577,c),
(744,577,l),
(772,577,o),
(814,577,o),
(846,575,cs),
(871,573,o),
(894,544,o),
(902,499,c),
(936,499,l),
(937,536,o),
(942,586,o),
(949,619,c),
(884,617,o),
(749,616,o),
(624,616,c),
(592,617,o),
(601,617,o),
(576,619,c),
(584,529,l),
(583,525,l),
(585,312,l),
(583,91,l),
(584,88,l),
(576,-3,l)
);
},
{
closed = 1;
nodes = (
(883,206,l),
(877,272,o),
(877,364,o),
(883,430,c),
(856,430,l),
(856,424,o),
(851,410,o),
(846,396,c),
(829,360,o),
(806,336,o),
(746,336,cs),
(607,336,l),
(607,296,l),
(746,296,ls),
(813,296,o),
(835,274,o),
(847,242,cs),
(857,206,l)
);
}
);
width = 1080;
},
{
anchors = (
{
name = bottom;
pos = (567,0);
},
{
name = top;
pos = (567,634);
}
);
background = {
shapes = (
{
closed = 1;
nodes = (
(569,-11,o),
(656,121,o),
(656,308,cs),
(656,494,o),
(569,626,o),
(378,626,cs),
(189,626,o),
(56,494,o),
(56,308,cs),
(56,121,o),
(189,-11,o),
(378,-11,cs)
);
},
{
closed = 1;
nodes = (
(152,471,o),
(239,585,o),
(361,585,cs),
(506,585,o),
(584,463,o),
(584,298,cs),
(584,144,o),
(520,30,o),
(395,30,cs),
(253,30,o),
(152,152,o),
(152,318,cs)
);
},
{
closed = 1;
nodes = (
(590,-1,o),
(601,0,o),
(614,0,c),
(761,0,o),
(919,-1,o),
(996,-3,c),
(1010,44,o),
(1020,110,o),
(1020,157,c),
(991,157,l),
(979,90,o),
(940,45,o),
(897,42,cs),
(865,40,o),
(801,39,o),
(744,39,cs),
(706,39,o),
(674,51,o),
(666,68,cs),
(663,74,o),
(661,90,o),
(661,107,cs),
(659,309,ls),
(659,402,o),
(660,443,o),
(661,577,c),
(744,577,l),
(772,577,o),
(814,577,o),
(846,575,cs),
(871,573,o),
(894,544,o),
(902,499,c),
(936,499,l),
(937,536,o),
(942,586,o),
(949,619,c),
(884,617,o),
(749,616,o),
(624,616,c),
(592,617,o),
(601,617,o),
(576,619,c),
(584,529,l),
(583,525,l),
(585,312,l),
(583,91,l),
(584,88,l),
(576,-3,l)
);
},
{
closed = 1;
nodes = (
(883,206,l),
(877,272,o),
(877,364,o),
(883,430,c),
(856,430,l),
(856,424,o),
(851,410,o),
(846,396,c),
(829,360,o),
(806,336,o),
(746,336,cs),
(607,336,l),
(607,296,l),
(746,296,ls),
(813,296,o),
(835,274,o),
(847,242,cs),
(857,206,l)
);
},
{
closed = 1;
nodes = (
(641,7,o),
(728,139,o),
(728,326,cs),
(728,512,o),
(641,644,o),
(450,644,cs),
(261,644,o),
(128,512,o),
(128,326,cs),
(128,139,o),
(261,7,o),
(450,7,cs)
);
},
{
closed = 1;
nodes = (
(224,489,o),
(311,603,o),
(433,603,cs),
(578,603,o),
(656,481,o),
(656,316,cs),
(656,162,o),
(592,48,o),
(467,48,cs),
(325,48,o),
(224,170,o),
(224,336,cs)
);
},
{
closed = 1;
nodes = (
(662,17,o),
(673,18,o),
(686,18,c),
(833,18,o),
(991,17,o),
(1068,15,c),
(1082,62,o),
(1092,128,o),
(1092,175,c),
(1063,175,l),
(1051,108,o),
(1012,63,o),
(969,60,cs),
(937,58,o),
(873,57,o),
(816,57,cs),
(778,57,o),
(746,69,o),
(738,86,cs),
(735,92,o),
(733,108,o),
(733,125,cs),
(731,327,ls),
(731,420,o),
(732,461,o),
(733,595,c),
(816,595,l),
(844,595,o),
(886,595,o),
(918,593,cs),
(943,591,o),
(966,562,o),
(974,517,c),
(1008,517,l),
(1009,554,o),
(1014,604,o),
(1021,637,c),
(956,635,o),
(821,634,o),
(696,634,c),
(664,635,o),
(673,635,o),
(648,637,c),
(656,547,l),
(655,543,l),
(657,330,l),
(655,109,l),
(656,106,l),
(648,15,l)
);
},
{
closed = 1;
nodes = (
(955,224,l),
(949,290,o),
(949,382,o),
(955,448,c),
(928,448,l),
(928,442,o),
(923,428,o),
(918,414,c),
(901,378,o),
(878,354,o),
(818,354,cs),
(679,354,l),
(679,314,l),
(818,314,ls),
(885,314,o),
(907,292,o),
(919,260,cs),
(929,224,l)
);
}
);
};
color = 10;
layerId = m002;
shapes = (
{
closed = 1;
nodes = (
(605,-11,o),
(728,115,o),
(728,302,cs),
(728,503,o),
(605,645,o),
(414,645,cs),
(225,645,o),
(56,498,o),
(56,312,cs),
(56,125,o),
(225,-11,o),
(414,-11,cs)
);
},
{
closed = 1;
nodes = (
(224,487,o),
(296,604,o),
(397,604,cs),
(507,604,o),
(584,479,o),
(584,302,cs),
(584,143,o),
(521,30,o),
(431,30,cs),
(310,30,o),
(224,151,o),
(224,322,cs)
);
},
{
closed = 1;
nodes = (
(626,-1,o),
(673,0,o),
(686,0,c),
(833,0,o),
(999,-1,o),
(1076,-3,c),
(1090,44,o),
(1100,128,o),
(1100,175,c),
(1053,175,l),
(1041,108,o),
(1002,45,o),
(977,42,cs),
(945,38,o),
(873,39,o),
(816,39,cs),
(778,39,o),
(746,51,o),
(738,68,cs),
(735,74,o),
(733,90,o),
(733,107,cs),
(731,303,ls),
(730,406,o),
(732,472,o),
(733,596,c),
(816,596,l),
(844,596,o),
(922,596,o),
(954,594,cs),
(979,592,o),
(1002,527,o),
(1010,482,c),
(1062,482,l),
(1063,519,o),
(1068,605,o),
(1075,638,c),
(1010,636,o),
(821,635,o),
(696,635,c),
(664,636,o),
(637,636,o),
(612,638,c),
(620,548,l),
(619,544,l),
(621,316,l),
(619,91,l),
(620,88,l),
(612,-3,l)
);
},
{
closed = 1;
nodes = (
(963,200,l),
(957,266,o),
(957,378,o),
(963,444,c),
(910,444,l),
(910,438,o),
(905,424,o),
(900,410,c),
(883,374,o),
(860,350,o),
(818,350,cs),
(679,350,l),
(679,290,l),
(818,290,ls),
(867,290,o),
(889,268,o),
(901,236,cs),
(911,200,l)
);
}
);
width = 1134;
}
);
unicode = 338;
},
{
glyphname = P;
lastChange = "2025-03-07 18:58:23 +0000";
layers = (
{
anchors = (
{
name = bottom;
pos = (252,0);
},
{
name = top;
pos = (214,616);
}
);
background = {
anchors = (
{
name = bottom;
pos = (280,0);
},
{
name = center;
pos = (138,154);
},
{
name = top;
pos = (280,616);
}
);
shapes = (
{
closed = 1;
nodes = (
(20,0,l),
(303,0,l),
(303,40,l),
(258,40,o),
(223,38,o),
(204,54,cs),
(195,62,o),
(190,73,o),
(190,91,cs),
(188,307,o),
(187,377,o),
(191,574,c),
(208,576,o),
(260,576,o),
(283,576,c),
(283,616,l),
(20,616,l),
(20,591,l),
(54,581,o),
(78,582,o),
(92,572,cs),
(102,565,o),
(107,552,o),
(107,525,cs),
(108,341,o),
(109,253,o),
(109,312,cs),
(109,373,o),
(108,282,o),
(107,91,cs),
(107,65,o),
(101,51,o),
(92,43,cs),
(76,29,o),
(50,31,o),
(20,25,c)
);
},
{
closed = 1;
nodes = (
(177,318,o),
(189,318,o),
(217,318,cs),
(373,318,o),
(476,378,o),
(476,481,cs),
(476,560,o),
(396,616,o),
(283,616,c),
(283,576,l),
(344,576,o),
(387,529,o),
(387,462,cs),
(387,387,o),
(318,348,o),
(210,348,cs),
(150,348,l),
(151,318,l)
);
}
);
};
color = 2;
layerId = m005;
shapes = (
{
closed = 1;
nodes = (
(231,271,o),
(241,271,o),
(251,271,cs),
(380,271,o),
(468,337,o),
(468,448,cs),
(468,552,o),
(391,620,o),
(279,618,c),
(260,584,l),
(334,584,o),
(382,528,o),
(382,436,cs),
(382,346,o),
(319,295,o),
(220,295,c),
(220,272,l)
);
},
{
closed = 1;
nodes = (
(288,0,l),
(288,25,l),
(237,36,o),
(216,39,o),
(204,51,cs),
(194,61,o),
(191,78,o),
(190,111,cs),
(188,188,o),
(188,379,o),
(191,583,c),
(260,584,l),
(279,618,l),
(240,617,o),
(179,616,o),
(147,616,c),
(108,616,o),
(43,617,o),
(0,618,c),
(0,587,l),
(45,580,o),
(75,576,o),
(92,556,cs),
(102,545,o),
(107,531,o),
(107,507,cs),
(109,369,o),
(109,235,o),
(107,101,cs),
(107,75,o),
(103,60,o),
(94,49,cs),
(83,35,o),
(41,30,o),
(18,25,c),
(18,0,l)
);
}
);
width = 504;
},
{
anchors = (
{
name = bottom;
pos = (306,0);
},
{
name = top;
pos = (306,634);
}
);
background = {
anchors = (
{
name = bottom;
pos = (280,0);
},
{
name = center;
pos = (138,154);
},
{
name = top;
pos = (280,616);
}
);
shapes = (
{
closed = 1;
nodes = (
(231,271,o),
(241,271,o),
(251,271,cs),
(380,271,o),
(468,337,o),
(468,448,cs),
(468,552,o),
(391,620,o),
(279,618,c),
(260,584,l),
(334,584,o),
(382,528,o),
(382,436,cs),
(382,346,o),
(319,295,o),
(220,295,c),
(220,272,l)
);
},
{
closed = 1;
nodes = (
(288,0,l),
(288,25,l),
(237,36,o),
(216,39,o),
(204,51,cs),
(194,61,o),
(191,78,o),
(190,111,cs),
(188,188,o),
(188,379,o),
(191,583,c),
(260,584,l),
(279,618,l),
(240,617,o),
(179,616,o),
(147,616,c),
(108,616,o),
(43,617,o),
(0,618,c),
(0,587,l),
(45,580,o),
(75,576,o),
(92,556,cs),
(102,545,o),
(107,531,o),
(107,507,cs),
(109,369,o),
(109,235,o),
(107,101,cs),
(107,75,o),
(103,60,o),
(94,49,cs),
(83,35,o),
(41,30,o),
(18,25,c),
(18,0,l)
);
},
{
closed = 1;
nodes = (
(303,289,o),
(313,289,o),
(323,289,cs),
(452,289,o),
(540,355,o),
(540,466,cs),
(540,570,o),
(463,638,o),
(351,636,c),
(332,602,l),
(406,602,o),
(454,546,o),
(454,454,cs),
(454,364,o),
(391,313,o),
(292,313,c),
(292,290,l)
);
},
{
closed = 1;
nodes = (
(360,18,l),
(360,43,l),
(309,54,o),
(288,57,o),
(276,69,cs),
(266,79,o),
(263,96,o),
(262,129,cs),
(260,206,o),
(260,397,o),
(263,601,c),
(332,602,l),
(351,636,l),
(312,635,o),
(251,634,o),
(219,634,c),
(180,634,o),
(115,635,o),
(72,636,c),
(72,605,l),
(117,598,o),
(147,594,o),
(164,574,cs),
(174,563,o),
(179,549,o),
(179,525,cs),
(181,387,o),
(181,253,o),
(179,119,cs),
(179,93,o),
(175,78,o),
(166,67,cs),
(155,53,o),
(113,48,o),
(90,43,c),
(90,18,l)
);
}
);
};
color = 2;
layerId = m002;
shapes = (
{
closed = 1;
nodes = (
(298,271,o),
(311,271,o),
(323,271,cs),
(471,271,o),
(576,352,o),
(576,466,cs),
(576,568,o),
(483,638,o),
(351,636,c),
(332,602,l),
(382,602,o),
(418,541,o),
(418,454,cs),
(418,361,o),
(366,295,o),
(292,295,c),
(292,272,l)
);
},
{
closed = 1;
nodes = (
(360,0,l),
(360,25,l),
(309,36,o),
(288,39,o),
(276,51,cs),
(266,61,o),
(263,78,o),
(262,111,cs),
(260,194,o),
(260,397,o),
(263,601,c),
(332,602,l),
(351,636,l),
(305,635,o),
(236,634,o),
(183,634,c),
(144,634,o),
(43,635,o),
(0,636,c),
(0,605,l),
(45,598,o),
(75,594,o),
(92,574,cs),
(102,563,o),
(107,549,o),
(107,525,cs),
(109,369,o),
(109,235,o),
(107,101,cs),
(107,75,o),
(103,60,o),
(94,49,cs),
(83,35,o),
(41,30,o),
(18,25,c),
(18,0,l)
);
}
);
width = 612;
}
);
unicode = 80;
},
{
glyphname = Thorn;
lastChange = "2025-03-07 13:07:43 +0000";
layers = (
{
anchors = (
{
name = bottom;
pos = (252,0);
},
{
name = top;
pos = (252,616);
}
);
layerId = m005;
shapes = (
{
closed = 1;
nodes = (
(270,0,l),
(270,25,l),
(237,36,o),
(216,39,o),
(204,51,cs),
(195,60,o),
(190,81,o),
(190,111,cs),
(190,113,o),
(188,302,o),
(191,506,cs),
(191,532,o),
(195,556,o),
(204,567,cs),
(215,581,o),
(257,586,o),
(288,591,c),
(288,616,l),
(18,616,l),
(18,591,l),
(61,580,o),
(83,576,o),
(94,565,cs),
(103,556,o),
(107,538,o),
(108,505,cs),
(108,474,o),
(109,156,o),
(107,101,cs),
(106,75,o),
(103,60,o),
(94,49,cs),
(83,35,o),
(41,30,o),
(18,25,c),
(18,0,l)
);
},
{
closed = 1;
nodes = (
(380,140,o),
(468,206,o),
(468,317,cs),
(468,421,o),
(391,489,o),
(279,487,c),
(260,453,l),
(334,453,o),
(382,397,o),
(382,305,cs),
(382,215,o),
(319,164,o),
(220,164,c),
(220,141,l),
(231,140,o),
(241,140,o),
(251,140,cs)
);
},
{
closed = 1;
nodes = (
(260,453,l),
(279,487,l),
(157,486,l),
(157,452,l)
);
}
);
width = 504;
},
{
anchors = (
{
name = bottom;
pos = (252,0);
},
{
name = top;
pos = (252,634);
}
);
layerId = m002;
shapes = (
{
closed = 1;
nodes = (
(270,0,l),
(270,25,l),
(237,36,o),
(216,39,o),
(204,51,cs),
(195,60,o),
(190,81,o),
(190,111,cs),
(190,113,o),
(188,302,o),
(191,506,cs),
(191,532,o),
(195,556,o),
(204,567,cs),
(215,581,o),
(257,586,o),
(288,591,c),
(288,616,l),
(18,616,l),
(18,591,l),
(61,580,o),
(83,576,o),
(94,565,cs),
(103,556,o),
(107,538,o),
(108,505,cs),
(108,474,o),
(109,156,o),
(107,101,cs),
(106,75,o),
(103,60,o),
(94,49,cs),
(83,35,o),
(41,30,o),
(18,25,c),
(18,0,l)
);
},
{
closed = 1;
nodes = (
(380,140,o),
(468,206,o),
(468,317,cs),
(468,421,o),
(391,489,o),
(279,487,c),
(260,453,l),
(334,453,o),
(382,397,o),
(382,305,cs),
(382,215,o),
(319,164,o),
(220,164,c),
(220,141,l),
(231,140,o),
(241,140,o),
(251,140,cs)
);
},
{
closed = 1;
nodes = (
(260,453,l),
(279,487,l),
(157,486,l),
(157,452,l)
);
}
);
width = 504;
}
);
unicode = 222;
},
{
glyphname = Q;
lastChange = "2025-03-07 13:07:43 +0000";
layers = (
{
anchors = (
{
name = bottom;
pos = (378,0);
},
{
name = top;
pos = (378,616);
}
);
background = {
shapes = (
{
closed = 1;
nodes = (
(567,-11,o),
(702,121,o),
(702,308,cs),
(702,494,o),
(567,626,o),
(376,626,cs),
(187,626,o),
(54,494,o),
(54,308,cs),
(54,121,o),
(187,-11,o),
(376,-11,cs)
);
},
{
closed = 1;
nodes = (
(150,471,o),
(237,585,o),
(359,585,cs),
(504,585,o),
(606,463,o),
(606,298,cs),
(606,144,o),
(518,30,o),
(393,30,cs),
(251,30,o),
(150,152,o),
(150,318,cs)
);
},
{
closed = 1;
nodes = (
(567,-11,o),
(702,121,o),
(702,308,cs),
(702,494,o),
(567,626,o),
(376,626,cs),
(187,626,o),
(54,494,o),
(54,308,cs),
(54,121,o),
(187,-11,o),
(376,-11,cs)
);
},
{
closed = 1;
nodes = (
(150,471,o),
(237,585,o),
(359,585,cs),
(504,585,o),
(606,463,o),
(606,298,cs),
(606,144,o),
(518,30,o),
(393,30,cs),
(251,30,o),
(150,152,o),
(150,318,cs)
);
}
);
};
backgroundImage = {
imagePath = "../../Desktop/Bildschirmfoto 2024-12-24 um 15.25.09.png";
pos = (965,-1126);
scale = (-1.4,1.4);
};
color = 4;
layerId = m005;
shapes = (
{
closed = 1;
nodes = (
(569,-11,o),
(702,121,o),
(702,308,cs),
(702,494,o),
(569,626,o),
(381,626,cs),
(189,626,o),
(54,494,o),
(54,308,cs),
(54,121,o),
(189,-11,o),
(381,-11,cs)
);
},
{
closed = 1;
nodes = (
(150,474,o),
(236,584,o),
(358,584,cs),
(503,584,o),
(606,466,o),
(606,298,cs),
(606,141,o),
(520,30,o),
(398,30,cs),
(253,30,o),
(150,149,o),
(150,318,cs)
);
},
{
closed = 1;
nodes = (
(939,-232,o),
(1057,-202,o),
(1131,-153,c),
(1120,-133,l),
(1046,-163,o),
(957,-179,o),
(869,-179,cs),
(703,-179,o),
(537,-98,o),
(458,29,c),
(331,11,l),
(430,-144,o),
(630,-232,o),
(813,-232,cs)
);
}
);
width = 756;
},
{
anchors = (
{
name = bottom;
pos = (414,0);
},
{
name = top;
pos = (414,634);
}
);
background = {
shapes = (
{
closed = 1;
nodes = (
(567,-11,o),
(702,121,o),
(702,308,cs),
(702,494,o),
(567,626,o),
(376,626,cs),
(187,626,o),
(54,494,o),
(54,308,cs),
(54,121,o),
(187,-11,o),
(376,-11,cs)
);
},
{
closed = 1;
nodes = (
(150,471,o),
(237,585,o),
(359,585,cs),
(504,585,o),
(606,463,o),
(606,298,cs),
(606,144,o),
(518,30,o),
(393,30,cs),
(251,30,o),
(150,152,o),
(150,318,cs)
);
},
{
closed = 1;
nodes = (
(567,-11,o),
(702,121,o),
(702,308,cs),
(702,494,o),
(567,626,o),
(376,626,cs),
(187,626,o),
(54,494,o),
(54,308,cs),
(54,121,o),
(187,-11,o),
(376,-11,cs)
);
},
{
closed = 1;
nodes = (
(150,471,o),
(237,585,o),
(359,585,cs),
(504,585,o),
(606,463,o),
(606,298,cs),
(606,144,o),
(518,30,o),
(393,30,cs),
(251,30,o),
(150,152,o),
(150,318,cs)
);
},
{
closed = 1;
nodes = (
(569,-11,o),
(702,121,o),
(702,308,cs),
(702,494,o),
(569,626,o),
(381,626,cs),
(189,626,o),
(54,494,o),
(54,308,cs),
(54,121,o),
(189,-11,o),
(381,-11,cs)
);
},
{
closed = 1;
nodes = (
(150,474,o),
(236,584,o),
(358,584,cs),
(503,584,o),
(606,466,o),
(606,298,cs),
(606,141,o),
(520,30,o),
(398,30,cs),
(253,30,o),
(150,149,o),
(150,318,cs)
);
},
{
closed = 1;
nodes = (
(630,-232,o),
(813,-232,cs),
(939,-232,o),
(1057,-202,o),
(1131,-153,c),
(1120,-133,l),
(1046,-163,o),
(957,-179,o),
(869,-179,cs),
(703,-179,o),
(537,-98,o),
(458,29,c),
(331,11,l),
(430,-144,o)
);
},
{
closed = 1;
nodes = (
(641,7,o),
(774,139,o),
(774,326,cs),
(774,512,o),
(641,644,o),
(453,644,cs),
(261,644,o),
(126,512,o),
(126,326,cs),
(126,139,o),
(261,7,o),
(453,7,cs)
);
},
{
closed = 1;
nodes = (
(222,492,o),
(308,602,o),
(430,602,cs),
(575,602,o),
(678,484,o),
(678,316,cs),
(678,159,o),
(592,48,o),
(470,48,cs),
(325,48,o),
(222,167,o),
(222,336,cs)
);
},
{
closed = 1;
nodes = (
(702,-214,o),
(885,-214,cs),
(1011,-214,o),
(1129,-184,o),
(1203,-135,c),
(1192,-115,l),
(1118,-145,o),
(1029,-161,o),
(941,-161,cs),
(775,-161,o),
(609,-80,o),
(530,47,c),
(403,29,l),
(502,-126,o)
);
}
);
};
backgroundImage = {
imagePath = "../../Desktop/Bildschirmfoto 2024-12-24 um 15.25.09.png";
pos = (965,-1126);
scale = (-1.4,1.4);
};
color = 4;
layerId = m002;
shapes = (
{
closed = 1;
nodes = (
(624,-11,o),
(774,129,o),
(774,326,cs),
(774,512,o),
(624,644,o),
(411,644,cs),
(202,644,o),
(54,505,o),
(54,308,cs),
(54,121,o),
(202,-11,o),
(411,-11,cs)
);
},
{
closed = 1;
nodes = (
(222,492,o),
(293,603,o),
(394,603,cs),
(518,603,o),
(606,477,o),
(606,298,cs),
(606,141,o),
(532,30,o),
(428,30,cs),
(307,30,o),
(222,157,o),
(222,336,cs)
);
},
{
closed = 1;
nodes = (
(956,-232,o),
(1117,-192,o),
(1203,-135,c),
(1192,-115,l),
(1126,-142,o),
(1022,-161,o),
(941,-161,cs),
(776,-161,o),
(606,-75,o),
(530,47,c),
(331,11,l),
(422,-131,o),
(622,-232,o),
(813,-232,cs)
);
}
);
width = 828;
}
);
metricWidth = O;
unicode = 81;
},
{
glyphname = R;
lastChange = "2025-03-07 18:58:42 +0000";
layers = (
{
anchors = (
{
name = bottom;
pos = (371,0);
},
{
name = top;
pos = (214,616);
}
);
background = {
shapes = (
{
closed = 1;
nodes = (
(20,0,l),
(303,0,l),
(303,40,l),
(258,40,o),
(223,38,o),
(204,54,cs),
(195,62,o),
(190,73,o),
(190,91,cs),
(188,307,o),
(187,377,o),
(191,574,c),
(208,576,o),
(260,576,o),
(283,576,c),
(283,616,l),
(20,616,l),
(20,591,l),
(54,581,o),
(78,582,o),
(92,572,cs),
(102,565,o),
(107,552,o),
(107,525,cs),
(108,341,o),
(109,253,o),
(109,312,cs),
(109,373,o),
(108,282,o),
(107,91,cs),
(107,65,o),
(101,51,o),
(92,43,cs),
(76,29,o),
(50,31,o),
(20,25,c)
);
}
);
};
color = 2;
layerId = m005;
shapes = (
{
closed = 1;
nodes = (
(345,282,o),
(462,354,o),
(462,458,cs),
(462,550,o),
(379,620,o),
(271,618,c),
(252,576,l),
(322,576,o),
(376,526,o),
(376,446,cs),
(376,362,o),
(296,322,o),
(180,322,c),
(180,282,l)
);
},
{
closed = 1;
nodes = (
(288,0,l),
(288,27,l),
(249,31,o),
(211,41,o),
(200,53,cs),
(190,63,o),
(188,79,o),
(188,106,cs),
(188,374,o),
(187,454,o),
(191,574,c),
(252,576,l),
(271,618,l),
(222,617,o),
(194,616,o),
(145,616,c),
(106,615,o),
(65,617,o),
(19,618,c),
(19,592,l),
(54,585,o),
(85,579,o),
(96,567,cs),
(105,556,o),
(107,538,o),
(107,512,cs),
(109,376,o),
(109,238,o),
(107,104,cs),
(107,69,o),
(103,53,o),
(92,44,cs),
(80,34,o),
(60,32,o),
(18,25,c),
(18,0,l)
);
},
{
closed = 1;
nodes = (
(630,18,l),
(558,26,o),
(436,156,o),
(340,337,c),
(264,305,l),
(349,123,o),
(456,-5,o),
(528,-3,cs),
(630,0,l)
);
}
);
width = 630;
},
{
anchors = (
{
name = bottom;
pos = (369,0);
},
{
name = top;
pos = (369,634);
}
);
background = {
shapes = (
{
closed = 1;
nodes = (
(345,282,o),
(462,354,o),
(462,458,cs),
(462,550,o),
(379,620,o),
(271,618,c),
(252,576,l),
(322,576,o),
(376,526,o),
(376,446,cs),
(376,362,o),
(296,322,o),
(180,322,c),
(180,282,l)
);
},
{
closed = 1;
nodes = (
(288,0,l),
(288,27,l),
(249,31,o),
(211,41,o),
(200,53,cs),
(190,63,o),
(188,79,o),
(188,106,cs),
(188,374,o),
(187,454,o),
(191,574,c),
(252,576,l),
(271,618,l),
(222,617,o),
(194,616,o),
(145,616,c),
(106,615,o),
(65,617,o),
(19,618,c),
(19,592,l),
(54,585,o),
(85,579,o),
(96,567,cs),
(105,556,o),
(107,538,o),
(107,512,cs),
(109,376,o),
(109,238,o),
(107,104,cs),
(107,69,o),
(103,53,o),
(92,44,cs),
(80,34,o),
(60,32,o),
(18,25,c),
(18,0,l)
);
},
{
closed = 1;
nodes = (
(630,18,l),
(558,26,o),
(436,156,o),
(340,337,c),
(264,305,l),
(349,123,o),
(456,-5,o),
(528,-3,cs),
(630,0,l)
);
},
{
closed = 1;
nodes = (
(417,300,o),
(534,372,o),
(534,476,cs),
(534,568,o),
(451,638,o),
(343,636,c),
(324,594,l),
(394,594,o),
(448,544,o),
(448,464,cs),
(448,380,o),
(368,340,o),
(252,340,c),
(252,300,l)
);
},
{
closed = 1;
nodes = (
(360,18,l),
(360,45,l),
(321,49,o),
(283,59,o),
(272,71,cs),
(262,81,o),
(260,97,o),
(260,124,cs),
(260,392,o),
(259,472,o),
(263,592,c),
(324,594,l),
(343,636,l),
(294,635,o),
(266,634,o),
(217,634,c),
(178,633,o),
(137,635,o),
(91,636,c),
(91,610,l),
(126,603,o),
(157,597,o),
(168,585,cs),
(177,574,o),
(179,556,o),
(179,530,cs),
(181,394,o),
(181,256,o),
(179,122,cs),
(179,87,o),
(175,71,o),
(164,62,cs),
(152,52,o),
(132,50,o),
(90,43,c),
(90,18,l)
);
},
{
closed = 1;
nodes = (
(702,36,l),
(630,44,o),
(508,174,o),
(412,355,c),
(336,323,l),
(421,141,o),
(528,13,o),
(600,15,cs),
(702,18,l)
);
}
);
};
color = 2;
layerId = m002;
shapes = (
{
closed = 1;
nodes = (
(438,282,o),
(570,362,o),
(570,476,cs),
(570,572,o),
(476,638,o),
(343,636,c),
(306,594,l),
(368,594,o),
(412,540,o),
(412,464,cs),
(412,381,o),
(346,322,o),
(252,322,c),
(252,282,l)
);
},
{
closed = 1;
nodes = (
(360,0,l),
(360,27,l),
(321,31,o),
(283,41,o),
(272,53,cs),
(262,63,o),
(260,79,o),
(260,106,cs),
(260,344,o),
(261,545,o),
(263,592,c),
(306,594,l),
(343,636,l),
(276,635,o),
(209,634,o),
(181,634,c),
(142,633,o),
(65,635,o),
(19,636,c),
(19,610,l),
(54,603,o),
(85,597,o),
(96,585,cs),
(105,574,o),
(107,556,o),
(107,530,cs),
(109,376,o),
(109,238,o),
(107,104,cs),
(107,69,o),
(103,53,o),
(92,44,cs),
(80,34,o),
(60,32,o),
(18,25,c),
(18,0,l)
);
},
{
closed = 1;
nodes = (
(738,18,l),
(663,26,o),
(543,159,o),
(448,337,c),
(300,305,l),
(385,123,o),
(492,-4,o),
(564,-3,cs),
(738,0,l)
);
}
);
width = 738;
}
);
unicode = 82;
},
{
glyphname = S;
lastChange = "2025-03-07 18:59:06 +0000";
layers = (
{
anchors = (
{
name = bottom;
pos = (216,0);
},
{
name = top;
pos = (241,616);
}
);
color = 4;
layerId = m005;
shapes = (
{
closed = 1;
nodes = (
(344,-9,o),
(433,69,o),
(433,176,cs),
(433,341,o),
(123,354,o),
(126,492,cs),
(127,545,o),
(173,581,o),
(241,581,cs),
(316,581,o),
(363,517,o),
(357,453,c),
(396,453,l),
(395,508,o),
(396,576,o),
(400,593,c),
(350,611,o),
(282,624,o),
(241,624,cs),
(128,624,o),
(55,550,o),
(55,446,cs),
(55,272,o),
(359,279,o),
(359,136,cs),
(359,75,o),
(298,33,o),
(217,35,cs),
(142,37,o),
(93,104,o),
(95,197,c),
(54,197,l),
(57,171,o),
(58,104,o),
(57,36,c),
(122,10,o),
(188,-9,o),
(217,-9,cs)
);
}
);
width = 487;
},
{
anchors = (
{
name = bottom;
pos = (261,0);
},
{
name = top;
pos = (261,634);
}
);
background = {
shapes = (
{
closed = 1;
nodes = (
(344,-9,o),
(433,69,o),
(433,176,cs),
(433,341,o),
(123,354,o),
(126,492,cs),
(127,545,o),
(173,581,o),
(241,581,cs),
(316,581,o),
(363,517,o),
(357,453,c),
(396,453,l),
(395,508,o),
(396,576,o),
(400,593,c),
(350,611,o),
(282,624,o),
(241,624,cs),
(128,624,o),
(55,550,o),
(55,446,cs),
(55,272,o),
(359,279,o),
(359,136,cs),
(359,75,o),
(298,33,o),
(217,35,cs),
(142,37,o),
(93,104,o),
(95,197,c),
(54,197,l),
(57,171,o),
(58,104,o),
(57,36,c),
(122,10,o),
(188,-9,o),
(217,-9,cs)
);
},
{
closed = 1;
nodes = (
(416,9,o),
(505,87,o),
(505,194,cs),
(505,359,o),
(195,372,o),
(198,510,cs),
(199,563,o),
(245,599,o),
(313,599,cs),
(388,599,o),
(435,535,o),
(429,471,c),
(468,471,l),
(467,526,o),
(468,594,o),
(472,611,c),
(422,629,o),
(354,642,o),
(313,642,cs),
(200,642,o),
(127,568,o),
(127,464,cs),
(127,290,o),
(431,297,o),
(431,154,cs),
(431,93,o),
(370,51,o),
(289,53,cs),
(214,55,o),
(165,122,o),
(167,215,c),
(126,215,l),
(129,189,o),
(130,122,o),
(129,54,c),
(194,28,o),
(260,9,o),
(289,9,cs)
);
}
);
};
color = 4;
layerId = m002;
shapes = (
{
closed = 1;
nodes = (
(401,-9,o),
(505,68,o),
(505,176,cs),
(505,341,o),
(195,372,o),
(198,510,cs),
(199,562,o),
(232,599,o),
(277,599,cs),
(364,599,o),
(419,539,o),
(411,453,c),
(468,453,l),
(467,534,o),
(476,600,o),
(490,611,c),
(421,629,o),
(333,642,o),
(277,642,cs),
(147,642,o),
(55,568,o),
(55,464,cs),
(55,290,o),
(359,279,o),
(359,136,cs),
(359,75,o),
(315,33,o),
(253,35,cs),
(169,37,o),
(111,112,o),
(113,215,c),
(54,215,l),
(60,163,o),
(54,89,o),
(39,36,c),
(123,10,o),
(212,-9,o),
(253,-9,cs)
);
}
);
width = 522;
}
);
unicode = 83;
},
{
glyphname = Germandbls;
lastChange = "2025-03-07 13:07:43 +0000";
layers = (
{
anchors = (
{
name = bottom;
pos = (297,0);
},
{
name = top;
pos = (297,616);
}
);
color = 10;
layerId = m005;
shapes = (
{
closed = 1;
nodes = (
(191,0,l),
(191,69,ls),
(191,327,o),
(191,505,o),
(190,499,c),
(189,578,l),
(286,578,l),
(337,616,l),
(152,616,ls),
(106,616,o),
(51,617,o),
(18,619,c),
(18,594,l),
(72,581,o),
(111,551,o),
(111,521,cs),
(111,521,o),
(111,334,o),
(111,69,cs),
(111,53,o),
(72,32,o),
(18,18,c),
(18,0,l)
);
},
{
closed = 1;
nodes = (
(495,-6,o),
(558,50,o),
(558,129,cs),
(558,247,o),
(374,256,o),
(374,334,cs),
(374,415,o),
(496,430,o),
(496,512,cs),
(496,573,o),
(430,616,o),
(337,616,c),
(286,578,l),
(362,578,o),
(411,542,o),
(411,491,cs),
(411,429,o),
(300,415,o),
(300,314,cs),
(300,194,o),
(485,199,o),
(485,108,cs),
(485,53,o),
(455,18,o),
(406,22,cs),
(358,26,o),
(320,67,o),
(314,122,c),
(287,122,l),
(289,106,o),
(289,58,o),
(288,6,c),
(314,-1,o),
(363,-6,o),
(406,-6,cs)
);
}
);
width = 594;
},
{
anchors = (
{
name = bottom;
pos = (297,0);
},
{
name = top;
pos = (297,634);
}
);
color = 10;
layerId = m002;
shapes = (
{
closed = 1;
nodes = (
(191,0,l),
(191,69,ls),
(191,327,o),
(191,505,o),
(190,499,c),
(189,578,l),
(286,578,l),
(337,616,l),
(152,616,ls),
(106,616,o),
(51,617,o),
(18,619,c),
(18,594,l),
(72,581,o),
(111,551,o),
(111,521,cs),
(111,521,o),
(111,334,o),
(111,69,cs),
(111,53,o),
(72,32,o),
(18,18,c),
(18,0,l)
);
},
{
closed = 1;
nodes = (
(495,-6,o),
(558,50,o),
(558,129,cs),
(558,247,o),
(374,256,o),
(374,334,cs),
(374,415,o),
(496,430,o),
(496,512,cs),
(496,573,o),
(430,616,o),
(337,616,c),
(286,578,l),
(362,578,o),
(411,542,o),
(411,491,cs),
(411,429,o),
(300,415,o),
(300,314,cs),
(300,194,o),
(485,199,o),
(485,108,cs),
(485,53,o),
(455,18,o),
(406,22,cs),
(358,26,o),
(320,67,o),
(314,122,c),
(287,122,l),
(289,106,o),
(289,58,o),
(288,6,c),
(314,-1,o),
(363,-6,o),
(406,-6,cs)
);
}
);
width = 594;
}
);
unicode = 7838;
},
{
glyphname = T;
lastChange = "2025-03-07 13:07:43 +0000";
layers = (
{
anchors = (
{
name = bottom;
pos = (306,0);
},
{
name = center;
pos = (306,308);
},
{
name = top;
pos = (306,616);
}
);
background = {
shapes = (
{
closed = 1;
nodes = (
(196,0,l),
(441,0,l),
(441,18,l),
(395,31,o),
(372,33,o),
(363,52,cs),
(359,60,o),
(358,73,o),
(358,91,cs),
(357,164,o),
(357,237,o),
(356,310,cs),
(355,382,o),
(357,453,o),
(358,525,cs),
(358,561,o),
(364,575,o),
(385,585,cs),
(396,590,o),
(414,591,o),
(441,598,c),
(441,616,l),
(196,616,l),
(196,598,l),
(242,585,o),
(265,583,o),
(274,565,cs),
(278,556,o),
(280,543,o),
(280,525,cs),
(281,454,o),
(282,383,o),
(282,312,cs),
(282,238,o),
(281,165,o),
(280,91,cs),
(280,55,o),
(273,42,o),
(252,32,cs),
(241,27,o),
(223,25,o),
(196,18,c)
);
}
);
};
color = 4;
layerId = m005;
shapes = (
{
closed = 1;
nodes = (
(468,0,l),
(468,28,l),
(393,42,o),
(349,46,o),
(347,100,cs),
(342,262,o),
(342,428,o),
(347,590,c),
(323,561,l),
(387,561,o),
(456,561,o),
(485,561,cs),
(521,561,o),
(568,559,o),
(573,447,c),
(612,451,l),
(611,515,o),
(606,579,o),
(595,643,c),
(583,643,l),
(528,616,l),
(371,613,o),
(218,613,o),
(76,616,c),
(28,653,l),
(20,648,l),
(8,581,o),
(2,515,o),
(0,448,c),
(39,446,l),
(44,561,o),
(79,561,o),
(143,561,cs),
(293,561,l),
(263,590,l),
(265,462,o),
(265,146,o),
(263,100,cs),
(261,54,o),
(220,41,o),
(144,28,c),
(144,0,l)
);
}
);
width = 612;
},
{
anchors = (
{
name = bottom;
pos = (342,0);
},
{
name = center;
pos = (342,317);
},
{
name = top;
pos = (342,634);
}
);
background = {
shapes = (
{
closed = 1;
nodes = (
(468,0,l),
(468,28,l),
(393,42,o),
(349,46,o),
(347,100,cs),
(342,262,o),
(342,428,o),
(347,590,c),
(323,561,l),
(387,561,o),
(456,561,o),
(485,561,cs),
(521,561,o),
(568,559,o),
(573,447,c),
(612,451,l),
(611,515,o),
(606,579,o),
(595,643,c),
(583,643,l),
(528,616,l),
(371,613,o),
(218,613,o),
(76,616,c),
(28,653,l),
(20,648,l),
(8,581,o),
(2,515,o),
(0,448,c),
(39,446,l),
(44,561,o),
(79,561,o),
(143,561,cs),
(293,561,l),
(263,590,l),
(265,462,o),
(265,146,o),
(263,100,cs),
(261,54,o),
(220,41,o),
(144,28,c),
(144,0,l)
);
},
{
closed = 1;
nodes = (
(540,18,l),
(540,46,l),
(465,60,o),
(421,64,o),
(419,118,cs),
(414,280,o),
(414,446,o),
(419,608,c),
(395,579,l),
(459,579,o),
(528,579,o),
(557,579,cs),
(593,579,o),
(640,577,o),
(645,465,c),
(684,469,l),
(683,533,o),
(678,597,o),
(667,661,c),
(655,661,l),
(600,634,l),
(443,631,o),
(290,631,o),
(148,634,c),
(100,671,l),
(92,666,l),
(80,599,o),
(74,533,o),
(72,466,c),
(111,464,l),
(116,579,o),
(151,579,o),
(215,579,cs),
(365,579,l),
(335,608,l),
(337,480,o),
(337,164,o),
(335,118,cs),
(333,72,o),
(292,59,o),
(216,46,c),
(216,18,l)
);
}
);
};
color = 4;
layerId = m002;
shapes = (
{
closed = 1;
nodes = (
(540,0,l),
(540,28,l),
(465,42,o),
(421,46,o),
(419,100,cs),
(414,262,o),
(414,423,o),
(419,608,c),
(395,556,l),
(459,556,o),
(528,556,o),
(557,556,cs),
(575,556,o),
(622,536,o),
(627,442,c),
(684,446,l),
(683,492,o),
(678,556,o),
(667,643,c),
(655,643,l),
(582,634,l),
(425,631,o),
(236,631,o),
(94,634,c),
(28,653,l),
(20,648,l),
(8,558,o),
(2,492,o),
(0,443,c),
(57,441,l),
(62,538,o),
(97,556,o),
(143,556,cs),
(365,556,l),
(263,608,l),
(265,457,o),
(265,146,o),
(263,100,cs),
(261,54,o),
(220,41,o),
(144,28,c),
(144,0,l)
);
}
);
width = 684;
}
);
unicode = 84;
},
{
glyphname = U;
lastChange = "2025-03-07 19:00:01 +0000";
layers = (
{
anchors = (
{
name = bottom;
pos = (342,0);
},
{
name = ogonek;
pos = (482,10);
},
{
name = top;
pos = (360,616);
},
{
name = topright;
pos = (610,544);
}
);
color = 1;
layerId = m005;
shapes = (
{
closed = 1;
nodes = (
(486,-11,o),
(592,78,o),
(594,204,cs),
(596,339,o),
(593,431,o),
(594,514,cs),
(595,578,o),
(618,588,o),
(666,588,c),
(666,616,l),
(468,616,l),
(468,592,l),
(519,582,o),
(551,553,o),
(552,481,cs),
(553,387,o),
(554,303,o),
(552,208,cs),
(550,111,o),
(474,42,o),
(368,42,cs),
(270,42,o),
(189,102,o),
(173,188,cs),
(171,197,o),
(170,327,o),
(170,503,cs),
(170,570,o),
(203,588,o),
(252,592,c),
(252,616,l),
(18,616,l),
(18,585,l),
(48,579,o),
(90,567,o),
(90,511,cs),
(90,486,o),
(90,367,o),
(90,202,cs),
(90,77,o),
(193,-11,o),
(339,-11,cs)
);
}
);
width = 684;
},
{
anchors = (
{
name = bottom;
pos = (369,0);
},
{
name = ogonek;
pos = (664,10);
},
{
name = top;
pos = (369,634);
},
{
name = topright;
pos = (718,634);
}
);
background = {
shapes = (
{
closed = 1;
nodes = (
(486,-11,o),
(592,78,o),
(594,204,cs),
(596,339,o),
(593,431,o),
(594,514,cs),
(595,578,o),
(618,588,o),
(666,588,c),
(666,616,l),
(468,616,l),
(468,592,l),
(519,582,o),
(551,553,o),
(552,481,cs),
(553,387,o),
(554,303,o),
(552,208,cs),
(550,111,o),
(474,42,o),
(368,42,cs),
(270,42,o),
(189,102,o),
(173,188,cs),
(171,197,o),
(170,327,o),
(170,503,cs),
(170,570,o),
(203,588,o),
(252,592,c),
(252,616,l),
(18,616,l),
(18,585,l),
(48,579,o),
(90,567,o),
(90,511,cs),
(90,486,o),
(90,367,o),
(90,202,cs),
(90,77,o),
(193,-11,o),
(339,-11,cs)
);
},
{
closed = 1;
nodes = (
(558,7,o),
(664,96,o),
(666,222,cs),
(668,357,o),
(665,449,o),
(666,532,cs),
(667,596,o),
(690,606,o),
(738,606,c),
(738,634,l),
(540,634,l),
(540,610,l),
(591,600,o),
(623,571,o),
(624,499,cs),
(625,405,o),
(626,321,o),
(624,226,cs),
(622,129,o),
(546,60,o),
(440,60,cs),
(342,60,o),
(261,120,o),
(245,206,cs),
(243,215,o),
(242,345,o),
(242,521,cs),
(242,588,o),
(275,606,o),
(324,610,c),
(324,634,l),
(90,634,l),
(90,603,l),
(120,597,o),
(162,585,o),
(162,529,cs),
(162,504,o),
(162,385,o),
(162,220,cs),
(162,95,o),
(265,7,o),
(411,7,cs)
);
}
);
};
color = 1;
layerId = m002;
shapes = (
{
closed = 1;
nodes = (
(533,-11,o),
(646,86,o),
(648,204,cs),
(650,357,o),
(647,449,o),
(648,532,cs),
(649,596,o),
(672,606,o),
(720,606,c),
(720,634,l),
(504,634,l),
(504,610,l),
(555,600,o),
(587,571,o),
(588,499,cs),
(589,387,o),
(589,256,o),
(588,208,cs),
(586,118,o),
(510,42,o),
(411,42,c),
(311,42,o),
(255,110,o),
(245,188,cs),
(241,216,o),
(242,344,o),
(242,521,cs),
(242,588,o),
(275,606,o),
(324,610,c),
(324,634,l),
(18,634,l),
(18,603,l),
(48,597,o),
(90,585,o),
(90,529,cs),
(90,504,o),
(87,385,o),
(90,202,cs),
(92,85,o),
(190,-11,o),
(375,-11,cs)
);
}
);
width = 738;
}
);
unicode = 85;
},
{
glyphname = V;
lastChange = "2025-03-07 19:00:22 +0000";
layers = (
{
anchors = (
{
name = bottom;
pos = (349,0);
},
{
name = top;
pos = (390,616);
}
);
color = 4;
layerId = m005;
shapes = (
{
closed = 1;
nodes = (
(351,-24,l),
(420,153,o),
(550,444,o),
(577,505,cs),
(604,566,o),
(640,579,o),
(702,588,c),
(702,616,l),
(452,616,l),
(452,593,l),
(503,586,o),
(538,573,o),
(538,543,cs),
(538,521,o),
(525,488,o),
(510,452,cs),
(349,70,l),
(378,93,l),
(319,227,o),
(221,480,o),
(214,496,cs),
(207,512,o),
(202,528,o),
(202,543,cs),
(202,558,o),
(202,582,o),
(288,591,c),
(288,616,l),
(0,616,l),
(0,588,l),
(48,580,o),
(94,571,o),
(128,489,cs),
(338,-24,l)
);
}
);
width = 702;
},
{
anchors = (
{
name = bottom;
pos = (360,0);
},
{
name = top;
pos = (360,634);
}
);
background = {
shapes = (
{
closed = 1;
nodes = (
(333,-24,l),
(402,153,o),
(532,444,o),
(559,505,cs),
(586,566,o),
(622,579,o),
(684,588,c),
(684,616,l),
(434,616,l),
(434,593,l),
(485,586,o),
(520,573,o),
(520,543,cs),
(520,521,o),
(507,488,o),
(492,452,cs),
(331,70,l),
(360,93,l),
(301,227,o),
(203,480,o),
(196,496,cs),
(189,512,o),
(184,528,o),
(184,543,cs),
(184,558,o),
(184,582,o),
(270,591,c),
(270,616,l),
(-18,616,l),
(-18,588,l),
(30,580,o),
(76,571,o),
(110,489,cs),
(320,-24,l)
);
},
{
closed = 1;
nodes = (
(405,-6,l),
(474,171,o),
(604,462,o),
(631,523,cs),
(658,584,o),
(694,597,o),
(756,606,c),
(756,634,l),
(506,634,l),
(506,611,l),
(557,604,o),
(592,591,o),
(592,561,cs),
(592,539,o),
(579,506,o),
(564,470,cs),
(403,88,l),
(432,111,l),
(373,245,o),
(275,498,o),
(268,514,cs),
(261,530,o),
(256,546,o),
(256,561,cs),
(256,576,o),
(256,600,o),
(342,609,c),
(342,634,l),
(54,634,l),
(54,606,l),
(102,598,o),
(148,589,o),
(182,507,cs),
(392,-6,l)
);
}
);
};
color = 4;
layerId = m002;
shapes = (
{
closed = 1;
nodes = (
(387,-24,l),
(456,153,o),
(586,462,o),
(613,523,cs),
(640,584,o),
(676,597,o),
(720,606,c),
(720,634,l),
(452,634,l),
(452,611,l),
(503,604,o),
(538,591,o),
(538,561,cs),
(538,539,o),
(525,506,o),
(510,470,cs),
(349,70,l),
(432,93,l),
(373,227,o),
(275,498,o),
(268,514,cs),
(261,530,o),
(256,546,o),
(256,561,cs),
(256,576,o),
(256,600,o),
(342,609,c),
(342,634,l),
(0,634,l),
(0,606,l),
(30,598,o),
(76,589,o),
(109,507,cs),
(320,-24,l)
);
}
);
width = 720;
}
);
unicode = 86;
},
{
glyphname = Vhook;
lastChange = "2025-03-07 19:00:32 +0000";
layers = (
{
anchors = (
{
name = bottom;
pos = (310,0);
},
{
name = top;
pos = (310,616);
}
);
background = {
shapes = (
{
closed = 1;
nodes = (
(368,42,l),
(255,42,o),
(191,89,o),
(173,186,cs),
(169,208,o),
(170,294,o),
(170,503,cs),
(170,570,o),
(203,588,o),
(252,592,c),
(252,616,l),
(18,616,l),
(18,585,l),
(48,579,o),
(90,567,o),
(90,511,cs),
(90,486,o),
(90,365,o),
(90,200,cs),
(90,58,o),
(172,-11,o),
(339,-11,c)
);
}
);
};
layerId = m005;
shapes = (
{
closed = 1;
nodes = (
(368,588,l),
(372,592,o),
(381,594,o),
(391,594,cs),
(446,594,o),
(485,471,o),
(485,297,c),
(576,332,l),
(576,504,o),
(511,626,o),
(418,626,cs),
(397,626,o),
(374,618,o),
(362,607,c)
);
},
{
closed = 1;
nodes = (
(485,297,l),
(482,141,o),
(425,30,o),
(332,30,cs),
(249,30,o),
(173,110,o),
(173,222,cs),
(173,244,o),
(170,294,o),
(170,503,cs),
(170,570,o),
(203,588,o),
(252,592,c),
(252,616,l),
(18,616,l),
(18,585,l),
(48,579,o),
(90,567,o),
(90,511,cs),
(90,486,o),
(90,401,o),
(90,236,cs),
(90,91,o),
(189,-11,o),
(303,-11,cs),
(471,-11,o),
(573,131,o),
(576,332,c)
);
}
);
width = 630;
},
{
anchors = (
{
name = bottom;
pos = (315,0);
},
{
name = top;
pos = (315,634);
}
);
background = {
shapes = (
{
closed = 1;
nodes = (
(368,42,l),
(255,42,o),
(191,89,o),
(173,186,cs),
(169,208,o),
(170,294,o),
(170,503,cs),
(170,570,o),
(203,588,o),
(252,592,c),
(252,616,l),
(18,616,l),
(18,585,l),
(48,579,o),
(90,567,o),
(90,511,cs),
(90,486,o),
(90,365,o),
(90,200,cs),
(90,58,o),
(172,-11,o),
(339,-11,c)
);
}
);
};
layerId = m002;
shapes = (
{
closed = 1;
nodes = (
(368,588,l),
(372,592,o),
(381,594,o),
(391,594,cs),
(446,594,o),
(485,471,o),
(485,297,c),
(576,332,l),
(576,504,o),
(511,626,o),
(418,626,cs),
(397,626,o),
(374,618,o),
(362,607,c)
);
},
{
closed = 1;
nodes = (
(485,297,l),
(482,141,o),
(425,30,o),
(332,30,cs),
(249,30,o),
(173,110,o),
(173,222,cs),
(173,244,o),
(170,294,o),
(170,503,cs),
(170,570,o),
(203,588,o),
(252,592,c),
(252,616,l),
(18,616,l),
(18,585,l),
(48,579,o),
(90,567,o),
(90,511,cs),
(90,486,o),
(90,401,o),
(90,236,cs),
(90,91,o),
(189,-11,o),
(303,-11,cs),
(471,-11,o),
(573,131,o),
(576,332,c)
);
}
);
width = 630;
}
);
unicode = 434;
},
{
glyphname = W;
lastChange = "2025-03-07 13:07:43 +0000";
layers = (
{
anchors = (
{
name = bottom;
pos = (468,0);
},
{
name = top;
pos = (468,616);
}
);
color = 4;
layerId = m005;
shapes = (
{
closed = 1;
nodes = (
(321,-24,l),
(363,108,o),
(463,321,o),
(505,438,c),
(482,487,l),
(312,75,l),
(344,98,l),
(194,496,ls),
(169,562,o),
(150,582,o),
(234,591,c),
(234,616,l),
(0,616,l),
(0,588,l),
(30,579,o),
(78,572,o),
(110,489,cs),
(308,-24,l)
);
},
{
closed = 1;
nodes = (
(639,-24,l),
(706,153,o),
(825,444,o),
(848,505,cs),
(871,566,o),
(871,576,o),
(936,588,c),
(936,616,l),
(738,616,l),
(738,591,l),
(822,570,o),
(818,533,o),
(785,452,cs),
(632,70,l),
(667,99,l),
(618,233,o),
(534,480,o),
(529,496,cs),
(505,572,o),
(507,582,o),
(574,591,c),
(574,616,l),
(340,616,l),
(340,591,l),
(386,584,o),
(418,572,o),
(447,489,cs),
(626,-24,l)
);
}
);
width = 936;
},
{
anchors = (
{
name = bottom;
pos = (513,0);
},
{
name = top;
pos = (513,634);
}
);
background = {
anchors = (
{
name = bottom;
pos = (531,18);
},
{
name = top;
pos = (531,634);
}
);
shapes = (
{
closed = 1;
nodes = (
(482,487,l),
(312,75,l),
(344,98,l),
(194,496,ls),
(169,562,o),
(150,582,o),
(234,591,c),
(234,616,l),
(0,616,l),
(0,588,l),
(30,579,o),
(78,572,o),
(110,489,cs),
(308,-24,l),
(321,-24,l),
(363,108,o),
(463,321,o),
(505,438,c)
);
},
{
closed = 1;
nodes = (
(639,-24,l),
(706,153,o),
(825,444,o),
(848,505,cs),
(871,566,o),
(871,576,o),
(936,588,c),
(936,616,l),
(738,616,l),
(738,591,l),
(822,570,o),
(818,533,o),
(785,452,cs),
(632,70,l),
(667,99,l),
(618,233,o),
(534,480,o),
(529,496,cs),
(505,572,o),
(507,582,o),
(574,591,c),
(574,616,l),
(340,616,l),
(340,591,l),
(386,584,o),
(418,572,o),
(447,489,cs),
(626,-24,l)
);
},
{
closed = 1;
nodes = (
(554,505,l),
(384,93,l),
(416,116,l),
(266,514,ls),
(241,580,o),
(222,600,o),
(306,609,c),
(306,634,l),
(72,634,l),
(72,606,l),
(102,597,o),
(150,590,o),
(182,507,cs),
(380,-6,l),
(393,-6,l),
(435,126,o),
(535,339,o),
(577,456,c)
);
},
{
closed = 1;
nodes = (
(711,-6,l),
(778,171,o),
(897,462,o),
(920,523,cs),
(943,584,o),
(943,594,o),
(1008,606,c),
(1008,634,l),
(810,634,l),
(810,609,l),
(894,588,o),
(890,551,o),
(857,470,cs),
(704,88,l),
(739,117,l),
(690,251,o),
(606,498,o),
(601,514,cs),
(577,590,o),
(579,600,o),
(646,609,c),
(646,634,l),
(412,634,l),
(412,609,l),
(458,602,o),
(490,590,o),
(519,507,cs),
(698,-6,l)
);
}
);
};
color = 4;
layerId = m002;
shapes = (
{
closed = 1;
nodes = (
(387,-24,l),
(436,101,o),
(515,293,o),
(567,416,c),
(513,477,l),
(349,70,l),
(432,93,l),
(268,514,l),
(249,558,o),
(252,594,o),
(306,609,c),
(306,634,l),
(0,634,l),
(0,606,l),
(30,598,o),
(76,589,o),
(109,507,cs),
(320,-24,l)
);
},
{
closed = 1;
nodes = (
(703,-24,l),
(772,153,o),
(902,462,o),
(929,523,cs),
(956,584,o),
(992,597,o),
(1026,606,c),
(1026,634,l),
(768,634,l),
(768,611,l),
(873,597,o),
(867,568,o),
(826,470,cs),
(665,70,l),
(748,93,l),
(689,227,o),
(609,498,o),
(602,514,cs),
(574,579,o),
(592,600,o),
(676,609,c),
(676,634,l),
(360,634,l),
(360,606,l),
(382,598,o),
(413,590,o),
(443,507,cs),
(636,-24,l)
);
}
);
width = 1026;
}
);
unicode = 87;
},
{
glyphname = X;
lastChange = "2025-03-07 19:00:42 +0000";
layers = (
{
anchors = (
{
name = bottom;
pos = (315,0);
},
{
name = top;
pos = (340,616);
}
);
color = 4;
guides = (
{
angle = 53;
pos = (574,661);
}
);
layerId = m005;
shapes = (
{
closed = 1;
nodes = (
(612,0,l),
(612,28,l),
(571,33,o),
(567,26,o),
(505,114,cs),
(338,351,o),
(342,351,o),
(222,512,cs),
(201,541,o),
(194,555,o),
(194,566,cs),
(194,581,o),
(209,586,o),
(260,591,c),
(260,616,l),
(18,616,l),
(18,588,l),
(52,588,o),
(68,587,o),
(133,494,cs),
(279,286,o),
(285,286,o),
(410,105,cs),
(430,76,o),
(441,58,o),
(441,47,cs),
(441,30,o),
(417,29,o),
(354,25,c),
(354,0,l)
);
},
{
closed = 1;
nodes = (
(216,0,l),
(216,25,l),
(184,28,o),
(162,32,o),
(162,54,cs),
(162,67,o),
(168,80,o),
(191,112,cs),
(329,308,l),
(295,333,l),
(125,101,ls),
(63,17,o),
(49,30,o),
(18,28,c),
(18,0,l)
);
},
{
closed = 1;
nodes = (
(488,504,ls),
(549,582,o),
(574,585,o),
(612,588,c),
(612,616,l),
(414,616,l),
(414,591,l),
(441,588,o),
(459,586,o),
(459,567,cs),
(459,550,o),
(442,517,o),
(400,463,cs),
(305,340,l),
(340,315,l)
);
}
);
width = 630;
},
{
anchors = (
{
name = bottom;
pos = (333,0);
},
{
name = top;
pos = (333,634);
}
);
background = {
shapes = (
{
closed = 1;
nodes = (
(594,0,l),
(594,28,l),
(553,33,o),
(549,26,o),
(487,114,cs),
(320,351,o),
(324,351,o),
(204,512,cs),
(183,541,o),
(176,555,o),
(176,566,cs),
(176,581,o),
(191,586,o),
(242,591,c),
(242,616,l),
(0,616,l),
(0,588,l),
(34,588,o),
(50,587,o),
(115,494,cs),
(261,286,o),
(267,286,o),
(392,105,cs),
(412,76,o),
(423,58,o),
(423,47,cs),
(423,30,o),
(399,29,o),
(336,25,c),
(336,0,l)
);
},
{
closed = 1;
nodes = (
(198,0,l),
(198,25,l),
(166,28,o),
(144,32,o),
(144,54,cs),
(144,67,o),
(150,80,o),
(173,112,cs),
(311,308,l),
(277,333,l),
(107,101,ls),
(45,17,o),
(31,30,o),
(0,28,c),
(0,0,l)
);
},
{
closed = 1;
nodes = (
(470,504,ls),
(531,582,o),
(556,585,o),
(594,588,c),
(594,616,l),
(396,616,l),
(396,591,l),
(423,588,o),
(441,586,o),
(441,567,cs),
(441,550,o),
(424,517,o),
(382,463,cs),
(287,340,l),
(322,315,l)
);
},
{
closed = 1;
nodes = (
(666,18,l),
(666,46,l),
(625,51,o),
(621,44,o),
(559,132,cs),
(392,369,o),
(396,369,o),
(276,530,cs),
(255,559,o),
(248,573,o),
(248,584,cs),
(248,599,o),
(263,604,o),
(314,609,c),
(314,634,l),
(72,634,l),
(72,606,l),
(106,606,o),
(122,605,o),
(187,512,cs),
(333,304,o),
(339,304,o),
(464,123,cs),
(484,94,o),
(495,76,o),
(495,65,cs),
(495,48,o),
(471,47,o),
(408,43,c),
(408,18,l)
);
},
{
closed = 1;
nodes = (
(270,18,l),
(270,43,l),
(238,46,o),
(216,50,o),
(216,72,cs),
(216,85,o),
(222,98,o),
(245,130,cs),
(383,326,l),
(349,351,l),
(179,119,ls),
(117,35,o),
(103,48,o),
(72,46,c),
(72,18,l)
);
},
{
closed = 1;
nodes = (
(542,522,ls),
(603,600,o),
(628,603,o),
(666,606,c),
(666,634,l),
(468,634,l),
(468,609,l),
(495,606,o),
(513,604,o),
(513,585,cs),
(513,568,o),
(496,535,o),
(454,481,cs),
(359,358,l),
(394,333,l)
);
}
);
};
color = 4;
guides = (
{
angle = 53;
pos = (556,661);
}
);
layerId = m002;
shapes = (
{
closed = 1;
nodes = (
(666,0,l),
(666,28,l),
(625,33,o),
(621,25,o),
(559,114,cs),
(392,355,o),
(396,351,o),
(275,529,cs),
(255,558,o),
(248,573,o),
(248,584,cs),
(248,599,o),
(263,604,o),
(314,609,c),
(314,634,l),
(0,634,l),
(0,606,l),
(34,606,o),
(51,603,o),
(113,510,cs),
(261,290,o),
(267,290,o),
(392,105,cs),
(412,76,o),
(423,58,o),
(423,47,cs),
(423,30,o),
(399,29,o),
(336,25,c),
(336,0,l)
);
},
{
closed = 1;
nodes = (
(229,0,l),
(229,25,l),
(197,28,o),
(175,32,o),
(175,54,cs),
(175,67,o),
(181,79,o),
(204,112,cs),
(342,312,l),
(277,337,l),
(107,101,ls),
(46,16,o),
(31,30,o),
(0,28,c),
(0,0,l)
);
},
{
closed = 1;
nodes = (
(503,520,ls),
(562,600,o),
(587,603,o),
(625,606,c),
(625,634,l),
(396,634,l),
(396,609,l),
(423,606,o),
(445,604,o),
(445,585,cs),
(445,568,o),
(424,533,o),
(385,479,cs),
(287,344,l),
(353,319,l)
);
}
);
width = 666;
}
);
unicode = 88;
},
{
glyphname = Y;
lastChange = "2025-03-07 19:00:48 +0000";
layers = (
{
anchors = (
{
name = bottom;
pos = (270,0);
},
{
name = top;
pos = (281,616);
},
{
name = topleft;
pos = (20,616);
}
);
color = 4;
layerId = m005;
shapes = (
{
closed = 1;
nodes = (
(429,0,l),
(429,28,l),
(358,33,o),
(313,30,o),
(313,93,cs),
(313,318,l),
(299,257,l),
(445,509,ls),
(491,588,o),
(527,588,o),
(540,588,c),
(540,616,l),
(342,616,l),
(342,591,l),
(414,581,o),
(429,565,o),
(397,505,c),
(281,306,l),
(295,307,l),
(176,525,l),
(147,586,o),
(148,585,o),
(216,591,c),
(216,616,l),
(0,616,l),
(0,588,l),
(35,588,o),
(56,581,o),
(69,556,cs),
(238,243,l),
(232,293,l),
(232,93,ls),
(232,38,o),
(169,33,o),
(123,28,c),
(123,0,l)
);
}
);
width = 540;
},
{
anchors = (
{
name = bottom;
pos = (306,0);
},
{
name = top;
pos = (306,634);
},
{
name = topleft;
pos = (20,634);
}
);
background = {
shapes = (
{
closed = 1;
nodes = (
(429,0,l),
(429,28,l),
(358,33,o),
(313,30,o),
(313,93,cs),
(313,318,l),
(299,257,l),
(445,509,ls),
(491,588,o),
(527,588,o),
(540,588,c),
(540,616,l),
(342,616,l),
(342,591,l),
(414,581,o),
(429,565,o),
(397,505,c),
(281,306,l),
(295,307,l),
(176,525,l),
(147,586,o),
(148,585,o),
(216,591,c),
(216,616,l),
(0,616,l),
(0,588,l),
(35,588,o),
(56,581,o),
(69,556,cs),
(238,243,l),
(232,293,l),
(232,93,ls),
(232,38,o),
(169,33,o),
(123,28,c),
(123,0,l)
);
},
{
closed = 1;
nodes = (
(501,18,l),
(501,46,l),
(430,51,o),
(385,48,o),
(385,111,cs),
(385,336,l),
(371,275,l),
(517,527,ls),
(563,606,o),
(599,606,o),
(612,606,c),
(612,634,l),
(414,634,l),
(414,609,l),
(486,599,o),
(501,583,o),
(469,523,c),
(353,324,l),
(367,325,l),
(248,543,l),
(219,604,o),
(220,603,o),
(288,609,c),
(288,634,l),
(72,634,l),
(72,606,l),
(107,606,o),
(128,599,o),
(141,574,cs),
(310,261,l),
(304,311,l),
(304,111,ls),
(304,56,o),
(241,51,o),
(195,46,c),
(195,18,l)
);
}
);
};
color = 4;
layerId = m002;
shapes = (
{
closed = 1;
nodes = (
(501,0,l),
(501,28,l),
(430,33,o),
(385,30,o),
(385,93,cs),
(385,318,l),
(371,257,l),
(519,526,ls),
(563,606,o),
(599,606,o),
(612,606,c),
(612,634,l),
(379,634,l),
(379,609,l),
(451,599,o),
(466,583,o),
(434,523,c),
(318,306,l),
(367,307,l),
(248,543,l),
(219,604,o),
(220,603,o),
(288,609,c),
(288,634,l),
(0,634,l),
(0,606,l),
(35,606,o),
(56,599,o),
(69,574,cs),
(238,261,l),
(232,311,l),
(232,93,ls),
(232,38,o),
(169,33,o),
(123,28,c),
(123,0,l)
);
}
);
width = 612;
}
);
unicode = 89;
},
{
glyphname = Z;
lastChange = "2025-03-07 19:00:59 +0000";
layers = (
{
anchors = (
{
name = bottom;
pos = (324,0);
},
{
name = center;
pos = (324,308);
},
{
name = top;
pos = (323,615);
}
);
color = 4;
layerId = m005;
shapes = (
{
closed = 1;
nodes = (
(171,0,o),
(366,1,o),
(395,1,cs),
(425,1,o),
(495,1,o),
(536,-2,c),
(562,57,o),
(584,143,o),
(594,210,c),
(560,210,l),
(549,154,o),
(506,43,o),
(359,41,cs),
(146,38,l),
(151,24,l),
(566,594,l),
(554,621,l),
(477,616,o),
(323,615,o),
(275,615,cs),
(217,615,o),
(117,611,o),
(76,617,c),
(67,554,o),
(61,490,o),
(60,427,c),
(88,427,l),
(98,479,o),
(87,576,o),
(222,576,cs),
(297,576,o),
(413,574,o),
(471,572,c),
(461,596,l),
(36,12,l),
(44,0,l)
);
}
);
width = 648;
},
{
anchors = (
{
name = bottom;
pos = (360,0);
},
{
name = center;
pos = (360,317);
},
{
name = top;
pos = (360,634);
}
);
background = {
shapes = (
{
closed = 1;
nodes = (
(171,0,o),
(366,1,o),
(395,1,cs),
(425,1,o),
(495,1,o),
(536,-2,c),
(562,57,o),
(584,143,o),
(594,210,c),
(560,210,l),
(549,154,o),
(506,43,o),
(359,41,cs),
(146,38,l),
(151,24,l),
(566,594,l),
(554,621,l),
(477,616,o),
(323,615,o),
(275,615,cs),
(217,615,o),
(117,611,o),
(76,617,c),
(67,554,o),
(61,490,o),
(60,427,c),
(88,427,l),
(98,479,o),
(87,576,o),
(222,576,cs),
(297,576,o),
(413,574,o),
(471,572,c),
(461,596,l),
(36,12,l),
(44,0,l)
);
},
{
closed = 1;
nodes = (
(243,18,o),
(438,19,o),
(467,19,cs),
(497,19,o),
(567,19,o),
(608,16,c),
(634,75,o),
(656,161,o),
(666,228,c),
(632,228,l),
(621,172,o),
(578,61,o),
(431,59,cs),
(218,56,l),
(223,42,l),
(638,612,l),
(626,639,l),
(549,634,o),
(395,633,o),
(347,633,cs),
(289,633,o),
(189,629,o),
(148,635,c),
(139,572,o),
(133,508,o),
(132,445,c),
(160,445,l),
(170,497,o),
(159,594,o),
(294,594,cs),
(369,594,o),
(485,592,o),
(543,590,c),
(533,614,l),
(108,30,l),
(116,18,l)
);
}
);
};
color = 4;
layerId = m002;
shapes = (
{
closed = 1;
nodes = (
(171,0,o),
(438,1,o),
(467,1,cs),
(497,1,o),
(567,1,o),
(608,-2,c),
(634,57,o),
(656,161,o),
(666,228,c),
(614,228,l),
(603,172,o),
(560,43,o),
(413,41,cs),
(200,38,l),
(223,24,l),
(638,612,l),
(626,639,l),
(549,634,o),
(395,633,o),
(275,633,cs),
(217,633,o),
(117,629,o),
(58,635,c),
(67,572,o),
(61,490,o),
(60,445,c),
(106,445,l),
(116,479,o),
(105,594,o),
(240,594,cs),
(315,594,o),
(431,592,o),
(489,590,c),
(461,614,l),
(36,12,l),
(44,0,l)
);
}
);
width = 720;
}
);
unicode = 90;
},
{
glyphname = a;
lastChange = "2025-03-07 19:01:17 +0000";
layers = (
{
anchors = (
{
name = bottom;
pos = (198,0);
},
{
name = ogonek;
pos = (356,10);
},
{
name = top;
pos = (215,385);
}
);
background = {
shapes = (
{
closed = 1;
nodes = (
(47,0,o),
(75,-11,o),
(122,-11,cs),
(170,-11,o),
(201,1,o),
(245,37,c,{
"Letterink-NibData" = {
AngleInDegrees = "360";
};
}),
(244,38,ls,{
"Letterink-NibData" = {
AngleInDegrees = "0";
};
}),
(268,17,o),
(285,7,o),
(315,-3,c,{
"Letterink-NibData" = {
AngleInDegrees = "360";
};
}),
(389,40,l,{
"Letterink-NibData" = {
AngleInDegrees = "0";
};
}),
(352,52,o),
(336,60,o),
(313,80,c),
(313,344,l,{
"Letterink-NibData" = {
AngleInDegrees = "0";
};
}),
(263,384,o),
(236,395,o),
(188,395,cs),
(139,395,o),
(110,384,o),
(62,345,c,{
"Letterink-NibData" = {
AngleInDegrees = "360";
};
}),
(65,340,l,{
"Letterink-NibData" = {
AngleInDegrees = "0";
};
}),
(92,347,o),
(104,349,o),
(122,349,cs),
(168,349,o),
(200,337,o),
(241,304,c),
(241,184,l),
(241,185,l,{
"Letterink-NibData" = {
AngleInDegrees = "360";
};
}),
(-4,44,l,{
"Letterink-NibData" = {
AngleInDegrees = "0";
};
}),
(-1,38,l,{
"Letterink-NibData" = {
AngleInDegrees = "0";
};
})
);
},
{
closed = 1;
nodes = (
(241,176,l),
(241,42,l),
(241,43,l,{
"Letterink-NibData" = {
AngleInDegrees = "0";
};
}),
(217,37,o),
(206,35,o),
(188,35,cs),
(143,35,o),
(110,47,o),
(71,78,c,{
"Letterink-NibData" = {
AngleInDegrees = "0";
};
})
);
},
{
closed = 1;
nodes = (
(318,0,l),
(368,18,l),
(329,32,o),
(313,37,o),
(313,68,cs),
(313,273,ls),
(313,355,o),
(279,395,o),
(209,395,cs),
(159,395,o),
(102,365,o),
(36,305,c),
(36,286,l),
(96,329,o),
(129,335,o),
(164,335,cs),
(216,335,o),
(241,306,o),
(241,246,cs),
(241,68,ls),
(241,38,o),
(224,32,o),
(185,18,c),
(135,0,l)
);
},
{
closed = 1;
nodes = (
(-24,386,l),
(-24,368,l),
(15,354,o),
(31,349,o),
(31,318,cs),
(31,83,ls),
(31,1,o),
(65,-9,o),
(135,-9,cs),
(185,-9,o),
(242,21,o),
(308,81,c),
(308,100,l),
(248,57,o),
(215,51,o),
(180,51,cs),
(128,51,o),
(103,50,o),
(103,110,cs),
(103,318,ls),
(103,348,o),
(120,354,o),
(159,368,c),
(159,386,l)
);
},
{
closed = 1;
nodes = (
(186,386,l),
(186,368,l),
(218,356,o),
(241,335,o),
(241,318,cs),
(241,113,ls),
(241,42,o),
(259,-9,o),
(285,-9,cs),
(307,-9,o),
(346,12,o),
(378,41,c),
(378,60,l),
(371,55,o),
(347,51,o),
(320,51,cs),
(316,51,o),
(313,88,o),
(313,140,cs),
(313,318,ls),
(313,335,o),
(336,356,o),
(369,368,c),
(369,386,l)
);
}
);
};
color = 3;
guides = (
{
angle = 11.5;
pos = (222,308);
}
);
layerId = m005;
shapes = (
{
closed = 1;
nodes = (
(326,-6,o),
(359,8,o),
(398,27,c),
(396,40,l),
(364,41,ls),
(339,42,o),
(321,60,o),
(321,84,cs),
(321,51,o),
(323,133,o),
(325,290,c),
(325,351,o),
(282,395,o),
(215,395,cs),
(186,395,o),
(143,378,o),
(104,354,cs),
(72,332,o),
(50,295,o),
(50,264,cs),
(50,233,o),
(122,247,o),
(122,278,cs),
(122,294,o),
(115,290,o),
(115,305,cs),
(115,332,o),
(141,351,o),
(169,351,cs),
(219,351,o),
(255,324,o),
(253,284,cs),
(250,218,l),
(249,205,o),
(249,138,o),
(249,57,cs),
(253,20,o),
(281,-6,o),
(317,-6,cs)
);
},
{
closed = 1;
nodes = (
(165,-6,o),
(230,24,o),
(270,66,c),
(270,85,l),
(239,61,o),
(191,44,o),
(163,44,cs),
(134,44,o),
(115,71,o),
(115,110,c),
(36,94,l),
(36,35,o),
(67,-6,o),
(119,-6,cs)
);
},
{
closed = 1;
nodes = (
(115,110,l),
(115,131,o),
(186,158,o),
(281,175,c),
(282,206,l),
(140,183,o),
(36,137,o),
(36,94,c)
);
}
);
width = 396;
},
{
anchors = (
{
name = bottom;
pos = (252,0);
},
{
name = ogonek;
pos = (454,10);
},
{
name = top;
pos = (252,399);
}
);
background = {
shapes = (
{
closed = 1;
nodes = (
(352,-6,o),
(385,8,o),
(424,27,c),
(386,40,l),
(354,41,ls),
(329,42,o),
(311,60,o),
(311,84,cs),
(311,51,o),
(331,133,o),
(333,290,c),
(333,351,o),
(290,395,o),
(223,395,cs),
(194,395,o),
(133,378,o),
(94,354,cs),
(62,332,o),
(40,295,o),
(40,264,cs),
(40,233,o),
(148,247,o),
(148,278,cs),
(148,294,o),
(141,290,o),
(141,305,cs),
(141,332,o),
(131,351,o),
(159,351,cs),
(209,351,o),
(281,324,o),
(279,284,cs),
(276,218,l),
(275,205,o),
(275,138,o),
(275,57,cs),
(279,20,o),
(307,-6,o),
(343,-6,cs)
);
},
{
closed = 1;
nodes = (
(155,-6,o),
(256,24,o),
(296,66,c),
(296,85,l),
(265,61,o),
(181,44,o),
(153,44,cs),
(124,44,o),
(105,71,o),
(105,110,c),
(26,94,l),
(26,35,o),
(57,-6,o),
(109,-6,cs)
);
},
{
closed = 1;
nodes = (
(105,110,l),
(105,131,o),
(194,158,o),
(289,175,c),
(272,206,l),
(130,183,o),
(26,137,o),
(26,94,c)
);
},
{
closed = 1;
nodes = (
(388,12,o),
(421,26,o),
(460,45,c),
(458,58,l),
(426,59,ls),
(401,60,o),
(383,78,o),
(383,102,cs),
(383,69,o),
(385,151,o),
(387,308,c),
(387,369,o),
(344,413,o),
(277,413,cs),
(248,413,o),
(205,396,o),
(166,372,cs),
(134,350,o),
(112,313,o),
(112,282,cs),
(112,251,o),
(184,265,o),
(184,296,cs),
(184,312,o),
(177,308,o),
(177,323,cs),
(177,350,o),
(203,369,o),
(231,369,cs),
(281,369,o),
(317,342,o),
(315,302,cs),
(312,236,l),
(311,223,o),
(311,156,o),
(311,75,cs),
(315,38,o),
(343,12,o),
(379,12,cs)
);
},
{
closed = 1;
nodes = (
(227,12,o),
(292,42,o),
(332,84,c),
(332,103,l),
(301,79,o),
(253,62,o),
(225,62,cs),
(196,62,o),
(177,89,o),
(177,128,c),
(98,112,l),
(98,53,o),
(129,12,o),
(181,12,cs)
);
},
{
closed = 1;
nodes = (
(177,128,l),
(177,149,o),
(248,176,o),
(343,193,c),
(344,224,l),
(202,201,o),
(98,155,o),
(98,112,c)
);
}
);
};
color = 3;
guides = (
{
angle = 11.5;
pos = (212,308);
}
);
layerId = m002;
shapes = (
{
closed = 1;
nodes = (
(390,-6,o),
(453,15,o),
(514,45,c),
(512,58,l),
(480,59,ls),
(455,60,o),
(437,78,o),
(437,102,cs),
(437,-3,o),
(439,74,o),
(441,290,c),
(441,362,o),
(381,413,o),
(295,413,cs),
(232,413,o),
(148,389,o),
(94,354,cs),
(62,332,o),
(40,295,o),
(40,264,cs),
(40,197,o),
(166,229,o),
(166,296,cs),
(166,312,o),
(159,308,o),
(159,323,cs),
(159,350,o),
(181,369,o),
(213,369,cs),
(265,369,o),
(300,334,o),
(297,284,cs),
(294,236,l),
(293,233,o),
(293,159,o),
(293,57,cs),
(297,20,o),
(325,-6,o),
(361,-6,cs)
);
},
{
closed = 1;
nodes = (
(200,-6,o),
(300,31,o),
(350,84,c),
(350,103,l),
(319,79,o),
(267,62,o),
(225,62,cs),
(197,62,o),
(177,89,o),
(177,128,c),
(26,112,l),
(26,43,o),
(60,-6,o),
(109,-6,cs)
);
},
{
closed = 1;
nodes = (
(177,128,l),
(177,156,o),
(238,187,o),
(325,203,c),
(326,234,l),
(150,205,o),
(26,155,o),
(26,112,c)
);
}
);
width = 504;
}
);
note = a;
unicode = 97;
},
{
glyphname = ae;
lastChange = "2025-03-07 13:07:43 +0000";
layers = (
{
anchors = (
{
name = bottom;
pos = (297,0);
},
{
name = top;
pos = (297,384);
}
);
color = 10;
layerId = m005;
shapes = (
{
closed = 1;
nodes = (
(308,214,l),
(308,181,o),
(310,133,o),
(312,290,c),
(312,351,o),
(282,395,o),
(221,395,cs),
(192,395,o),
(143,378,o),
(104,354,cs),
(72,332,o),
(50,295,o),
(50,264,cs),
(50,233,o),
(122,247,o),
(122,278,cs),
(122,294,o),
(113,292,o),
(113,307,cs),
(113,334,o),
(136,353,o),
(169,353,cs),
(223,353,o),
(255,324,o),
(253,284,cs),
(250,218,l),
(249,205,o),
(249,258,o),
(249,177,c)
);
},
{
closed = 1;
nodes = (
(166,-6,o),
(229,9,o),
(290,70,c),
(269,90,l),
(238,66,o),
(192,44,o),
(164,44,cs),
(135,44,o),
(114,71,o),
(114,110,c),
(35,94,l),
(35,35,o),
(71,-6,o),
(123,-6,cs)
);
},
{
closed = 1;
nodes = (
(115,110,l),
(115,131,o),
(186,158,o),
(281,175,c),
(282,211,l),
(140,188,o),
(36,137,o),
(36,94,c)
);
},
{
closed = 1;
nodes = (
(310,302,o),
(352,362,o),
(412,362,cs),
(457,362,o),
(491,325,o),
(494,266,c),
(287,260,l),
(283,231,l),
(563,225,l),
(575,239,l),
(575,330,o),
(513,395,o),
(426,395,cs),
(314,395,o),
(249,309,o),
(249,188,cs),
(249,71,o),
(306,-11,o),
(407,-11,cs),
(469,-11,o),
(538,33,o),
(573,95,c),
(555,108,l),
(532,75,o),
(480,52,o),
(428,52,cs),
(359,52,o),
(310,117,o),
(310,210,cs)
);
}
);
width = 594;
},
{
anchors = (
{
name = bottom;
pos = (297,0);
},
{
name = top;
pos = (297,399);
}
);
color = 10;
layerId = m002;
shapes = (
{
closed = 1;
nodes = (
(308,214,l),
(308,181,o),
(310,133,o),
(312,290,c),
(312,351,o),
(282,395,o),
(221,395,cs),
(192,395,o),
(143,378,o),
(104,354,cs),
(72,332,o),
(50,295,o),
(50,264,cs),
(50,233,o),
(122,247,o),
(122,278,cs),
(122,294,o),
(113,292,o),
(113,307,cs),
(113,334,o),
(136,353,o),
(169,353,cs),
(223,353,o),
(255,324,o),
(253,284,cs),
(250,218,l),
(249,205,o),
(249,258,o),
(249,177,c)
);
},
{
closed = 1;
nodes = (
(166,-6,o),
(229,9,o),
(290,70,c),
(269,90,l),
(238,66,o),
(192,44,o),
(164,44,cs),
(135,44,o),
(114,71,o),
(114,110,c),
(35,94,l),
(35,35,o),
(71,-6,o),
(123,-6,cs)
);
},
{
closed = 1;
nodes = (
(115,110,l),
(115,131,o),
(186,158,o),
(281,175,c),
(282,211,l),
(140,188,o),
(36,137,o),
(36,94,c)
);
},
{
closed = 1;
nodes = (
(310,302,o),
(352,362,o),
(412,362,cs),
(457,362,o),
(491,325,o),
(494,266,c),
(287,260,l),
(283,231,l),
(563,225,l),
(575,239,l),
(575,330,o),
(513,395,o),
(426,395,cs),
(314,395,o),
(249,309,o),
(249,188,cs),
(249,71,o),
(306,-11,o),
(407,-11,cs),
(469,-11,o),
(538,33,o),
(573,95,c),
(555,108,l),
(532,75,o),
(480,52,o),
(428,52,cs),
(359,52,o),
(310,117,o),
(310,210,cs)
);
}
);
width = 594;
}
);
unicode = 230;
},
{
glyphname = b;
lastChange = "2025-03-07 19:01:59 +0000";
layers = (
{
anchors = (
{
name = bottom;
pos = (236,0);
},
{
name = center;
pos = (116,555);
},
{
name = top;
pos = (275,384);
}
);
background = {
shapes = (
{
closed = 1;
nodes = (
(122,1,o),
(151,-11,o),
(199,-11,cs),
(246,-11,o),
(278,1,o),
(322,36,c,{
"Letterink-NibData" = {
AngleInDegrees = "0";
};
}),
(404,68,o),
(448,128,o),
(448,210,cs),
(448,310,o),
(364,395,o),
(265,395,cs),
(218,395,o),
(187,383,o),
(145,350,c),
(145,664,l,{
"Letterink-NibData" = {
AngleInDegrees = "359.99999";
};
}),
(119,687,o),
(103,697,o),
(72,707,c,{
"Letterink-NibData" = {
AngleInDegrees = "359.99999";
};
}),
(-2,664,l,{
"Letterink-NibData" = {
AngleInDegrees = "0";
};
}),
(35,652,o),
(50,644,o),
(73,624,c),
(73,40,l,{
"Letterink-NibData" = {
AngleInDegrees = "360";
};
})
);
},
{
closed = 1;
nodes = (
(169,347,o),
(181,349,o),
(199,349,cs),
(299,349,o),
(376,273,o),
(376,174,cs),
(376,125,o),
(357,82,o),
(318,43,c,{
"Letterink-NibData" = {
AngleInDegrees = "0";
};
}),
(294,37,o),
(282,35,o),
(265,35,cs),
(218,35,o),
(187,47,o),
(145,80,c),
(145,342,l,{
"Letterink-NibData" = {
AngleInDegrees = "360";
};
}),
(146,341,l,{
"Letterink-NibData" = {
AngleInDegrees = "0";
};
})
);
}
);
};
color = 2;
layerId = m005;
shapes = (
{
closed = 1;
nodes = (
(146,551,l),
(149,658,l),
(134,668,l),
(2,637,l),
(2,616,l),
(43,601,o),
(72,578,o),
(72,560,cs),
(72,255,o),
(72,40,o),
(72,40,c),
(144,24,l)
);
},
{
closed = 1;
nodes = (
(376,188,l),
(375,96,o),
(318,26,o),
(239,26,cs),
(189,26,o),
(142,67,o),
(118,125,c),
(72,40,l),
(109,10,o),
(166,-11,o),
(218,-11,cs),
(354,-11,o),
(450,88,o),
(450,221,c)
);
},
{
closed = 1;
nodes = (
(450,221,l),
(450,326,o),
(377,395,o),
(275,395,cs),
(222,395,o),
(157,360,o),
(108,310,c),
(108,291,l),
(138,317,o),
(185,335,o),
(230,335,cs),
(316,335,o),
(376,277,o),
(376,188,c)
);
}
);
width = 486;
},
{
anchors = (
{
name = bottom;
pos = (279,0);
},
{
name = center;
pos = (140,555);
},
{
name = top;
pos = (279,399);
}
);
background = {
shapes = (
{
closed = 1;
nodes = (
(128,551,l),
(131,658,l),
(116,668,l),
(-16,637,l),
(-16,616,l),
(25,601,o),
(54,578,o),
(54,560,cs),
(54,255,o),
(54,40,o),
(54,40,c),
(126,24,l)
);
},
{
closed = 1;
nodes = (
(394,188,l),
(393,96,o),
(336,26,o),
(257,26,cs),
(207,26,o),
(160,67,o),
(136,125,c),
(90,40,l),
(127,10,o),
(184,-11,o),
(236,-11,cs),
(372,-11,o),
(468,88,o),
(468,221,c)
);
},
{
closed = 1;
nodes = (
(468,221,l),
(468,326,o),
(395,395,o),
(293,395,cs),
(240,395,o),
(175,360,o),
(126,310,c),
(126,291,l),
(156,317,o),
(203,335,o),
(248,335,cs),
(334,335,o),
(394,277,o),
(394,188,c)
);
},
{
closed = 1;
nodes = (
(200,569,l),
(203,676,l),
(188,686,l),
(56,655,l),
(56,634,l),
(97,619,o),
(126,596,o),
(126,578,cs),
(126,273,o),
(126,58,o),
(126,58,c),
(198,42,l)
);
},
{
closed = 1;
nodes = (
(466,206,l),
(465,114,o),
(408,44,o),
(329,44,cs),
(279,44,o),
(232,85,o),
(208,143,c),
(162,58,l),
(199,28,o),
(256,7,o),
(308,7,cs),
(444,7,o),
(540,106,o),
(540,239,c)
);
},
{
closed = 1;
nodes = (
(540,239,l),
(540,344,o),
(467,413,o),
(365,413,cs),
(312,413,o),
(247,378,o),
(198,328,c),
(198,309,l),
(228,335,o),
(275,353,o),
(320,353,cs),
(406,353,o),
(466,295,o),
(466,206,c)
);
}
);
};
color = 2;
layerId = m002;
shapes = (
{
closed = 1;
nodes = (
(200,569,l),
(203,676,l),
(188,686,l),
(-16,637,l),
(-16,616,l),
(25,601,o),
(54,578,o),
(54,560,cs),
(54,255,o),
(54,40,o),
(54,40,c),
(198,42,l)
);
},
{
closed = 1;
nodes = (
(394,188,l),
(393,93,o),
(351,26,o),
(293,26,cs),
(246,26,o),
(196,67,o),
(172,125,c),
(54,40,l),
(91,10,o),
(182,-11,o),
(272,-11,cs),
(429,-11,o),
(540,93,o),
(540,239,c)
);
},
{
closed = 1;
nodes = (
(540,239,l),
(540,341,o),
(467,413,o),
(365,413,cs),
(284,413,o),
(185,370,o),
(126,310,c),
(126,291,l),
(155,317,o),
(205,335,o),
(248,335,cs),
(334,335,o),
(394,274,o),
(394,188,c)
);
}
);
width = 558;
}
);
note = b;
unicode = 98;
},
{
glyphname = c;
lastChange = "2025-03-07 19:02:13 +0000";
layers = (
{
anchors = (
{
name = bottom;
pos = (216,0);
},
{
name = top;
pos = (219,384);
}
);
background = {
shapes = (
{
closed = 1;
nodes = (
(111,302,o),
(155,362,o),
(215,362,cs),
(260,362,o),
(294,325,o),
(297,266,c),
(88,260,l),
(84,231,l),
(366,225,l),
(378,239,l),
(378,330,o),
(316,395,o),
(229,395,cs),
(117,395,o),
(36,309,o),
(36,188,cs),
(36,71,o),
(109,-11,o),
(210,-11,cs),
(272,-11,o),
(341,33,o),
(376,95,c),
(358,108,l),
(335,75,o),
(283,52,o),
(231,52,cs),
(162,52,o),
(111,117,o),
(111,210,cs)
);
}
);
};
color = 4;
layerId = m005;
shapes = (
{
closed = 1;
nodes = (
(111,302,o),
(153,367,o),
(213,367,c),
(227,395,l),
(115,395,o),
(36,309,o),
(36,188,cs),
(36,71,o),
(111,-11,o),
(216,-11,cs),
(287,-11,o),
(362,36,o),
(396,103,c),
(378,116,l),
(350,79,o),
(291,52,o),
(237,52,cs),
(163,52,o),
(111,117,o),
(111,210,cs)
);
},
{
closed = 1;
nodes = (
(213,367,l),
(276,367,o),
(321,315,o),
(323,247,c),
(357,247,l),
(355,296,o),
(356,349,o),
(360,371,c),
(307,382,o),
(279,395,o),
(227,395,c)
);
}
);
width = 396;
},
{
anchors = (
{
name = bottom;
pos = (216,0);
},
{
name = top;
pos = (216,399);
}
);
background = {
shapes = (
{
closed = 1;
nodes = (
(268,386,l),
(321,386,o),
(347,344,o),
(331,285,c),
(393,285,l),
(392,339,o),
(411,384,o),
(414,394,c),
(386,406,o),
(327,414,o),
(268,414,c)
);
},
{
closed = 1;
nodes = (
(270,236,l),
(315,236,o),
(365,189,o),
(352,133,c),
(411,133,l),
(409,176,o),
(410,210,o),
(432,245,c),
(390,248,o),
(369,256,o),
(342,262,cs),
(322,266,o),
(300,269,o),
(270,269,c)
);
}
);
};
color = 4;
layerId = m002;
shapes = (
{
closed = 1;
nodes = (
(165,310,o),
(190,380,o),
(268,380,c),
(270,413,l),
(123,413,o),
(18,321,o),
(18,190,cs),
(18,72,o),
(114,-11,o),
(250,-11,cs),
(325,-11,o),
(389,40,o),
(430,113,c),
(412,126,l),
(382,83,o),
(333,52,o),
(270,52,cs),
(209,52,o),
(165,117,o),
(165,210,cs)
);
},
{
closed = 1;
nodes = (
(268,380,l),
(321,380,o),
(347,308,o),
(331,249,c),
(401,249,l),
(400,303,o),
(419,384,o),
(422,394,c),
(394,406,o),
(329,413,o),
(270,413,c)
);
}
);
width = 432;
}
);
unicode = 99;
},
{
glyphname = d;
lastChange = "2025-03-07 19:02:37 +0000";
layers = (
{
anchors = (
{
name = bottom;
pos = (227,0);
},
{
name = center;
pos = (365,555);
},
{
name = top;
pos = (153,384);
},
{
name = topright;
pos = (430,694);
}
);
background = {
anchors = (
{
name = bottom;
pos = (208,0);
},
{
name = ogonek;
pos = (371,10);
},
{
name = top;
pos = (208,384);
}
);
shapes = (
{
closed = 1;
nodes = (
(111,302,o),
(153,362,o),
(213,362,cs),
(258,362,o),
(292,325,o),
(295,266,c),
(88,260,l),
(84,231,l),
(364,225,l),
(376,239,l),
(376,330,o),
(314,395,o),
(227,395,cs),
(115,395,o),
(36,309,o),
(36,188,cs),
(36,71,o),
(107,-11,o),
(208,-11,cs),
(270,-11,o),
(339,33,o),
(374,95,c),
(356,108,l),
(333,75,o),
(281,52,o),
(229,52,cs),
(160,52,o),
(111,117,o),
(111,210,cs)
);
},
{
closed = 1;
nodes = (
(111,302,o),
(153,362,o),
(213,362,cs),
(258,362,o),
(292,325,o),
(295,266,c),
(88,260,l),
(84,231,l),
(364,225,l),
(376,239,l),
(376,330,o),
(314,395,o),
(227,395,cs),
(115,395,o),
(36,309,o),
(36,188,cs),
(36,71,o),
(107,-11,o),
(208,-11,cs),
(270,-11,o),
(339,33,o),
(374,95,c),
(356,108,l),
(333,75,o),
(281,52,o),
(229,52,cs),
(160,52,o),
(111,117,o),
(111,210,cs)
);
}
);
};
color = 3;
layerId = m005;
shapes = (
{
closed = 1;
nodes = (
(36,189,l),
(36,72,o),
(104,-11,o),
(199,-11,cs),
(246,-11,o),
(317,22,o),
(374,69,c),
(374,88,l),
(336,65,o),
(283,49,o),
(246,49,cs),
(169,49,o),
(113,120,o),
(113,220,c)
);
},
{
closed = 1;
nodes = (
(342,58,l),
(343,58,l),
(342,-6,l),
(355,-12,l),
(486,21,l),
(486,42,l),
(432,57,o),
(414,75,o),
(414,85,c)
);
},
{
closed = 1;
nodes = (
(113,220,l),
(113,301,o),
(166,358,o),
(237,358,cs),
(286,358,o),
(339,320,o),
(364,267,c),
(390,356,l),
(358,379,o),
(304,395,o),
(258,395,cs),
(129,395,o),
(36,310,o),
(36,189,c)
);
},
{
closed = 1;
nodes = (
(414,85,l),
(414,557,l),
(416,658,l),
(401,668,l),
(272,637,l),
(272,616,l),
(313,599,o),
(342,577,o),
(342,563,cs),
(342,58,l)
);
}
);
width = 486;
},
{
anchors = (
{
name = bottom;
pos = (288,0);
},
{
name = center;
pos = (432,555);
},
{
name = top;
pos = (288,399);
},
{
name = topright;
pos = (556,694);
}
);
background = {
anchors = (
{
name = bottom;
pos = (190,0);
},
{
name = ogonek;
pos = (353,10);
},
{
name = top;
pos = (190,384);
}
);
shapes = (
{
closed = 1;
nodes = (
(18,189,l),
(18,72,o),
(86,-11,o),
(181,-11,cs),
(228,-11,o),
(299,22,o),
(356,69,c),
(356,88,l),
(318,65,o),
(265,49,o),
(228,49,cs),
(151,49,o),
(95,120,o),
(95,220,c)
);
},
{
closed = 1;
nodes = (
(360,58,l),
(361,58,l),
(360,-6,l),
(373,-12,l),
(504,21,l),
(504,42,l),
(450,57,o),
(432,75,o),
(432,85,c)
);
},
{
closed = 1;
nodes = (
(95,220,l),
(95,301,o),
(148,358,o),
(219,358,cs),
(268,358,o),
(321,320,o),
(346,267,c),
(372,356,l),
(340,379,o),
(286,395,o),
(240,395,cs),
(111,395,o),
(18,310,o),
(18,189,c)
);
},
{
closed = 1;
nodes = (
(432,85,l),
(432,557,l),
(434,658,l),
(419,668,l),
(290,637,l),
(290,616,l),
(331,599,o),
(360,577,o),
(360,563,cs),
(360,58,l)
);
},
{
closed = 1;
nodes = (
(90,207,l),
(90,90,o),
(158,7,o),
(253,7,cs),
(300,7,o),
(371,40,o),
(428,87,c),
(428,106,l),
(390,83,o),
(337,67,o),
(300,67,cs),
(223,67,o),
(167,138,o),
(167,238,c)
);
},
{
closed = 1;
nodes = (
(432,76,l),
(433,76,l),
(432,12,l),
(445,6,l),
(576,39,l),
(576,60,l),
(522,75,o),
(504,93,o),
(504,103,c)
);
},
{
closed = 1;
nodes = (
(167,238,l),
(167,319,o),
(220,376,o),
(291,376,cs),
(340,376,o),
(393,338,o),
(418,285,c),
(444,374,l),
(412,397,o),
(358,413,o),
(312,413,cs),
(183,413,o),
(90,328,o),
(90,207,c)
);
},
{
closed = 1;
nodes = (
(504,103,l),
(504,575,l),
(506,676,l),
(491,686,l),
(362,655,l),
(362,634,l),
(403,617,o),
(432,595,o),
(432,581,cs),
(432,76,l)
);
}
);
};
color = 3;
layerId = m002;
shapes = (
{
closed = 1;
nodes = (
(18,189,l),
(18,72,o),
(93,-11,o),
(199,-11,cs),
(255,-11,o),
(335,22,o),
(392,69,c),
(392,88,l),
(354,65,o),
(309,49,o),
(282,49,cs),
(215,49,o),
(167,120,o),
(167,220,c)
);
},
{
closed = 1;
nodes = (
(360,58,l),
(361,58,l),
(360,-6,l),
(373,-12,l),
(576,39,l),
(576,60,l),
(522,75,o),
(504,93,o),
(504,103,c)
);
},
{
closed = 1;
nodes = (
(167,220,l),
(167,311,o),
(211,376,o),
(273,376,cs),
(333,376,o),
(393,338,o),
(418,285,c),
(444,374,l),
(412,397,o),
(350,413,o),
(294,413,cs),
(132,413,o),
(18,320,o),
(18,189,c)
);
},
{
closed = 1;
nodes = (
(504,103,l),
(504,575,l),
(506,676,l),
(491,686,l),
(290,637,l),
(290,616,l),
(331,599,o),
(360,577,o),
(360,563,cs),
(360,58,l)
);
}
);
width = 576;
}
);
unicode = 100;
},
{
glyphname = dcroat;
lastChange = "2025-03-07 19:02:49 +0000";
layers = (
{
layerId = m005;
shapes = (
{
ref = d;
},
{
closed = 1;
nodes = (
(290,441,l),
(477,509,l),
(464,547,l),
(276,479,l)
);
}
);
width = 486;
},
{
layerId = m002;
shapes = (
{
ref = d;
},
{
closed = 1;
nodes = (
(290,441,l),
(477,509,l),
(467,539,l),
(279,471,l)
);
}
);
width = 486;
}
);
unicode = 273;
},
{
glyphname = dtail;
lastChange = "2025-03-07 13:07:43 +0000";
layers = (
{
anchors = (
{
name = bottom;
pos = (243,0);
},
{
name = top;
pos = (243,384);
}
);
layerId = m005;
shapes = (
{
closed = 1;
nodes = (
(36,189,l),
(36,72,o),
(104,-11,o),
(199,-11,cs),
(246,-11,o),
(317,22,o),
(374,69,c),
(374,88,l),
(336,65,o),
(283,49,o),
(246,49,cs),
(169,49,o),
(113,120,o),
(113,220,c)
);
},
{
closed = 1;
nodes = (
(113,220,l),
(113,301,o),
(166,358,o),
(237,358,cs),
(286,358,o),
(339,320,o),
(364,267,c),
(390,356,l),
(358,379,o),
(304,395,o),
(258,395,cs),
(129,395,o),
(36,310,o),
(36,189,c)
);
},
{
closed = 1;
nodes = (
(414,-49,l),
(414,557,l),
(416,658,l),
(401,668,l),
(272,637,l),
(272,616,l),
(313,599,o),
(342,577,o),
(342,563,cs),
(342,-55,l)
);
},
{
closed = 1;
nodes = (
(342,-55,l),
(342,-170,o),
(375,-232,o),
(442,-232,cs),
(506,-232,o),
(615,-167,o),
(615,-91,cs),
(615,-60,o),
(543,-74,o),
(543,-105,cs),
(543,-119,o),
(550,-119,o),
(550,-132,cs),
(550,-159,o),
(524,-188,o),
(496,-188,cs),
(446,-188,o),
(412,-143,o),
(414,-49,c)
);
}
);
width = 486;
},
{
anchors = (
{
name = bottom;
pos = (243,0);
},
{
name = top;
pos = (243,399);
}
);
layerId = m002;
shapes = (
{
closed = 1;
nodes = (
(36,189,l),
(36,72,o),
(104,-11,o),
(199,-11,cs),
(246,-11,o),
(317,22,o),
(374,69,c),
(374,88,l),
(336,65,o),
(283,49,o),
(246,49,cs),
(169,49,o),
(113,120,o),
(113,220,c)
);
},
{
closed = 1;
nodes = (
(113,220,l),
(113,301,o),
(166,358,o),
(237,358,cs),
(286,358,o),
(339,320,o),
(364,267,c),
(390,356,l),
(358,379,o),
(304,395,o),
(258,395,cs),
(129,395,o),
(36,310,o),
(36,189,c)
);
},
{
closed = 1;
nodes = (
(414,-49,l),
(414,557,l),
(416,658,l),
(401,668,l),
(272,637,l),
(272,616,l),
(313,599,o),
(342,577,o),
(342,563,cs),
(342,-55,l)
);
},
{
closed = 1;
nodes = (
(342,-55,l),
(342,-170,o),
(375,-232,o),
(442,-232,cs),
(506,-232,o),
(615,-167,o),
(615,-91,cs),
(615,-60,o),
(543,-74,o),
(543,-105,cs),
(543,-119,o),
(550,-119,o),
(550,-132,cs),
(550,-159,o),
(524,-188,o),
(496,-188,cs),
(446,-188,o),
(412,-143,o),
(414,-49,c)
);
}
);
width = 486;
}
);
unicode = 598;
},
{
glyphname = eth;
lastChange = "2025-03-07 13:07:43 +0000";
layers = (
{
anchors = (
{
name = bottom;
pos = (234,0);
},
{
name = top;
pos = (234,694);
}
);
hints = (
{
horizontal = 1;
origin = (0,31);
place = (-6,-37);
type = Stem;
},
{
horizontal = 1;
origin = (0,31);
place = (-6,-51);
type = Stem;
},
{
origin = (0,31);
place = (229,-87);
type = Stem;
},
{
origin = (0,31);
place = (229,-79);
type = Stem;
}
);
layerId = m005;
shapes = (
{
closed = 1;
nodes = (
(346,-6,o),
(429,100,o),
(429,249,cs),
(429,426,o),
(302,596,o),
(123,659,c),
(107,611,l),
(248,561,o),
(348,401,o),
(348,226,cs),
(348,113,o),
(304,33,o),
(241,33,cs),
(166,33,o),
(113,110,o),
(113,220,cs),
(113,299,o),
(162,355,o),
(231,355,cs),
(299,355,o),
(349,322,o),
(351,275,c),
(367,296,l),
(359,354,o),
(306,395,o),
(239,395,cs),
(120,395,o),
(36,313,o),
(36,198,cs),
(36,79,o),
(116,-6,o),
(229,-6,cs)
);
},
{
closed = 1;
nodes = (
(220,441,l),
(407,509,l),
(397,539,l),
(209,471,l)
);
}
);
width = 468;
},
{
anchors = (
{
name = bottom;
pos = (234,0);
},
{
name = top;
pos = (234,694);
}
);
hints = (
{
horizontal = 1;
origin = (0,31);
place = (-6,-37);
type = Stem;
},
{
horizontal = 1;
origin = (0,31);
place = (-6,-51);
type = Stem;
},
{
origin = (0,31);
place = (229,-87);
type = Stem;
},
{
origin = (0,31);
place = (229,-79);
type = Stem;
}
);
layerId = m002;
shapes = (
{
closed = 1;
nodes = (
(346,-6,o),
(429,100,o),
(429,249,cs),
(429,426,o),
(302,596,o),
(123,659,c),
(107,611,l),
(248,561,o),
(348,401,o),
(348,226,cs),
(348,113,o),
(304,33,o),
(241,33,cs),
(166,33,o),
(113,110,o),
(113,220,cs),
(113,299,o),
(162,355,o),
(231,355,cs),
(299,355,o),
(349,322,o),
(351,275,c),
(367,296,l),
(359,354,o),
(306,395,o),
(239,395,cs),
(120,395,o),
(36,313,o),
(36,198,cs),
(36,79,o),
(116,-6,o),
(229,-6,cs)
);
},
{
closed = 1;
nodes = (
(220,441,l),
(407,509,l),
(397,539,l),
(209,471,l)
);
}
);
width = 468;
}
);
unicode = 240;
},
{
glyphname = e;
lastChange = "2025-03-07 19:03:14 +0000";
layers = (
{
anchors = (
{
name = bottom;
pos = (215,0);
},
{
name = ogonek;
pos = (289,10);
},
{
name = top;
pos = (222,384);
}
);
background = {
shapes = (
{
closed = 1;
nodes = (
(109,168,l,{
"Letterink-NibData" = {
AngleInDegrees = "0";
};
}),
(407,340,l,{
"Letterink-NibData" = {
AngleInDegrees = "359.99998";
};
}),
(404,346,l,{
"Letterink-NibData" = {
AngleInDegrees = "360";
};
}),
(364,380,o),
(326,395,o),
(281,395,cs),
(234,395,o),
(202,383,o),
(158,348,c,{
"Letterink-NibData" = {
AngleInDegrees = "360";
};
}),
(75,315,o),
(32,256,o),
(32,174,cs),
(32,74,o),
(116,-11,o),
(215,-11,cs),
(264,-11,o),
(294,1,o),
(341,39,c,{
"Letterink-NibData" = {
AngleInDegrees = "0";
};
}),
(338,44,l,{
"Letterink-NibData" = {
AngleInDegrees = "360";
};
}),
(309,37,o),
(300,35,o),
(281,35,cs),
(196,35,o),
(130,87,o),
(108,170,c,{
"Letterink-NibData" = {
AngleInDegrees = "0";
};
})
);
},
{
closed = 1;
nodes = (
(107,177,l,{
"Letterink-NibData" = {
AngleInDegrees = "0";
};
}),
(105,192,o),
(104,198,o),
(104,210,cs),
(104,259,o),
(123,301,o),
(162,341,c,{
"Letterink-NibData" = {
AngleInDegrees = "360";
};
}),
(186,347,o),
(198,349,o),
(215,349,cs),
(260,349,o),
(292,337,o),
(332,306,c,{
"Letterink-NibData" = {
AngleInDegrees = "360";
};
})
);
},
{
closed = 1;
nodes = (
(32,189,l),
(32,72,o),
(99,-11,o),
(193,-11,cs),
(236,-11,o),
(308,26,o),
(366,79,c),
(366,98,l),
(326,69,o),
(273,49,o),
(238,49,cs),
(163,49,o),
(110,120,o),
(110,220,c)
);
}
);
};
color = 4;
layerId = m005;
shapes = (
{
closed = 1;
nodes = (
(111,302,o),
(155,362,o),
(215,362,cs),
(260,362,o),
(294,325,o),
(297,266,c),
(88,260,l),
(84,231,l),
(366,225,l),
(378,239,l),
(378,330,o),
(316,395,o),
(229,395,cs),
(117,395,o),
(36,309,o),
(36,188,cs),
(36,71,o),
(109,-11,o),
(210,-11,cs),
(272,-11,o),
(341,33,o),
(376,95,c),
(358,108,l),
(335,75,o),
(283,52,o),
(231,52,cs),
(162,52,o),
(111,117,o),
(111,210,cs)
);
}
);
width = 396;
},
{
anchors = (
{
name = bottom;
pos = (234,0);
},
{
name = ogonek;
pos = (421,10);
},
{
name = top;
pos = (234,399);
}
);
background = {
shapes = (
{
closed = 1;
nodes = (
(93,302,o),
(137,362,o),
(197,362,cs),
(242,362,o),
(312,325,o),
(315,266,c),
(70,260,l),
(66,231,l),
(384,225,l),
(396,239,l),
(396,330,o),
(298,395,o),
(211,395,cs),
(99,395,o),
(18,309,o),
(18,188,cs),
(18,71,o),
(127,-11,o),
(228,-11,cs),
(290,-11,o),
(359,33,o),
(394,95,c),
(376,108,l),
(353,75,o),
(301,52,o),
(249,52,cs),
(180,52,o),
(93,117,o),
(93,210,cs)
);
},
{
closed = 1;
nodes = (
(165,320,o),
(209,380,o),
(269,380,cs),
(314,380,o),
(384,343,o),
(387,284,c),
(142,278,l),
(138,249,l),
(456,243,l),
(468,257,l),
(468,348,o),
(370,413,o),
(283,413,cs),
(171,413,o),
(90,327,o),
(90,206,cs),
(90,89,o),
(199,7,o),
(300,7,cs),
(362,7,o),
(431,51,o),
(466,113,c),
(448,126,l),
(425,93,o),
(373,70,o),
(321,70,cs),
(252,70,o),
(165,135,o),
(165,228,cs)
);
}
);
};
color = 4;
layerId = m002;
shapes = (
{
closed = 1;
nodes = (
(165,310,o),
(194,380,o),
(235,380,cs),
(268,380,o),
(294,333,o),
(297,266,c),
(70,260,l),
(66,231,l),
(438,225,l),
(450,239,l),
(450,341,o),
(375,413,o),
(269,413,cs),
(122,413,o),
(18,320,o),
(18,188,cs),
(18,71,o),
(114,-11,o),
(250,-11,cs),
(325,-11,o),
(407,40,o),
(448,113,c),
(430,126,l),
(400,83,o),
(333,52,o),
(270,52,cs),
(209,52,o),
(165,117,o),
(165,210,cs)
);
}
);
width = 468;
}
);
note = e;
unicode = 101;
},
{
glyphname = eopen;
lastChange = "2025-03-07 19:03:43 +0000";
layers = (
{
anchors = (
{
name = bottom;
pos = (176,0);
},
{
name = top;
pos = (217,384);
}
);
layerId = m005;
shapes = (
{
closed = 1;
nodes = (
(171,235,o),
(120,276,o),
(120,318,cs),
(120,347,o),
(159,367,o),
(213,367,c),
(227,395,l),
(126,395,o),
(54,351,o),
(54,290,cs),
(54,257,o),
(93,216,o),
(148,191,c),
(213,214,l),
(120,201,o),
(54,141,o),
(54,69,cs),
(54,22,o),
(115,-11,o),
(176,-11,cs),
(260,-11,o),
(323,33,o),
(357,82,c),
(344,97,l),
(310,70,o),
(274,39,o),
(235,39,cs),
(176,39,o),
(116,68,o),
(116,109,cs),
(116,147,o),
(167,184,o),
(240,198,c),
(242,219,l)
);
},
{
closed = 1;
nodes = (
(213,367,l),
(264,367,o),
(302,333,o),
(305,286,c),
(339,286,l),
(336,313,o),
(337,348,o),
(342,371,c),
(301,385,o),
(253,395,o),
(227,395,c)
);
}
);
width = 378;
},
{
anchors = (
{
name = bottom;
pos = (189,0);
},
{
name = top;
pos = (189,399);
}
);
layerId = m002;
shapes = (
{
closed = 1;
nodes = (
(171,235,o),
(120,276,o),
(120,318,cs),
(120,347,o),
(159,367,o),
(213,367,c),
(227,395,l),
(126,395,o),
(54,351,o),
(54,290,cs),
(54,257,o),
(93,216,o),
(148,191,c),
(213,214,l),
(120,201,o),
(54,141,o),
(54,69,cs),
(54,22,o),
(115,-11,o),
(176,-11,cs),
(260,-11,o),
(323,33,o),
(357,82,c),
(344,97,l),
(310,70,o),
(274,39,o),
(235,39,cs),
(176,39,o),
(116,68,o),
(116,109,cs),
(116,147,o),
(167,184,o),
(240,198,c),
(242,219,l)
);
},
{
closed = 1;
nodes = (
(213,367,l),
(264,367,o),
(302,333,o),
(305,286,c),
(339,286,l),
(336,313,o),
(337,348,o),
(342,371,c),
(301,385,o),
(253,395,o),
(227,395,c)
);
}
);
width = 378;
}
);
unicode = 603;
},
{
glyphname = schwa;
lastChange = "2025-03-07 19:03:49 +0000";
layers = (
{
anchors = (
{
name = bottom;
pos = (198,0);
},
{
name = top;
pos = (186,384);
}
);
layerId = m005;
shapes = (
{
closed = 1;
nodes = (
(285,82,o),
(241,22,o),
(181,22,cs),
(136,22,o),
(102,59,o),
(99,118,c),
(308,124,l),
(312,153,l),
(30,159,l),
(18,145,l),
(18,54,o),
(80,-11,o),
(167,-11,cs),
(279,-11,o),
(360,75,o),
(360,196,cs),
(360,313,o),
(287,395,o),
(186,395,cs),
(124,395,o),
(55,351,o),
(20,289,c),
(38,276,l),
(61,309,o),
(113,332,o),
(165,332,cs),
(234,332,o),
(285,267,o),
(285,174,cs)
);
}
);
width = 396;
},
{
anchors = (
{
name = bottom;
pos = (198,0);
},
{
name = top;
pos = (198,399);
}
);
layerId = m002;
shapes = (
{
closed = 1;
nodes = (
(285,82,o),
(241,22,o),
(181,22,cs),
(136,22,o),
(102,59,o),
(99,118,c),
(308,124,l),
(312,153,l),
(30,159,l),
(18,145,l),
(18,54,o),
(80,-11,o),
(167,-11,cs),
(279,-11,o),
(360,75,o),
(360,196,cs),
(360,313,o),
(287,395,o),
(186,395,cs),
(124,395,o),
(55,351,o),
(20,289,c),
(38,276,l),
(61,309,o),
(113,332,o),
(165,332,cs),
(234,332,o),
(285,267,o),
(285,174,cs)
);
}
);
width = 396;
}
);
unicode = 601;
},
{
glyphname = f;
lastChange = "2025-03-07 13:07:43 +0000";
layers = (
{
anchors = (
{
name = bottom;
pos = (153,0);
},
{
name = top;
pos = (153,694);
}
);
background = {
shapes = (
{
closed = 1;
nodes = (
(91,386,l),
(91,387,l,{
"Letterink-NibData" = {
AngleInDegrees = "360";
};
}),
(18,346,l,{
"Letterink-NibData" = {
AngleInDegrees = "360";
};
}),
(21,341,l),
(91,341,l),
(91,40,l,{
"Letterink-NibData" = {
AngleInDegrees = "0";
};
}),
(116,18,o),
(135,7,o),
(164,-3,c,{
"Letterink-NibData" = {
AngleInDegrees = "0";
};
}),
(239,40,l,{
"Letterink-NibData" = {
AngleInDegrees = "0";
};
}),
(202,52,o),
(186,60,o),
(163,80,c),
(163,342,l,{
"Letterink-NibData" = {
AngleInDegrees = "360";
};
}),
(164,341,l),
(270,341,l,{
"Letterink-NibData" = {
AngleInDegrees = "360";
};
}),
(343,382,l,{
"Letterink-NibData" = {
AngleInDegrees = "0";
};
}),
(340,387,l),
(163,387,l),
(163,662,l,{
"Letterink-NibData" = {
AngleInDegrees = "360";
};
}),
(164,661,l,{
"Letterink-NibData" = {
AngleInDegrees = "0";
};
}),
(187,667,o),
(198,669,o),
(217,669,cs),
(265,669,o),
(294,657,o),
(340,621,c,{
"Letterink-NibData" = {
AngleInDegrees = "0";
};
}),
(411,662,l,{
"Letterink-NibData" = {
AngleInDegrees = "0";
};
}),
(357,705,o),
(332,715,o),
(282,715,cs),
(235,715,o),
(203,703,o),
(160,667,c,{
"Letterink-NibData" = {
AngleInDegrees = "360";
};
}),
(91,628,l)
);
},
{
closed = 0;
nodes = (
(92,68,l),
(92,37,o),
(75,32,o),
(36,18,c),
(36,0,l),
(249,0,l),
(249,18,l),
(180,32,o),
(163,38,o),
(163,68,cs)
);
}
);
};
color = 5;
guides = (
{
angle = 46;
lockAngle = 1;
pos = (301,567);
}
);
layerId = m005;
shapes = (
{
closed = 1;
nodes = (
(18,0,l),
(270,0,l),
(270,18,l),
(205,31,o),
(169,31,o),
(167,69,cs),
(162,163,o),
(162,304,o),
(167,449,cs),
(168,471,o),
(168,500,o),
(170,528,cs),
(175,577,o),
(189,624,o),
(233,624,cs),
(256,624,o),
(265,617,o),
(274,606,cs),
(283,593,o),
(287,576,o),
(298,567,cs),
(321,546,o),
(383,615,o),
(361,638,cs),
(343,656,o),
(310,665,o),
(269,665,cs),
(211,665,o),
(163,631,o),
(135,590,cs),
(101,540,o),
(95,492,o),
(91,387,cs),
(90,355,o),
(90,221,o),
(91,69,cs),
(91,30,o),
(57,32,o),
(18,18,c)
);
},
{
closed = 1;
nodes = (
(306,334,l),
(306,389,l),
(97,384,l),
(18,359,l),
(18,349,l)
);
}
);
width = 306;
},
{
anchors = (
{
name = bottom;
pos = (171,0);
},
{
name = top;
pos = (171,694);
}
);
background = {
shapes = (
{
closed = 1;
nodes = (
(0,0,l),
(252,0,l),
(252,18,l),
(187,31,o),
(151,31,o),
(149,69,cs),
(144,163,o),
(144,304,o),
(149,449,cs),
(151,510,o),
(146,624,o),
(215,624,cs),
(238,624,o),
(247,617,o),
(256,606,cs),
(265,593,o),
(269,576,o),
(280,567,cs),
(303,546,o),
(365,615,o),
(343,638,cs),
(325,656,o),
(292,665,o),
(251,665,cs),
(193,665,o),
(145,631,o),
(117,590,cs),
(83,540,o),
(77,492,o),
(73,387,cs),
(72,355,o),
(72,221,o),
(73,69,cs),
(73,30,o),
(39,32,o),
(0,18,c)
);
},
{
closed = 1;
nodes = (
(288,334,l),
(288,389,l),
(79,384,l),
(0,359,l),
(0,349,l)
);
},
{
closed = 1;
nodes = (
(72,18,l),
(324,18,l),
(324,36,l),
(259,49,o),
(223,49,o),
(221,87,cs),
(216,181,o),
(216,322,o),
(221,467,cs),
(223,528,o),
(218,642,o),
(287,642,cs),
(310,642,o),
(319,635,o),
(328,624,cs),
(337,611,o),
(341,594,o),
(352,585,cs),
(375,564,o),
(437,633,o),
(415,656,cs),
(397,674,o),
(364,683,o),
(323,683,cs),
(265,683,o),
(217,649,o),
(189,608,cs),
(155,558,o),
(149,510,o),
(145,405,cs),
(144,373,o),
(144,239,o),
(145,87,cs),
(145,48,o),
(111,50,o),
(72,36,c)
);
},
{
closed = 1;
nodes = (
(360,352,l),
(360,407,l),
(151,402,l),
(72,377,l),
(72,367,l)
);
}
);
};
color = 5;
guides = (
{
angle = 46;
lockAngle = 1;
pos = (415,638);
}
);
layerId = m002;
shapes = (
{
closed = 1;
nodes = (
(0,0,l),
(324,0,l),
(324,18,l),
(259,31,o),
(223,31,o),
(221,69,cs),
(216,157,o),
(221,314,o),
(221,449,cs),
(221,484,o),
(216,531,o),
(206,558,cs),
(189,603,o),
(189,624,o),
(216,624,cs),
(281,624,o),
(290,581,o),
(292,570,cs),
(294,559,o),
(301,545,o),
(314,533,cs),
(347,503,o),
(456,598,o),
(415,638,cs),
(389,664,o),
(336,683,o),
(287,683,cs),
(225,683,o),
(154,644,o),
(117,590,cs),
(94,557,o),
(76,473,o),
(73,387,cs),
(72,355,o),
(72,223,o),
(73,69,cs),
(73,30,o),
(39,32,o),
(0,18,c)
);
},
{
closed = 1;
nodes = (
(360,334,l),
(360,407,l),
(79,402,l),
(0,359,l),
(0,349,l)
);
}
);
width = 342;
}
);
note = f;
unicode = 102;
},
{
glyphname = g;
lastChange = "2025-03-07 19:04:04 +0000";
layers = (
{
anchors = (
{
name = bottom;
pos = (207,-196);
},
{
name = top;
pos = (206,384);
}
);
background = {
shapes = (
{
closed = 1;
nodes = (
(318,384,o),
(290,395,o),
(242,395,cs),
(194,395,o),
(163,383,o),
(119,347,c,{
"Letterink-NibData" = {
AngleInDegrees = "359.99999";
};
}),
(37,316,o),
(-7,256,o),
(-7,174,cs),
(-7,74,o),
(77,-11,o),
(176,-11,cs),
(222,-11,o),
(254,1,o),
(295,34,c),
(295,-238,l),
(295,-237,l,{
"Letterink-NibData" = {
AngleInDegrees = "359.99999";
};
}),
(272,-243,o),
(260,-245,o),
(242,-245,cs),
(194,-245,o),
(165,-234,o),
(119,-197,c,{
"Letterink-NibData" = {
AngleInDegrees = "0";
};
}),
(48,-238,l,{
"Letterink-NibData" = {
AngleInDegrees = "359.99999";
};
}),
(100,-280,o),
(128,-291,o),
(176,-291,cs),
(224,-291,o),
(255,-279,o),
(299,-244,c,{
"Letterink-NibData" = {
AngleInDegrees = "0";
};
}),
(367,-204,l),
(367,344,l,{
"Letterink-NibData" = {
AngleInDegrees = "0";
};
})
);
},
{
closed = 1;
nodes = (
(272,37,o),
(260,35,o),
(242,35,cs),
(142,35,o),
(65,111,o),
(65,210,cs),
(65,259,o),
(84,302,o),
(123,341,c,{
"Letterink-NibData" = {
AngleInDegrees = "360";
};
}),
(147,347,o),
(158,349,o),
(176,349,cs),
(222,349,o),
(254,337,o),
(295,304,c),
(295,42,l),
(295,43,l,{
"Letterink-NibData" = {
AngleInDegrees = "359.99999";
};
})
);
}
);
};
color = 6;
layerId = m005;
shapes = (
{
closed = 1;
nodes = (
(267,342,l),
(414,332,l),
(414,389,l),
(235,374,l)
);
},
{
closed = 1;
nodes = (
(36,5,o),
(75,-22,o),
(129,-22,cs),
(162,-22,o),
(231,-22,o),
(280,-22,cs),
(325,-22,o),
(357,-40,o),
(357,-66,cs),
(357,-136,o),
(293,-183,o),
(203,-183,cs),
(136,-183,o),
(84,-139,o),
(84,-86,cs),
(84,-48,o),
(101,0,o),
(132,9,c),
(104,15,l),
(51,-7,o),
(18,-72,o),
(18,-119,cs),
(18,-175,o),
(69,-221,o),
(147,-221,cs),
(302,-221,o),
(405,-143,o),
(405,-29,cs),
(405,14,o),
(367,44,o),
(314,44,cs),
(168,44,ls),
(130,44,o),
(103,58,o),
(103,77,cs),
(103,90,o),
(122,122,o),
(148,142,c),
(124,151,l),
(72,125,o),
(36,76,o),
(36,43,cs)
);
},
{
closed = 1;
nodes = (
(123,330,o),
(161,368,o),
(201,368,cs),
(249,368,o),
(283,315,o),
(283,239,cs),
(283,184,o),
(254,145,o),
(214,145,cs),
(166,145,o),
(123,199,o),
(123,276,cs)
);
},
{
closed = 1;
nodes = (
(45,175,o),
(117,120,o),
(206,120,cs),
(296,120,o),
(359,178,o),
(359,261,cs),
(359,338,o),
(297,393,o),
(210,393,cs),
(119,393,o),
(45,335,o),
(45,253,cs)
);
}
);
width = 414;
},
{
anchors = (
{
name = bottom;
pos = (261,-232);
},
{
name = top;
pos = (261,399);
}
);
background = {
shapes = (
{
closed = 1;
nodes = (
(299,342,l),
(446,332,l),
(446,389,l),
(267,374,l)
);
},
{
closed = 1;
nodes = (
(32,5,o),
(71,-22,o),
(125,-22,cs),
(158,-22,o),
(263,-22,o),
(312,-22,cs),
(357,-22,o),
(389,-40,o),
(389,-66,cs),
(389,-136,o),
(325,-183,o),
(217,-183,cs),
(150,-183,o),
(80,-139,o),
(80,-86,cs),
(80,-48,o),
(97,0,o),
(128,9,c),
(100,15,l),
(47,-7,o),
(14,-72,o),
(14,-119,cs),
(14,-175,o),
(65,-221,o),
(143,-221,cs),
(334,-221,o),
(437,-143,o),
(437,-29,cs),
(437,14,o),
(399,44,o),
(346,44,cs),
(164,44,ls),
(126,44,o),
(99,58,o),
(99,77,cs),
(99,90,o),
(118,122,o),
(144,142,c),
(120,151,l),
(68,125,o),
(32,76,o),
(32,43,cs)
);
},
{
closed = 1;
nodes = (
(119,330,o),
(175,368,o),
(215,368,cs),
(281,368,o),
(315,315,o),
(315,239,cs),
(315,184,o),
(286,145,o),
(228,145,cs),
(180,145,o),
(119,199,o),
(119,276,cs)
);
},
{
closed = 1;
nodes = (
(41,175,o),
(131,120,o),
(220,120,cs),
(328,120,o),
(391,178,o),
(391,261,cs),
(391,338,o),
(329,393,o),
(224,393,cs),
(133,393,o),
(41,335,o),
(41,253,cs)
);
},
{
closed = 1;
nodes = (
(371,360,l),
(518,350,l),
(518,407,l),
(339,392,l)
);
},
{
closed = 1;
nodes = (
(104,23,o),
(143,-4,o),
(197,-4,cs),
(230,-4,o),
(335,-4,o),
(384,-4,cs),
(429,-4,o),
(461,-22,o),
(461,-48,cs),
(461,-118,o),
(397,-165,o),
(289,-165,cs),
(222,-165,o),
(152,-121,o),
(152,-68,cs),
(152,-30,o),
(169,18,o),
(200,27,c),
(172,33,l),
(119,11,o),
(86,-54,o),
(86,-101,cs),
(86,-157,o),
(137,-203,o),
(215,-203,cs),
(406,-203,o),
(509,-125,o),
(509,-11,cs),
(509,32,o),
(471,62,o),
(418,62,cs),
(236,62,ls),
(198,62,o),
(171,76,o),
(171,95,cs),
(171,108,o),
(190,140,o),
(216,160,c),
(192,169,l),
(140,143,o),
(104,94,o),
(104,61,cs)
);
},
{
closed = 1;
nodes = (
(191,348,o),
(247,386,o),
(287,386,cs),
(353,386,o),
(387,333,o),
(387,257,cs),
(387,202,o),
(358,163,o),
(300,163,cs),
(252,163,o),
(191,217,o),
(191,294,cs)
);
},
{
closed = 1;
nodes = (
(113,193,o),
(203,138,o),
(292,138,cs),
(400,138,o),
(463,196,o),
(463,279,cs),
(463,356,o),
(401,411,o),
(296,411,cs),
(205,411,o),
(113,353,o),
(113,271,cs)
);
}
);
};
color = 6;
layerId = m002;
shapes = (
{
closed = 1;
nodes = (
(335,342,l),
(518,332,l),
(518,407,l),
(303,392,l)
);
},
{
closed = 1;
nodes = (
(32,5,o),
(71,-22,o),
(125,-22,cs),
(158,-22,o),
(245,-22,o),
(294,-22,cs),
(350,-22,o),
(389,-40,o),
(389,-66,cs),
(389,-135,o),
(333,-183,o),
(253,-183,cs),
(194,-183,o),
(152,-143,o),
(152,-86,cs),
(152,-38,o),
(172,1,o),
(200,9,c),
(136,15,l),
(65,-15,o),
(14,-71,o),
(14,-119,cs),
(14,-179,o),
(90,-221,o),
(197,-221,cs),
(380,-221,o),
(509,-134,o),
(509,-11,cs),
(509,32,o),
(464,62,o),
(400,62,cs),
(236,62,ls),
(198,62,o),
(171,76,o),
(171,95,cs),
(171,111,o),
(182,130,o),
(198,142,c),
(138,151,l),
(76,120,o),
(32,75,o),
(32,43,cs)
);
},
{
closed = 1;
nodes = (
(191,340,o),
(216,386,o),
(251,386,cs),
(288,386,o),
(315,325,o),
(315,239,cs),
(315,184,o),
(294,145,o),
(264,145,cs),
(221,145,o),
(191,199,o),
(191,276,cs)
);
},
{
closed = 1;
nodes = (
(41,175,o),
(130,120,o),
(256,120,cs),
(377,120,o),
(463,178,o),
(463,261,cs),
(463,349,o),
(379,411,o),
(260,411,cs),
(132,411,o),
(41,346,o),
(41,253,cs)
);
}
);
width = 522;
}
);
note = g;
unicode = 103;
},
{
glyphname = h;
lastChange = "2025-03-07 19:04:26 +0000";
layers = (
{
anchors = (
{
name = bottom;
pos = (243,0);
},
{
name = center;
pos = (122,555);
},
{
name = top;
pos = (117,640);
}
);
color = 1;
layerId = m005;
shapes = (
{
closed = 1;
nodes = (
(18,0,l),
(216,0,l),
(216,18,l),
(169,32,o),
(144,39,o),
(144,68,cs),
(144,557,l),
(146,658,l),
(131,668,l),
(0,637,l),
(0,616,l),
(21,608,o),
(72,595,o),
(72,563,cs),
(72,68,ls),
(72,39,o),
(48,32,o),
(18,18,c)
);
},
{
closed = 1;
nodes = (
(468,0,l),
(468,18,l),
(430,32,o),
(414,37,o),
(414,68,cs),
(414,273,ls),
(414,355,o),
(380,395,o),
(310,395,cs),
(260,395,o),
(189,365,o),
(123,305,c),
(123,286,l),
(183,329,o),
(230,335,o),
(265,335,cs),
(317,335,o),
(338,306,o),
(342,246,cs),
(346,187,o),
(346,127,o),
(342,68,cs),
(340,38,o),
(315,32,o),
(288,18,c),
(288,0,l)
);
}
);
width = 486;
},
{
anchors = (
{
name = bottom;
pos = (297,0);
},
{
name = center;
pos = (149,555);
},
{
name = top;
pos = (297,694);
}
);
background = {
shapes = (
{
closed = 1;
nodes = (
(18,0,l),
(216,0,l),
(216,18,l),
(169,32,o),
(144,39,o),
(144,68,cs),
(144,557,l),
(146,658,l),
(131,668,l),
(0,637,l),
(0,616,l),
(21,608,o),
(72,595,o),
(72,563,cs),
(72,68,ls),
(72,39,o),
(48,32,o),
(18,18,c)
);
},
{
closed = 1;
nodes = (
(504,0,l),
(504,18,l),
(466,32,o),
(450,37,o),
(450,68,cs),
(450,273,ls),
(450,355,o),
(416,395,o),
(346,395,cs),
(296,395,o),
(225,365,o),
(159,305,c),
(159,286,l),
(219,329,o),
(266,335,o),
(301,335,cs),
(353,335,o),
(374,306,o),
(378,246,cs),
(382,187,o),
(382,127,o),
(378,68,cs),
(376,38,o),
(351,32,o),
(324,18,c),
(324,0,l)
);
},
{
closed = 1;
nodes = (
(90,18,l),
(288,18,l),
(288,36,l),
(241,50,o),
(216,57,o),
(216,86,cs),
(216,575,l),
(218,676,l),
(203,686,l),
(72,655,l),
(72,634,l),
(93,626,o),
(144,613,o),
(144,581,cs),
(144,86,ls),
(144,57,o),
(120,50,o),
(90,36,c)
);
},
{
closed = 1;
nodes = (
(576,18,l),
(576,36,l),
(538,50,o),
(522,55,o),
(522,86,cs),
(522,291,ls),
(522,373,o),
(488,413,o),
(418,413,cs),
(368,413,o),
(297,383,o),
(231,323,c),
(231,304,l),
(291,347,o),
(338,353,o),
(373,353,cs),
(425,353,o),
(446,324,o),
(450,264,cs),
(454,205,o),
(454,145,o),
(450,86,cs),
(448,56,o),
(423,50,o),
(396,36,c),
(396,18,l)
);
}
);
};
color = 1;
layerId = m002;
shapes = (
{
closed = 1;
nodes = (
(18,0,l),
(288,0,l),
(288,18,l),
(241,32,o),
(216,39,o),
(216,68,cs),
(216,575,l),
(218,676,l),
(203,686,l),
(0,637,l),
(0,616,l),
(21,608,o),
(72,595,o),
(72,563,cs),
(72,68,ls),
(72,39,o),
(48,32,o),
(18,18,c)
);
},
{
closed = 1;
nodes = (
(594,0,l),
(594,18,l),
(552,30,o),
(522,51,o),
(522,68,cs),
(522,273,ls),
(522,355,o),
(465,413,o),
(384,413,cs),
(331,413,o),
(252,376,o),
(193,323,c),
(193,304,l),
(218,322,o),
(264,335,o),
(303,335,cs),
(344,335,o),
(375,298,o),
(378,246,cs),
(381,201,o),
(381,128,o),
(378,68,cs),
(376,45,o),
(354,24,o),
(324,18,c),
(324,0,l)
);
}
);
width = 594;
}
);
unicode = 104;
},
{
glyphname = hbar;
lastChange = "2025-03-07 19:04:35 +0000";
layers = (
{
layerId = m005;
shapes = (
{
ref = h;
},
{
closed = 1;
nodes = (
(20,423,l),
(207,491,l),
(194,529,l),
(6,461,l)
);
}
);
width = 486;
},
{
layerId = m002;
shapes = (
{
ref = h;
},
{
closed = 1;
nodes = (
(20,423,l),
(207,491,l),
(197,521,l),
(9,453,l)
);
}
);
width = 486;
}
);
unicode = 295;
},
{
glyphname = idotless;
lastChange = "2025-03-07 13:07:43 +0000";
layers = (
{
anchors = (
{
name = bottom;
pos = (117,0);
},
{
name = ogonek;
pos = (216,0);
},
{
name = top;
pos = (117,384);
}
);
layerId = m005;
shapes = (
{
closed = 1;
nodes = (
(36,0,l),
(216,0,l),
(216,18,l),
(177,32,o),
(162,39,o),
(162,68,cs),
(162,148,o),
(160,234,o),
(162,314,cs),
(164,393,l),
(148,403,l),
(18,362,l),
(18,341,l),
(46,333,o),
(86,320,o),
(87,298,cs),
(91,223,o),
(91,143,o),
(87,68,cs),
(85,39,o),
(70,32,o),
(36,18,c)
);
}
);
width = 234;
},
{
anchors = (
{
name = bottom;
pos = (153,0);
},
{
name = ogonek;
pos = (288,0);
},
{
name = top;
pos = (153,399);
}
);
background = {
shapes = (
{
closed = 1;
nodes = (
(36,0,l),
(216,0,l),
(216,18,l),
(177,32,o),
(162,39,o),
(162,68,cs),
(162,148,o),
(160,234,o),
(162,314,cs),
(164,393,l),
(148,403,l),
(18,362,l),
(18,341,l),
(46,333,o),
(86,320,o),
(87,298,cs),
(91,223,o),
(91,143,o),
(87,68,cs),
(85,39,o),
(70,32,o),
(36,18,c)
);
},
{
closed = 1;
nodes = (
(108,18,l),
(288,18,l),
(288,36,l),
(249,50,o),
(234,57,o),
(234,86,cs),
(234,166,o),
(232,252,o),
(234,332,cs),
(236,411,l),
(220,421,l),
(90,380,l),
(90,359,l),
(118,351,o),
(158,338,o),
(159,316,cs),
(163,241,o),
(163,161,o),
(159,86,cs),
(157,57,o),
(142,50,o),
(108,36,c)
);
}
);
};
layerId = m002;
shapes = (
{
closed = 1;
nodes = (
(36,0,l),
(288,0,l),
(288,18,l),
(249,32,o),
(234,39,o),
(234,68,cs),
(234,148,o),
(232,252,o),
(234,332,cs),
(236,411,l),
(220,421,l),
(18,362,l),
(18,341,l),
(46,333,o),
(86,320,o),
(87,298,cs),
(91,223,o),
(91,143,o),
(87,68,cs),
(85,39,o),
(70,32,o),
(36,18,c)
);
}
);
width = 306;
}
);
unicode = 305;
},
{
glyphname = jdotless;
lastChange = "2025-03-07 19:05:09 +0000";
layers = (
{
anchors = (
{
name = bottom;
pos = (108,-232);
},
{
name = top;
pos = (102,384);
}
);
layerId = m005;
shapes = (
{
closed = 1;
nodes = (
(30,-219,o),
(35,-216,o),
(57,-201,cs),
(109,-164,o),
(144,-51,o),
(144,68,cs),
(144,314,l),
(146,393,l),
(131,403,l),
(0,362,l),
(0,341,l),
(35,326,o),
(70,309,o),
(70,298,cs),
(72,254,o),
(73,128,o),
(73,1,cs),
(73,-87,o),
(57,-160,o),
(34,-178,c),
(31,-179,o),
(27,-179,o),
(23,-179,cs),
(19,-179,o),
(15,-179,o),
(12,-178,cs),
(-2,-174,o),
(3,-168,o),
(-12,-164,cs),
(-33,-158,o),
(-56,-191,o),
(-56,-212,cs),
(-56,-221,o),
(-53,-228,o),
(-44,-230,cs),
(-38,-231,o),
(-32,-232,o),
(-25,-232,cs),
(-10,-232,o),
(6,-230,o),
(19,-224,cs)
);
}
);
width = 216;
},
{
anchors = (
{
name = bottom;
pos = (144,-232);
},
{
name = top;
pos = (144,399);
}
);
background = {
shapes = (
{
closed = 1;
nodes = (
(21,-223,o),
(23,-222,o),
(24,-222,c),
(34,-218,o),
(47,-208,o),
(57,-201,cs),
(109,-164,o),
(144,-51,o),
(144,68,cs),
(144,314,l),
(146,393,l),
(131,403,l),
(0,362,l),
(0,341,l),
(35,326,o),
(70,309,o),
(70,298,cs),
(72,254,o),
(73,128,o),
(73,1,cs),
(73,-87,o),
(57,-160,o),
(34,-178,c),
(31,-179,o),
(27,-179,o),
(23,-179,cs),
(19,-179,o),
(15,-179,o),
(12,-178,cs),
(-2,-174,o),
(3,-168,o),
(-12,-164,cs),
(-33,-158,o),
(-56,-191,o),
(-56,-212,cs),
(-56,-221,o),
(-53,-228,o),
(-44,-230,cs),
(-38,-231,o),
(-32,-232,o),
(-25,-232,cs),
(-10,-232,o),
(6,-229,o),
(19,-224,cs)
);
},
{
closed = 1;
nodes = (
(93,-205,o),
(95,-204,o),
(96,-204,c),
(106,-200,o),
(119,-190,o),
(129,-183,cs),
(181,-146,o),
(216,-33,o),
(216,86,cs),
(216,332,l),
(218,411,l),
(203,421,l),
(72,380,l),
(72,359,l),
(107,344,o),
(142,327,o),
(142,316,cs),
(144,272,o),
(145,146,o),
(145,19,cs),
(145,-69,o),
(129,-142,o),
(106,-160,c),
(103,-161,o),
(99,-161,o),
(95,-161,cs),
(91,-161,o),
(87,-161,o),
(84,-160,cs),
(70,-156,o),
(75,-150,o),
(60,-146,cs),
(39,-140,o),
(16,-173,o),
(16,-194,cs),
(16,-203,o),
(19,-210,o),
(28,-212,cs),
(34,-213,o),
(40,-214,o),
(47,-214,cs),
(62,-214,o),
(78,-211,o),
(91,-206,cs)
);
}
);
};
layerId = m002;
shapes = (
{
closed = 1;
nodes = (
(69,-217,o),
(82,-209,o),
(93,-201,cs),
(165,-150,o),
(216,-31,o),
(216,86,cs),
(216,332,l),
(218,411,l),
(203,421,l),
(0,362,l),
(0,341,l),
(35,326,o),
(70,309,o),
(70,298,cs),
(72,259,o),
(73,136,o),
(73,1,cs),
(73,-86,o),
(57,-160,o),
(34,-178,c),
(32,-179,o),
(28,-179,o),
(23,-179,cs),
(18,-179,o),
(14,-179,o),
(12,-178,cs),
(-2,-174,o),
(3,-168,o),
(-12,-164,cs),
(-38,-157,o),
(-56,-177,o),
(-56,-212,cs),
(-56,-223,o),
(-49,-229,o),
(-31,-231,cs),
(-22,-232,o),
(-14,-232,o),
(-7,-232,cs),
(17,-232,o),
(44,-228,o),
(56,-223,cs)
);
}
);
width = 288;
}
);
unicode = 567;
},
{
glyphname = k;
lastChange = "2025-03-07 19:05:27 +0000";
layers = (
{
anchors = (
{
name = bottom;
pos = (234,0);
},
{
name = top;
pos = (270,568);
}
);
color = 2;
layerId = m005;
shapes = (
{
closed = 1;
nodes = (
(18,0,l),
(198,0,l),
(198,18,l),
(163,32,o),
(144,39,o),
(144,68,cs),
(144,557,l),
(146,658,l),
(131,665,l),
(0,637,l),
(0,616,l),
(21,608,o),
(72,595,o),
(72,563,cs),
(72,68,ls),
(72,39,o),
(55,32,o),
(18,18,c)
);
},
{
closed = 1;
nodes = (
(123,145,l),
(200,195,o),
(268,256,o),
(325,326,cs),
(339,343,o),
(364,351,o),
(414,361,c),
(414,384,l),
(234,384,l),
(234,361,l),
(283,356,o),
(290,354,o),
(254,304,cs),
(216,252,o),
(169,210,o),
(111,178,c)
);
},
{
closed = 1;
nodes = (
(182,213,l),
(305,54,ls),
(316,40,o),
(309,23,o),
(270,20,c),
(270,0,l),
(468,0,l),
(468,23,l),
(438,26,o),
(412,38,o),
(399,55,cs),
(242,264,l)
);
}
);
width = 468;
},
{
anchors = (
{
name = bottom;
pos = (279,0);
},
{
name = top;
pos = (279,694);
}
);
background = {
shapes = (
{
closed = 1;
nodes = (
(18,0,l),
(198,0,l),
(198,18,l),
(163,32,o),
(144,39,o),
(144,68,cs),
(144,557,l),
(146,658,l),
(131,665,l),
(0,637,l),
(0,616,l),
(21,608,o),
(72,595,o),
(72,563,cs),
(72,68,ls),
(72,39,o),
(55,32,o),
(18,18,c)
);
},
{
closed = 1;
nodes = (
(159,145,l),
(236,195,o),
(304,256,o),
(361,326,cs),
(375,343,o),
(400,351,o),
(450,361,c),
(450,384,l),
(270,384,l),
(270,361,l),
(319,356,o),
(326,354,o),
(290,304,cs),
(252,252,o),
(205,210,o),
(147,178,c)
);
},
{
closed = 1;
nodes = (
(218,213,l),
(341,54,ls),
(352,40,o),
(345,23,o),
(306,20,c),
(306,0,l),
(504,0,l),
(504,23,l),
(474,26,o),
(448,38,o),
(435,55,cs),
(278,264,l)
);
},
{
closed = 1;
nodes = (
(90,18,l),
(270,18,l),
(270,36,l),
(235,50,o),
(216,57,o),
(216,86,cs),
(216,575,l),
(218,676,l),
(203,683,l),
(72,655,l),
(72,634,l),
(93,626,o),
(144,613,o),
(144,581,cs),
(144,86,ls),
(144,57,o),
(127,50,o),
(90,36,c)
);
},
{
closed = 1;
nodes = (
(231,163,l),
(308,213,o),
(376,274,o),
(433,344,cs),
(447,361,o),
(472,369,o),
(522,379,c),
(522,402,l),
(342,402,l),
(342,379,l),
(391,374,o),
(398,372,o),
(362,322,cs),
(324,270,o),
(277,228,o),
(219,196,c)
);
},
{
closed = 1;
nodes = (
(290,231,l),
(413,72,ls),
(424,58,o),
(417,41,o),
(378,38,c),
(378,18,l),
(576,18,l),
(576,41,l),
(546,44,o),
(520,56,o),
(507,73,cs),
(350,282,l)
);
}
);
};
color = 2;
layerId = m002;
shapes = (
{
closed = 1;
nodes = (
(18,0,l),
(270,0,l),
(270,18,l),
(235,32,o),
(216,39,o),
(216,68,cs),
(216,575,l),
(218,676,l),
(203,683,l),
(0,637,l),
(0,616,l),
(21,608,o),
(72,595,o),
(72,563,cs),
(72,68,ls),
(72,39,o),
(55,32,o),
(18,18,c)
);
},
{
closed = 1;
nodes = (
(177,145,l),
(254,195,o),
(366,274,o),
(428,344,cs),
(444,363,o),
(475,374,o),
(522,379,c),
(522,402,l),
(270,402,l),
(270,379,l),
(319,374,o),
(344,372,o),
(308,322,cs),
(270,270,o),
(223,228,o),
(165,196,c)
);
},
{
closed = 1;
nodes = (
(218,213,l),
(341,54,ls),
(352,40,o),
(345,23,o),
(306,20,c),
(306,0,l),
(576,0,l),
(576,23,l),
(546,26,o),
(520,38,o),
(507,55,cs),
(322,292,l)
);
}
);
width = 558;
}
);
unicode = 107;
},
{
glyphname = l;
lastChange = "2025-03-07 19:05:47 +0000";
layers = (
{
anchors = (
{
name = bottom;
pos = (109,0);
},
{
name = center;
pos = (109,192);
},
{
name = top;
pos = (109,640);
},
{
name = topright;
pos = (161,694);
}
);
background = {
shapes = (
{
closed = 1;
nodes = (
(72,40,l,{
"Letterink-NibData" = {
AngleInDegrees = "0";
};
}),
(97,18,o),
(116,7,o),
(146,-3,c,{
"Letterink-NibData" = {
AngleInDegrees = "360";
};
}),
(220,40,l,{
"Letterink-NibData" = {
AngleInDegrees = "0";
};
}),
(182,52,o),
(168,60,o),
(144,80,c),
(144,664,l,{
"Letterink-NibData" = {
AngleInDegrees = "359.99999";
};
}),
(118,687,o),
(102,697,o),
(71,707,c,{
"Letterink-NibData" = {
AngleInDegrees = "359.99999";
};
}),
(-3,664,l,{
"Letterink-NibData" = {
AngleInDegrees = "0";
};
}),
(34,652,o),
(49,644,o),
(72,624,c)
);
}
);
};
color = 1;
layerId = m005;
shapes = (
{
closed = 1;
nodes = (
(0,0,l),
(216,0,l),
(216,18,l),
(169,32,o),
(145,39,o),
(145,68,cs),
(145,557,l),
(148,658,l),
(131,668,l),
(0,637,l),
(0,616,l),
(21,608,o),
(72,595,o),
(72,563,cs),
(72,68,ls),
(72,39,o),
(48,32,o),
(0,18,c)
);
}
);
width = 217;
},
{
anchors = (
{
name = bottom;
pos = (144,0);
},
{
name = center;
pos = (144,200);
},
{
name = top;
pos = (144,694);
},
{
name = topright;
pos = (268,694);
}
);
background = {
shapes = (
{
closed = 1;
nodes = (
(0,0,l),
(216,0,l),
(216,18,l),
(169,32,o),
(145,39,o),
(145,68,cs),
(145,557,l),
(148,658,l),
(131,668,l),
(0,637,l),
(0,616,l),
(21,608,o),
(72,595,o),
(72,563,cs),
(72,68,ls),
(72,39,o),
(48,32,o),
(0,18,c)
);
},
{
closed = 1;
nodes = (
(72,18,l),
(288,18,l),
(288,36,l),
(241,50,o),
(217,57,o),
(217,86,cs),
(217,575,l),
(220,676,l),
(203,686,l),
(72,655,l),
(72,634,l),
(93,626,o),
(144,613,o),
(144,581,cs),
(144,86,ls),
(144,57,o),
(120,50,o),
(72,36,c)
);
}
);
};
color = 1;
layerId = m002;
shapes = (
{
closed = 1;
nodes = (
(0,0,l),
(287,0,l),
(287,18,l),
(240,32,o),
(216,39,o),
(216,68,cs),
(217,575,l),
(220,676,l),
(203,686,l),
(0,637,l),
(0,616,l),
(21,608,o),
(72,615,o),
(72,527,cs),
(72,68,ls),
(72,39,o),
(48,32,o),
(0,18,c)
);
}
);
width = 288;
}
);
note = l;
unicode = 108;
},
{
glyphname = lslash;
lastChange = "2025-03-07 19:06:02 +0000";
layers = (
{
layerId = m005;
shapes = (
{
ref = l;
},
{
closed = 1;
nodes = (
(20,297,l),
(207,365,l),
(194,403,l),
(6,335,l)
);
}
);
width = 216;
},
{
layerId = m002;
shapes = (
{
ref = l;
},
{
closed = 1;
nodes = (
(20,297,l),
(207,365,l),
(197,395,l),
(9,327,l)
);
}
);
width = 216;
}
);
unicode = 322;
},
{
glyphname = m;
lastChange = "2025-03-07 13:07:43 +0000";
layers = (
{
anchors = (
{
name = bottom;
pos = (369,0);
},
{
name = top;
pos = (369,384);
}
);
background = {
shapes = (
{
closed = 1;
nodes = (
(88,40,l,{
"Letterink-NibData" = {
AngleInDegrees = "0";
};
}),
(113,18,o),
(132,7,o),
(162,-3,c,{
"Letterink-NibData" = {
AngleInDegrees = "360";
};
}),
(236,40,l,{
"Letterink-NibData" = {
AngleInDegrees = "0";
};
}),
(198,52,o),
(184,60,o),
(160,80,c),
(160,342,l,{
"Letterink-NibData" = {
AngleInDegrees = "360";
};
}),
(161,341,l,{
"Letterink-NibData" = {
AngleInDegrees = "0";
};
}),
(184,347,o),
(196,349,o),
(214,349,cs),
(260,349,o),
(292,337,o),
(333,304,c),
(333,40,l,{
"Letterink-NibData" = {
AngleInDegrees = "0";
};
}),
(358,18,o),
(377,6,o),
(406,-3,c,{
"Letterink-NibData" = {
AngleInDegrees = "0";
};
}),
(481,40,l,{
"Letterink-NibData" = {
AngleInDegrees = "0";
};
}),
(443,52,o),
(428,60,o),
(405,80,c),
(405,342,l,{
"Letterink-NibData" = {
AngleInDegrees = "360";
};
}),
(406,341,l,{
"Letterink-NibData" = {
AngleInDegrees = "0";
};
}),
(429,347,o),
(440,349,o),
(459,349,cs),
(505,349,o),
(537,337,o),
(578,304,c),
(578,40,l,{
"Letterink-NibData" = {
AngleInDegrees = "0";
};
}),
(603,18,o),
(622,7,o),
(651,-3,c,{
"Letterink-NibData" = {
AngleInDegrees = "360";
};
}),
(725,40,l,{
"Letterink-NibData" = {
AngleInDegrees = "359.99999";
};
}),
(689,52,o),
(673,60,o),
(650,80,c),
(650,344,l,{
"Letterink-NibData" = {
AngleInDegrees = "0";
};
}),
(600,384,o),
(572,395,o),
(524,395,cs),
(477,395,o),
(445,383,o),
(402,347,c,{
"Letterink-NibData" = {
AngleInDegrees = "360";
};
}),
(403,346,ls,{
"Letterink-NibData" = {
AngleInDegrees = "0";
};
}),
(358,382,o),
(325,395,o),
(280,395,cs),
(232,395,o),
(201,383,o),
(157,347,c,{
"Letterink-NibData" = {
AngleInDegrees = "360";
};
}),
(158,346,ls,{
"Letterink-NibData" = {
AngleInDegrees = "359.99999";
};
}),
(134,367,o),
(116,377,o),
(87,387,c,{
"Letterink-NibData" = {
AngleInDegrees = "359.99999";
};
}),
(13,344,l,{
"Letterink-NibData" = {
AngleInDegrees = "0";
};
}),
(50,332,o),
(65,324,o),
(88,304,c)
);
},
{
closed = 1;
nodes = (
(399,298,l),
(439,325,o),
(469,335,o),
(502,335,cs),
(554,335,o),
(577,307,o),
(577,246,cs),
(577,68,ls),
(577,37,o),
(561,32,o),
(522,18,c),
(522,0,l),
(704,0,l),
(704,18,l),
(665,32,o),
(649,37,o),
(649,68,cs),
(649,273,ls),
(649,352,o),
(614,395,o),
(545,395,cs),
(492,395,o),
(448,367,o),
(389,310,c)
);
}
);
};
color = 1;
layerId = m005;
shapes = (
{
closed = 1;
nodes = (
(468,0,l),
(468,18,l),
(432,32,o),
(414,37,o),
(414,68,cs),
(414,273,ls),
(414,355,o),
(380,395,o),
(310,395,cs),
(260,395,o),
(198,365,o),
(132,305,c),
(132,286,l),
(192,329,o),
(229,335,o),
(264,335,cs),
(317,335,o),
(339,306,o),
(342,246,cs),
(345,187,o),
(345,127,o),
(342,68,cs),
(340,38,o),
(315,24,o),
(288,18,c),
(288,0,l)
);
},
{
closed = 1;
nodes = (
(234,0,l),
(234,18,l),
(187,32,o),
(160,38,o),
(160,68,cs),
(160,315,l),
(159,315,l),
(160,394,l),
(149,403,l),
(18,362,l),
(18,341,l),
(47,333,o),
(87,319,o),
(88,298,cs),
(91,223,o),
(91,143,o),
(88,68,cs),
(87,37,o),
(62,32,o),
(18,18,c),
(18,0,l)
);
},
{
closed = 1;
nodes = (
(738,0,l),
(738,18,l),
(692,32,o),
(666,37,o),
(666,68,cs),
(666,273,ls),
(666,355,o),
(632,395,o),
(562,395,cs),
(512,395,o),
(452,365,o),
(386,305,c),
(386,286,l),
(446,329,o),
(486,335,o),
(517,335,cs),
(569,335,o),
(589,306,o),
(593,246,cs),
(597,187,o),
(597,127,o),
(593,68,cs),
(591,38,o),
(576,24,o),
(522,18,c),
(522,0,l)
);
}
);
width = 738;
},
{
anchors = (
{
name = bottom;
pos = (441,0);
},
{
name = top;
pos = (441,399);
}
);
background = {
shapes = (
{
closed = 1;
nodes = (
(504,0,l),
(504,18,l),
(468,32,o),
(450,37,o),
(450,68,cs),
(450,273,ls),
(450,355,o),
(416,395,o),
(346,395,cs),
(296,395,o),
(234,365,o),
(168,305,c),
(168,286,l),
(228,329,o),
(265,335,o),
(300,335,cs),
(353,335,o),
(375,306,o),
(378,246,cs),
(381,187,o),
(381,127,o),
(378,68,cs),
(376,38,o),
(351,24,o),
(324,18,c),
(324,0,l)
);
},
{
closed = 1;
nodes = (
(234,0,l),
(234,18,l),
(187,32,o),
(160,38,o),
(160,68,cs),
(160,315,l),
(159,315,l),
(160,394,l),
(149,403,l),
(18,362,l),
(18,341,l),
(47,333,o),
(87,319,o),
(88,298,cs),
(91,223,o),
(91,143,o),
(88,68,cs),
(87,37,o),
(62,32,o),
(18,18,c),
(18,0,l)
);
},
{
closed = 1;
nodes = (
(810,0,l),
(810,18,l),
(764,32,o),
(738,37,o),
(738,68,cs),
(738,273,ls),
(738,355,o),
(704,395,o),
(634,395,cs),
(584,395,o),
(524,365,o),
(458,305,c),
(458,286,l),
(518,329,o),
(558,335,o),
(589,335,cs),
(641,335,o),
(661,306,o),
(665,246,cs),
(669,187,o),
(669,127,o),
(665,68,cs),
(663,38,o),
(648,24,o),
(594,18,c),
(594,0,l)
);
},
{
closed = 1;
nodes = (
(576,18,l),
(576,36,l),
(540,50,o),
(522,55,o),
(522,86,cs),
(522,291,ls),
(522,373,o),
(488,413,o),
(418,413,cs),
(368,413,o),
(306,383,o),
(240,323,c),
(240,304,l),
(300,347,o),
(337,353,o),
(372,353,cs),
(425,353,o),
(447,324,o),
(450,264,cs),
(453,205,o),
(453,145,o),
(450,86,cs),
(448,56,o),
(423,42,o),
(396,36,c),
(396,18,l)
);
},
{
closed = 1;
nodes = (
(306,18,l),
(306,36,l),
(259,50,o),
(232,56,o),
(232,86,cs),
(232,333,l),
(231,333,l),
(232,412,l),
(221,421,l),
(90,380,l),
(90,359,l),
(119,351,o),
(159,337,o),
(160,316,cs),
(163,241,o),
(163,161,o),
(160,86,cs),
(159,55,o),
(134,50,o),
(90,36,c),
(90,18,l)
);
},
{
closed = 1;
nodes = (
(882,18,l),
(882,36,l),
(836,50,o),
(810,55,o),
(810,86,cs),
(810,291,ls),
(810,373,o),
(776,413,o),
(706,413,cs),
(656,413,o),
(596,383,o),
(530,323,c),
(530,304,l),
(590,347,o),
(630,353,o),
(661,353,cs),
(713,353,o),
(733,324,o),
(737,264,cs),
(741,205,o),
(741,145,o),
(737,86,cs),
(735,56,o),
(720,42,o),
(666,36,c),
(666,18,l)
);
}
);
};
color = 1;
layerId = m002;
shapes = (
{
closed = 1;
nodes = (
(576,0,l),
(576,18,l),
(544,30,o),
(522,51,o),
(522,68,cs),
(522,291,ls),
(522,362,o),
(464,413,o),
(382,413,cs),
(335,413,o),
(262,376,o),
(204,323,c),
(204,304,l),
(229,322,o),
(269,335,o),
(300,335,cs),
(343,335,o),
(375,298,o),
(378,246,cs),
(381,194,o),
(381,120,o),
(378,68,cs),
(376,46,o),
(354,25,o),
(324,18,c),
(324,0,l)
);
},
{
closed = 1;
nodes = (
(288,0,l),
(288,18,l),
(255,35,o),
(232,56,o),
(232,68,cs),
(232,333,l),
(231,333,l),
(232,412,l),
(221,421,l),
(18,362,l),
(18,341,l),
(58,330,o),
(87,312,o),
(88,298,cs),
(91,231,o),
(91,135,o),
(88,68,cs),
(87,52,o),
(58,31,o),
(18,18,c),
(18,0,l)
);
},
{
closed = 1;
nodes = (
(882,0,l),
(882,18,l),
(840,31,o),
(810,52,o),
(810,68,cs),
(810,291,ls),
(810,363,o),
(752,414,o),
(671,414,cs),
(611,414,o),
(537,376,o),
(494,323,c),
(494,304,l),
(519,322,o),
(558,335,o),
(589,335,cs),
(631,335,o),
(662,298,o),
(665,246,cs),
(669,194,o),
(669,120,o),
(665,68,cs),
(663,44,o),
(641,23,o),
(612,18,c),
(612,0,l)
);
}
);
width = 882;
}
);
note = m;
unicode = 109;
},
{
glyphname = n;
lastChange = "2025-03-07 19:06:16 +0000";
layers = (
{
anchors = (
{
name = bottom;
pos = (248,0);
},
{
name = top;
pos = (245,384);
}
);
background = {
shapes = (
{
closed = 1;
nodes = (
(91,40,l),
(116,18,o),
(135,7,o),
(165,-3,c),
(239,40,l),
(201,52,o),
(187,60,o),
(163,80,c),
(163,342,l),
(164,341,l),
(187,347,o),
(199,349,o),
(217,349,cs),
(263,349,o),
(295,337,o),
(336,304,c),
(336,40,l),
(361,18,o),
(380,6,o),
(409,-3,c),
(484,40,l),
(446,52,o),
(431,60,o),
(408,80,c),
(408,344,l),
(358,384,o),
(331,395,o),
(283,395,cs),
(235,395,o),
(204,383,o),
(160,347,c),
(161,346,ls),
(137,367,o),
(119,377,o),
(90,387,c),
(16,344,l),
(53,332,o),
(68,324,o),
(91,304,c)
);
},
{
closed = 1;
nodes = (
(91,40,l,{
"Letterink-NibData" = {
AngleInDegrees = "0";
};
}),
(116,18,o),
(135,7,o),
(165,-3,c,{
"Letterink-NibData" = {
AngleInDegrees = "360";
};
}),
(239,40,l,{
"Letterink-NibData" = {
AngleInDegrees = "0";
};
}),
(201,52,o),
(187,60,o),
(163,80,c),
(163,342,l,{
"Letterink-NibData" = {
AngleInDegrees = "360";
};
}),
(164,341,l,{
"Letterink-NibData" = {
AngleInDegrees = "0";
};
}),
(187,347,o),
(199,349,o),
(217,349,cs),
(263,349,o),
(295,337,o),
(336,304,c),
(336,40,l,{
"Letterink-NibData" = {
AngleInDegrees = "0";
};
}),
(361,18,o),
(380,6,o),
(409,-3,c,{
"Letterink-NibData" = {
AngleInDegrees = "0";
};
}),
(484,40,l,{
"Letterink-NibData" = {
AngleInDegrees = "0";
};
}),
(446,52,o),
(431,60,o),
(408,80,c),
(408,344,l,{
"Letterink-NibData" = {
AngleInDegrees = "0";
};
}),
(358,384,o),
(331,395,o),
(283,395,cs),
(235,395,o),
(204,383,o),
(160,347,c,{
"Letterink-NibData" = {
AngleInDegrees = "360";
};
}),
(161,346,ls,{
"Letterink-NibData" = {
AngleInDegrees = "359.99999";
};
}),
(137,367,o),
(119,377,o),
(90,387,c,{
"Letterink-NibData" = {
AngleInDegrees = "359.99999";
};
}),
(16,344,l,{
"Letterink-NibData" = {
AngleInDegrees = "0";
};
}),
(53,332,o),
(68,324,o),
(91,304,c)
);
}
);
};
color = 1;
layerId = m005;
shapes = (
{
closed = 1;
nodes = (
(486,0,l),
(486,18,l),
(438,32,o),
(414,37,o),
(414,68,cs),
(414,273,ls),
(414,355,o),
(382,395,o),
(312,395,cs),
(262,395,o),
(205,365,o),
(139,305,c),
(139,286,l),
(199,329,o),
(232,335,o),
(267,335,cs),
(319,335,o),
(338,306,o),
(342,246,cs),
(346,189,o),
(346,125,o),
(342,68,cs),
(340,38,o),
(316,24,o),
(288,18,c),
(288,0,l)
);
},
{
closed = 1;
nodes = (
(216,0,l),
(216,18,l),
(182,32,o),
(162,38,o),
(162,68,cs),
(162,315,l),
(164,315,l),
(165,397,l),
(150,403,l),
(18,362,l),
(18,341,l),
(46,333,o),
(86,319,o),
(89,298,cs),
(91,284,o),
(89,129,o),
(89,68,cs),
(89,36,o),
(66,32,o),
(18,18,c),
(18,0,l)
);
}
);
width = 486;
},
{
anchors = (
{
name = bottom;
pos = (297,0);
},
{
name = top;
pos = (297,399);
}
);
background = {
shapes = (
{
closed = 1;
nodes = (
(522,0,l),
(522,18,l),
(474,32,o),
(450,37,o),
(450,68,cs),
(450,273,ls),
(450,355,o),
(418,395,o),
(348,395,cs),
(298,395,o),
(241,365,o),
(175,305,c),
(175,286,l),
(235,329,o),
(268,335,o),
(303,335,cs),
(355,335,o),
(374,306,o),
(378,246,cs),
(382,189,o),
(382,125,o),
(378,68,cs),
(376,38,o),
(352,24,o),
(324,18,c),
(324,0,l)
);
},
{
closed = 1;
nodes = (
(216,0,l),
(216,18,l),
(182,32,o),
(162,38,o),
(162,68,cs),
(162,315,l),
(164,315,l),
(165,397,l),
(150,403,l),
(18,362,l),
(18,341,l),
(46,333,o),
(86,319,o),
(89,298,cs),
(91,284,o),
(89,129,o),
(89,68,cs),
(89,36,o),
(66,32,o),
(18,18,c),
(18,0,l)
);
},
{
closed = 1;
nodes = (
(594,18,l),
(594,36,l),
(546,50,o),
(522,55,o),
(522,86,cs),
(522,291,ls),
(522,373,o),
(490,413,o),
(420,413,cs),
(370,413,o),
(313,383,o),
(247,323,c),
(247,304,l),
(307,347,o),
(340,353,o),
(375,353,cs),
(427,353,o),
(446,324,o),
(450,264,cs),
(454,207,o),
(454,143,o),
(450,86,cs),
(448,56,o),
(424,42,o),
(396,36,c),
(396,18,l)
);
},
{
closed = 1;
nodes = (
(288,18,l),
(288,36,l),
(254,50,o),
(234,56,o),
(234,86,cs),
(234,333,l),
(236,333,l),
(237,415,l),
(222,421,l),
(90,380,l),
(90,359,l),
(118,351,o),
(158,337,o),
(161,316,cs),
(163,302,o),
(161,147,o),
(161,86,cs),
(161,54,o),
(138,50,o),
(90,36,c),
(90,18,l)
);
}
);
};
color = 1;
layerId = m002;
shapes = (
{
closed = 1;
nodes = (
(594,0,l),
(594,18,l),
(552,30,o),
(522,51,o),
(522,68,cs),
(522,273,ls),
(522,355,o),
(465,413,o),
(384,413,cs),
(331,413,o),
(252,376,o),
(193,323,c),
(193,304,l),
(218,322,o),
(264,335,o),
(303,335,cs),
(344,335,o),
(375,298,o),
(378,246,cs),
(381,201,o),
(381,128,o),
(378,68,cs),
(376,45,o),
(354,24,o),
(324,18,c),
(324,0,l)
);
},
{
closed = 1;
nodes = (
(288,0,l),
(288,18,l),
(254,32,o),
(234,38,o),
(234,68,cs),
(234,333,l),
(236,333,l),
(237,415,l),
(222,421,l),
(18,362,l),
(18,341,l),
(46,333,o),
(86,319,o),
(89,298,cs),
(91,284,o),
(87,129,o),
(89,68,cs),
(90,36,o),
(66,32,o),
(18,18,c),
(18,0,l)
);
}
);
width = 594;
}
);
note = n;
unicode = 110;
},
{
glyphname = eng;
lastChange = "2025-03-07 13:07:43 +0000";
layers = (
{
anchors = (
{
name = bottom;
pos = (225,-232);
},
{
name = top;
pos = (225,384);
}
);
layerId = m005;
shapes = (
{
closed = 1;
nodes = (
(414,68,l),
(414,273,ls),
(414,355,o),
(382,395,o),
(312,395,cs),
(262,395,o),
(205,365,o),
(139,305,c),
(139,286,l),
(199,329,o),
(232,335,o),
(267,335,cs),
(319,335,o),
(334,306,o),
(338,246,cs),
(342,189,o),
(341,58,o),
(341,1,c)
);
},
{
closed = 1;
nodes = (
(216,0,l),
(216,18,l),
(182,32,o),
(162,38,o),
(162,68,cs),
(162,315,l),
(164,315,l),
(165,397,l),
(150,403,l),
(18,362,l),
(18,341,l),
(46,333,o),
(86,319,o),
(89,298,cs),
(91,284,o),
(91,129,o),
(89,68,cs),
(88,37,o),
(76,32,o),
(36,18,c),
(36,0,l)
);
},
{
closed = 1;
nodes = (
(341,1,l),
(341,-87,o),
(309,-160,o),
(286,-178,c),
(283,-179,o),
(279,-179,o),
(275,-179,cs),
(271,-179,o),
(267,-179,o),
(264,-178,cs),
(250,-174,o),
(255,-168,o),
(240,-164,cs),
(219,-158,o),
(196,-191,o),
(196,-212,cs),
(196,-221,o),
(199,-228,o),
(208,-230,cs),
(214,-231,o),
(220,-232,o),
(227,-232,cs),
(242,-232,o),
(258,-229,o),
(271,-224,cs),
(273,-223,o),
(275,-222,o),
(276,-222,c),
(286,-218,o),
(299,-208,o),
(309,-201,cs),
(361,-164,o),
(414,-51,o),
(414,68,c)
);
}
);
width = 450;
},
{
anchors = (
{
name = bottom;
pos = (225,-232);
},
{
name = top;
pos = (225,399);
}
);
layerId = m002;
shapes = (
{
closed = 1;
nodes = (
(414,68,l),
(414,273,ls),
(414,355,o),
(382,395,o),
(312,395,cs),
(262,395,o),
(205,365,o),
(139,305,c),
(139,286,l),
(199,329,o),
(232,335,o),
(267,335,cs),
(319,335,o),
(334,306,o),
(338,246,cs),
(342,189,o),
(341,58,o),
(341,1,c)
);
},
{
closed = 1;
nodes = (
(216,0,l),
(216,18,l),
(182,32,o),
(162,38,o),
(162,68,cs),
(162,315,l),
(164,315,l),
(165,397,l),
(150,403,l),
(18,362,l),
(18,341,l),
(46,333,o),
(86,319,o),
(89,298,cs),
(91,284,o),
(91,129,o),
(89,68,cs),
(88,37,o),
(76,32,o),
(36,18,c),
(36,0,l)
);
},
{
closed = 1;
nodes = (
(341,1,l),
(341,-87,o),
(309,-160,o),
(286,-178,c),
(283,-179,o),
(279,-179,o),
(275,-179,cs),
(271,-179,o),
(267,-179,o),
(264,-178,cs),
(250,-174,o),
(255,-168,o),
(240,-164,cs),
(219,-158,o),
(196,-191,o),
(196,-212,cs),
(196,-221,o),
(199,-228,o),
(208,-230,cs),
(214,-231,o),
(220,-232,o),
(227,-232,cs),
(242,-232,o),
(258,-229,o),
(271,-224,cs),
(273,-223,o),
(275,-222,o),
(276,-222,c),
(286,-218,o),
(299,-208,o),
(309,-201,cs),
(361,-164,o),
(414,-51,o),
(414,68,c)
);
}
);
width = 450;
}
);
unicode = 331;
},
{
glyphname = o;
lastChange = "2025-03-07 19:06:43 +0000";
layers = (
{
anchors = (
{
name = bottom;
pos = (243,0);
},
{
name = center;
pos = (243,192);
},
{
name = ogonek;
pos = (330,10);
},
{
name = top;
pos = (238,384);
},
{
name = topright;
pos = (343,291);
}
);
background = {
shapes = (
{
closed = 1;
nodes = (
(76,316,o),
(32,256,o),
(32,174,cs),
(32,74,o),
(116,-11,o),
(215,-11,cs),
(263,-11,o),
(294,1,o),
(338,36,c),
(421,68,o),
(464,128,o),
(464,210,cs),
(464,310,o),
(380,395,o),
(281,395,cs),
(233,395,o),
(202,383,o),
(158,347,c)
);
},
{
closed = 1;
nodes = (
(186,347,o),
(197,349,o),
(215,349,cs),
(315,349,o),
(392,273,o),
(392,174,cs),
(392,125,o),
(373,82,o),
(334,43,c),
(310,37,o),
(298,35,o),
(281,35,cs),
(181,35,o),
(104,111,o),
(104,210,cs),
(104,259,o),
(123,302,o),
(162,341,c)
);
},
{
closed = 1;
nodes = (
(88,320,o),
(32,244,o),
(32,174,cs),
(32,71,o),
(113,-11,o),
(215,-11,cs),
(249,-11,o),
(304,10,o),
(338,36,c,{
"Letterink-NibData" = {
AngleInDegrees = "0";
};
}),
(408,63,o),
(464,140,o),
(464,210,cs),
(464,313,o),
(383,395,o),
(281,395,cs),
(259,395,o),
(205,374,o),
(158,347,c,{
"Letterink-NibData" = {
AngleInDegrees = "359.99999";
};
})
);
},
{
closed = 1;
nodes = (
(230,346,o),
(247,349,o),
(215,349,cs),
(314,349,o),
(392,271,o),
(392,174,cs),
(392,133,o),
(366,75,o),
(334,43,c,{
"Letterink-NibData" = {
AngleInDegrees = "360";
};
}),
(307,39,o),
(281,35,o),
(281,35,cs),
(182,35,o),
(104,113,o),
(104,210,cs),
(104,251,o),
(130,309,o),
(162,341,c,{
"Letterink-NibData" = {
AngleInDegrees = "360";
};
})
);
}
);
};
color = 4;
layerId = m005;
shapes = (
{
closed = 1;
nodes = (
(363,-8,o),
(450,75,o),
(450,196,cs),
(450,313,o),
(363,392,o),
(239,392,cs),
(120,392,o),
(36,308,o),
(36,185,cs),
(36,70,o),
(120,-8,o),
(239,-8,cs)
);
},
{
closed = 1;
nodes = (
(118,296,o),
(166,356,o),
(231,356,cs),
(310,356,o),
(368,282,o),
(368,174,cs),
(368,87,o),
(317,28,o),
(247,28,cs),
(173,28,o),
(118,101,o),
(118,208,cs)
);
}
);
width = 486;
},
{
anchors = (
{
name = bottom;
pos = (261,0);
},
{
name = center;
pos = (261,200);
},
{
name = ogonek;
pos = (470,10);
},
{
name = top;
pos = (261,399);
},
{
name = topright;
pos = (502,399);
}
);
background = {
shapes = (
{
closed = 1;
nodes = (
(345,-8,o),
(432,75,o),
(432,196,cs),
(432,313,o),
(345,392,o),
(221,392,cs),
(102,392,o),
(18,308,o),
(18,185,cs),
(18,70,o),
(102,-8,o),
(221,-8,cs)
);
},
{
closed = 1;
nodes = (
(100,296,o),
(148,356,o),
(213,356,cs),
(292,356,o),
(350,282,o),
(350,174,cs),
(350,87,o),
(299,28,o),
(229,28,cs),
(155,28,o),
(100,101,o),
(100,208,cs)
);
},
{
closed = 1;
nodes = (
(417,10,o),
(504,93,o),
(504,214,cs),
(504,331,o),
(417,410,o),
(293,410,cs),
(174,410,o),
(90,326,o),
(90,203,cs),
(90,88,o),
(174,10,o),
(293,10,cs)
);
},
{
closed = 1;
nodes = (
(172,314,o),
(220,374,o),
(285,374,cs),
(364,374,o),
(422,300,o),
(422,192,cs),
(422,105,o),
(371,46,o),
(301,46,cs),
(227,46,o),
(172,119,o),
(172,226,cs)
);
}
);
};
color = 4;
layerId = m002;
shapes = (
{
closed = 1;
nodes = (
(402,-11,o),
(504,82,o),
(504,214,cs),
(504,329,o),
(402,410,o),
(257,410,cs),
(117,410,o),
(18,317,o),
(18,185,cs),
(18,70,o),
(117,-11,o),
(257,-11,cs)
);
},
{
closed = 1;
nodes = (
(172,313,o),
(204,374,o),
(249,374,cs),
(308,374,o),
(350,291,o),
(350,174,cs),
(350,87,o),
(315,25,o),
(265,25,cs),
(211,25,o),
(172,108,o),
(172,226,cs)
);
}
);
width = 522;
}
);
note = o;
unicode = 111;
},
{
glyphname = oopen;
lastChange = "2025-03-07 19:07:03 +0000";
layers = (
{
anchors = (
{
name = bottom;
pos = (196,0);
},
{
name = top;
pos = (196,384);
}
);
layerId = m005;
shapes = (
{
closed = 1;
nodes = (
(303,82,o),
(261,17,o),
(201,17,c),
(187,-11,l),
(299,-11,o),
(378,75,o),
(378,196,cs),
(378,313,o),
(303,395,o),
(198,395,cs),
(127,395,o),
(52,348,o),
(18,281,c),
(36,268,l),
(64,305,o),
(123,332,o),
(177,332,cs),
(251,332,o),
(303,267,o),
(303,174,cs)
);
},
{
closed = 1;
nodes = (
(201,17,l),
(138,17,o),
(93,65,o),
(91,133,c),
(52,133,l),
(54,84,o),
(53,35,o),
(49,13,c),
(90,-1,o),
(147,-11,o),
(187,-11,c)
);
}
);
width = 396;
},
{
anchors = (
{
name = bottom;
pos = (198,0);
},
{
name = top;
pos = (198,399);
}
);
layerId = m002;
shapes = (
{
closed = 1;
nodes = (
(303,82,o),
(261,17,o),
(201,17,c),
(187,-11,l),
(299,-11,o),
(378,75,o),
(378,196,cs),
(378,313,o),
(303,395,o),
(198,395,cs),
(127,395,o),
(52,348,o),
(18,281,c),
(36,268,l),
(64,305,o),
(123,332,o),
(177,332,cs),
(251,332,o),
(303,267,o),
(303,174,cs)
);
},
{
closed = 1;
nodes = (
(201,17,l),
(138,17,o),
(93,65,o),
(91,133,c),
(52,133,l),
(54,84,o),
(53,35,o),
(49,13,c),
(90,-1,o),
(147,-11,o),
(187,-11,c)
);
}
);
width = 396;
}
);
unicode = 596;
},
{
glyphname = oslash;
lastChange = "2025-03-07 13:07:43 +0000";
layers = (
{
anchors = (
{
name = top;
pos = (243,384);
}
);
layerId = m005;
shapes = (
{
ref = o;
},
{
closed = 1;
nodes = (
(38,8,l),
(63,-17,l),
(453,372,l),
(428,397,l)
);
}
);
width = 486;
},
{
anchors = (
{
name = top;
pos = (243,399);
}
);
layerId = m002;
shapes = (
{
ref = o;
},
{
closed = 1;
nodes = (
(38,8,l),
(63,-17,l),
(453,372,l),
(428,397,l)
);
}
);
width = 486;
}
);
unicode = 248;
},
{
glyphname = oe;
lastChange = "2025-03-07 13:07:43 +0000";
layers = (
{
anchors = (
{
name = bottom;
pos = (369,0);
},
{
name = top;
pos = (369,384);
}
);
color = 10;
layerId = m005;
shapes = (
{
closed = 1;
nodes = (
(370,-11,o),
(451,75,o),
(451,196,cs),
(451,313,o),
(370,395,o),
(243,395,cs),
(121,395,o),
(35,308,o),
(35,185,cs),
(35,70,o),
(121,-11,o),
(243,-11,cs)
);
},
{
closed = 1;
nodes = (
(123,296,o),
(169,359,o),
(235,359,cs),
(315,359,o),
(371,282,o),
(371,174,cs),
(371,87,o),
(321,25,o),
(251,25,cs),
(176,25,o),
(123,101,o),
(123,208,cs)
);
},
{
closed = 1;
nodes = (
(454,302,o),
(496,362,o),
(556,362,cs),
(601,362,o),
(635,325,o),
(638,266,c),
(431,260,l),
(427,231,l),
(707,225,l),
(719,239,l),
(719,330,o),
(657,395,o),
(570,395,cs),
(458,395,o),
(379,309,o),
(379,188,cs),
(379,71,o),
(450,-11,o),
(551,-11,cs),
(613,-11,o),
(682,33,o),
(717,95,c),
(699,108,l),
(676,75,o),
(624,52,o),
(572,52,cs),
(503,52,o),
(454,117,o),
(454,210,cs)
);
}
);
width = 738;
},
{
anchors = (
{
name = bottom;
pos = (369,0);
},
{
name = top;
pos = (369,399);
}
);
color = 10;
layerId = m002;
shapes = (
{
closed = 1;
nodes = (
(370,-11,o),
(451,75,o),
(451,196,cs),
(451,313,o),
(370,395,o),
(243,395,cs),
(121,395,o),
(35,308,o),
(35,185,cs),
(35,70,o),
(121,-11,o),
(243,-11,cs)
);
},
{
closed = 1;
nodes = (
(123,296,o),
(169,359,o),
(235,359,cs),
(315,359,o),
(371,282,o),
(371,174,cs),
(371,87,o),
(321,25,o),
(251,25,cs),
(176,25,o),
(123,101,o),
(123,208,cs)
);
},
{
closed = 1;
nodes = (
(454,302,o),
(496,362,o),
(556,362,cs),
(601,362,o),
(635,325,o),
(638,266,c),
(431,260,l),
(427,231,l),
(707,225,l),
(719,239,l),
(719,330,o),
(657,395,o),
(570,395,cs),
(458,395,o),
(379,309,o),
(379,188,cs),
(379,71,o),
(450,-11,o),
(551,-11,cs),
(613,-11,o),
(682,33,o),
(717,95,c),
(699,108,l),
(676,75,o),
(624,52,o),
(572,52,cs),
(503,52,o),
(454,117,o),
(454,210,cs)
);
}
);
width = 738;
}
);
unicode = 339;
},
